<svg version="1.1" viewBox="0.0 0.0 183.3989501312336 169.4698162729659" fill="none" stroke="none" stroke-linecap="square" stroke-miterlimit="10" xmlns:xlink="http://www.w3.org/1999/xlink" xmlns="http://www.w3.org/2000/svg"><clipPath id="p.0"><path d="m0 0l183.39896 0l0 169.46982l-183.39896 0l0 -169.46982z" clip-rule="nonzero"/></clipPath><g clip-path="url(#p.0)"><path fill="#000000" fill-opacity="0.0" d="m0 0l183.39896 0l0 169.46982l-183.39896 0z" fill-rule="evenodd"/><path fill="#000000" fill-opacity="0.0" d="m-0.0013026247 2.480315E-4l182.83464 0l0 169.70079l-182.83464 0z" fill-rule="evenodd"/><path stroke="#ffffff" stroke-width="1.0" stroke-linejoin="round" stroke-linecap="butt" d="m-0.0013026247 2.480315E-4l182.83464 0l0 169.70079l-182.83464 0z" fill-rule="evenodd"/><path fill="#ffffff" d="m29.855076 14.854473c0.6448631 2.551302 1.6311264 5.81011 2.958786 9.776421l4.352833 13.056667l-14.139591 0l4.580431 -13.828489c0.9672966 -2.980093 1.7164764 -5.9816265 2.2475414 -9.004599zm38.862537 0c0.64486694 2.551302 1.6311264 5.81011 2.958786 9.776421l4.3528366 13.056667l-14.139595 0l4.580429 -13.828489c0.9673004 -2.980093 1.7164764 -5.9816265 2.2475433 -9.004599zm-41.707527 -4.95253l-16.017284 47.145504l5.860675 0l4.580431 -14.278717l17.439777 0l4.864929 14.278717l11.977402 0l4.580429 -14.278717l17.439774 0l4.864937 14.278717l6.287422 0l-17.069931 -47.145504l-5.946022 0l-15.93465 46.90228l-16.981865 -46.90228z" fill-rule="evenodd"/><path fill="#ffffff" d="m106.925804 15.465499c2.9967194 0 5.111496 0.2215414 6.344322 0.6646261c1.2328262 0.43593788 2.18116 1.250639 2.844986 2.4441051c0.6638336 1.1863213 0.9957504 2.5620213 0.9957504 4.1271076c0 1.6508427 -0.35720825 3.022972 -1.0716171 4.1163883c-0.7080841 1.0934143 -1.7638931 1.8759575 -3.1674194 2.3476257c-1.0621262 0.36447334 -2.816536 0.54670906 -5.2632294 0.54670906l-9.018608 0l0 -14.246562zm1.3086929 19.810116c2.6553192 0 4.6879044 0.26442337 6.0977554 0.7932625c1.4161758 0.5216942 2.5225601 1.4328766 3.3191528 2.7335396c0.79660034 1.2935143 1.1949005 2.8192978 1.1949005 4.5773354c0 1.5007668 -0.27501678 2.8264427 -0.82505035 3.9770317c-0.55003357 1.1434402 -1.2517929 2.015316 -2.1052933 2.6156235c-0.85349274 0.60030365 -1.9156189 1.0290947 -3.186386 1.2863693c-0.720726 0.15007782 -1.9725189 0.22511673 -3.7553787 0.22511673l-10.384209 0l0 -16.208279zm-15.163788 -25.373672l0 47.145504l15.903488 0c2.6553192 0 4.896538 -0.260849 6.7236557 -0.78253937c1.833435 -0.5288429 3.3570786 -1.3078117 4.5709457 -2.3369102c1.2138596 -1.0290947 2.2317352 -2.4905586 3.0536194 -4.3843803c0.8282089 -1.9009743 1.2423096 -3.955593 1.2423096 -6.163864c0 -2.7442589 -0.6796341 -5.1240425 -2.03891 -7.1393585c-1.352951 -2.015316 -3.2907028 -3.4410439 -5.8132553 -4.2771835c1.9535599 -1.0934162 3.4139862 -2.5298653 4.381279 -4.3093452c0.9673004 -1.77948 1.450943 -3.676878 1.450943 -5.692192c0 -2.165392 -0.5468674 -4.237877 -1.6406097 -6.2174606c-1.0874176 -1.9867296 -2.5952606 -3.4553366 -4.523529 -4.405822c-1.9219437 -0.95763206 -4.4761124 -1.4364481 -7.6624985 -1.4364481z" fill-rule="evenodd"/><path fill="#ffffff" d="m145.78835 15.465499c2.9967194 0 5.111496 0.2215414 6.3443146 0.6646261c1.2328339 0.43593788 2.1811676 1.250639 2.844986 2.4441051c0.6638336 1.1863213 0.99575806 2.5620213 0.99575806 4.1271076c0 1.6508427 -0.35720825 3.022972 -1.0716248 4.1163883c-0.7080841 1.0934143 -1.7638855 1.8759575 -3.1674194 2.3476257c-1.0621185 0.36447334 -2.8165283 0.54670906 -5.2632294 0.54670906l-9.0186 0l0 -14.246562zm1.3086853 19.810116c2.6553192 0 4.687912 0.26442337 6.097763 0.7932625c1.4161682 0.5216942 2.5225525 1.4328766 3.3191528 2.7335396c0.79660034 1.2935143 1.1949005 2.8192978 1.1949005 4.5773354c0 1.5007668 -0.2750244 2.8264427 -0.825058 3.9770317c-0.55003357 1.1434402 -1.2517853 2.015316 -2.1052856 2.6156235c-0.85350037 0.60030365 -1.9156189 1.0290947 -3.186386 1.2863693c-0.72073364 0.15007782 -1.9725189 0.22511673 -3.7553864 0.22511673l-10.384201 0l0 -16.208279zm-15.163788 -25.373672l0 47.145504l15.903488 0c2.6553192 0 4.8965454 -0.260849 6.7236633 -0.78253937c1.833435 -0.5288429 3.357071 -1.3078117 4.570938 -2.3369102c1.2138672 -1.0290947 2.2317352 -2.4905586 3.0536194 -4.3843803c0.82821655 -1.9009743 1.2423096 -3.955593 1.2423096 -6.163864c0 -2.7442589 -0.67962646 -5.1240425 -2.03891 -7.1393585c-1.3529358 -2.015316 -3.2906952 -3.4410439 -5.8132477 -4.2771835c1.9535522 -1.0934162 3.4139862 -2.5298653 4.3812714 -4.3093452c0.9673004 -1.77948 1.450943 -3.676878 1.450943 -5.692192c0 -2.165392 -0.54685974 -4.237877 -1.6406097 -6.2174606c-1.0874023 -1.9867296 -2.5952606 -3.4553366 -4.523529 -4.405822c-1.921936 -0.95763206 -4.4761047 -1.4364481 -7.662491 -1.4364481z" fill-rule="evenodd"/><path stroke="#ffffff" stroke-width="1.0" stroke-linejoin="round" stroke-linecap="butt" d="m29.855076 14.854473c0.6448631 2.551302 1.6311264 5.81011 2.958786 9.776421l4.352833 13.056667l-14.139591 0l4.580431 -13.828489c0.9672966 -2.980093 1.7164764 -5.9816265 2.2475414 -9.004599zm38.862537 0c0.64486694 2.551302 1.6311264 5.81011 2.958786 9.776421l4.3528366 13.056667l-14.139595 0l4.580429 -13.828489c0.9673004 -2.980093 1.7164764 -5.9816265 2.2475433 -9.004599zm-41.707527 -4.95253l-16.017284 47.145504l5.860675 0l4.580431 -14.278717l17.439777 0l4.864929 14.278717l11.977402 0l4.580429 -14.278717l17.439774 0l4.864937 14.278717l6.287422 0l-17.069931 -47.145504l-5.946022 0l-15.93465 46.90228l-16.981865 -46.90228z" fill-rule="evenodd"/><path stroke="#ffffff" stroke-width="1.0" stroke-linejoin="round" stroke-linecap="butt" d="m106.925804 15.465499c2.9967194 0 5.111496 0.2215414 6.344322 0.6646261c1.2328262 0.43593788 2.18116 1.250639 2.844986 2.4441051c0.6638336 1.1863213 0.9957504 2.5620213 0.9957504 4.1271076c0 1.6508427 -0.35720825 3.022972 -1.0716171 4.1163883c-0.7080841 1.0934143 -1.7638931 1.8759575 -3.1674194 2.3476257c-1.0621262 0.36447334 -2.816536 0.54670906 -5.2632294 0.54670906l-9.018608 0l0 -14.246562zm1.3086929 19.810116c2.6553192 0 4.6879044 0.26442337 6.0977554 0.7932625c1.4161758 0.5216942 2.5225601 1.4328766 3.3191528 2.7335396c0.79660034 1.2935143 1.1949005 2.8192978 1.1949005 4.5773354c0 1.5007668 -0.27501678 2.8264427 -0.82505035 3.9770317c-0.55003357 1.1434402 -1.2517929 2.015316 -2.1052933 2.6156235c-0.85349274 0.60030365 -1.9156189 1.0290947 -3.186386 1.2863693c-0.720726 0.15007782 -1.9725189 0.22511673 -3.7553787 0.22511673l-10.384209 0l0 -16.208279zm-15.163788 -25.373672l0 47.145504l15.903488 0c2.6553192 0 4.896538 -0.260849 6.7236557 -0.78253937c1.833435 -0.5288429 3.3570786 -1.3078117 4.5709457 -2.3369102c1.2138596 -1.0290947 2.2317352 -2.4905586 3.0536194 -4.3843803c0.8282089 -1.9009743 1.2423096 -3.955593 1.2423096 -6.163864c0 -2.7442589 -0.6796341 -5.1240425 -2.03891 -7.1393585c-1.352951 -2.015316 -3.2907028 -3.4410439 -5.8132553 -4.2771835c1.9535599 -1.0934162 3.4139862 -2.5298653 4.381279 -4.3093452c0.9673004 -1.77948 1.450943 -3.676878 1.450943 -5.692192c0 -2.165392 -0.5468674 -4.237877 -1.6406097 -6.2174606c-1.0874176 -1.9867296 -2.5952606 -3.4553366 -4.523529 -4.405822c-1.9219437 -0.95763206 -4.4761124 -1.4364481 -7.6624985 -1.4364481z" fill-rule="evenodd"/><path stroke="#ffffff" stroke-width="1.0" stroke-linejoin="round" stroke-linecap="butt" d="m145.78835 15.465499c2.9967194 0 5.111496 0.2215414 6.3443146 0.6646261c1.2328339 0.43593788 2.1811676 1.250639 2.844986 2.4441051c0.6638336 1.1863213 0.99575806 2.5620213 0.99575806 4.1271076c0 1.6508427 -0.35720825 3.022972 -1.0716248 4.1163883c-0.7080841 1.0934143 -1.7638855 1.8759575 -3.1674194 2.3476257c-1.0621185 0.36447334 -2.8165283 0.54670906 -5.2632294 0.54670906l-9.0186 0l0 -14.246562zm1.3086853 19.810116c2.6553192 0 4.687912 0.26442337 6.097763 0.7932625c1.4161682 0.5216942 2.5225525 1.4328766 3.3191528 2.7335396c0.79660034 1.2935143 1.1949005 2.8192978 1.1949005 4.5773354c0 1.5007668 -0.2750244 2.8264427 -0.825058 3.9770317c-0.55003357 1.1434402 -1.2517853 2.015316 -2.1052856 2.6156235c-0.85350037 0.60030365 -1.9156189 1.0290947 -3.186386 1.2863693c-0.72073364 0.15007782 -1.9725189 0.22511673 -3.7553864 0.22511673l-10.384201 0l0 -16.208279zm-15.163788 -25.373672l0 47.145504l15.903488 0c2.6553192 0 4.8965454 -0.260849 6.7236633 -0.78253937c1.833435 -0.5288429 3.357071 -1.3078117 4.570938 -2.3369102c1.2138672 -1.0290947 2.2317352 -2.4905586 3.0536194 -4.3843803c0.82821655 -1.9009743 1.2423096 -3.955593 1.2423096 -6.163864c0 -2.7442589 -0.67962646 -5.1240425 -2.03891 -7.1393585c-1.3529358 -2.015316 -3.2906952 -3.4410439 -5.8132477 -4.2771835c1.9535522 -1.0934162 3.4139862 -2.5298653 4.3812714 -4.3093452c0.9673004 -1.77948 1.450943 -3.676878 1.450943 -5.692192c0 -2.165392 -0.54685974 -4.237877 -1.6406097 -6.2174606c-1.0874023 -1.9867296 -2.5952606 -3.4553366 -4.523529 -4.405822c-1.921936 -0.95763206 -4.4761047 -1.4364481 -7.662491 -1.4364481z" fill-rule="evenodd"/><path fill="#ffffff" d="m16.884893 96.997314c1.2761536 0 2.176731 0.10102081 2.7017326 0.30307007c0.5249996 0.19878387 0.92884636 0.5702896 1.2115383 1.114502c0.28269386 0.5409622 0.42403984 1.1682739 0.42403984 1.8819504c0 0.7527847 -0.15211678 1.3784714 -0.4563465 1.8770599c-0.30153847 0.4985962 -0.75115585 0.85543823 -1.3488483 1.0705185c-0.45230675 0.1661911 -1.1994228 0.24929047 -2.2413464 0.24929047l-3.840581 0l0 -6.4963913zm0.5573082 9.033363c1.1307697 0 1.9963474 0.12057495 2.5967312 0.36172485c0.60307884 0.23789215 1.0742321 0.653389 1.4134636 1.2464828c0.3392315 0.58984375 0.5088463 1.2855911 0.5088463 2.0872574c0 0.68434143 -0.11711502 1.2888489 -0.35134697 1.8135147c-0.23423004 0.52140045 -0.53307724 0.91897583 -0.8965378 1.1927185c-0.36346245 0.27373505 -0.8157711 0.46926117 -1.356924 0.58657837c-0.30692482 0.06843567 -0.84000206 0.1026535 -1.5992336 0.1026535l-4.422118 0l0 -7.39093zm-6.457505 -11.570328l0 21.498222l6.772504 0c1.1307716 0 2.0851955 -0.11894989 2.8632717 -0.3568344c0.78076935 -0.2411499 1.4296169 -0.59635925 1.9465408 -1.065628c0.5169239 -0.46926117 0.95038414 -1.1356888 1.3003845 -1.9992676c0.35269356 -0.86683655 0.5290394 -1.8037338 0.5290394 -2.8106995c0 -1.2513733 -0.289423 -2.3365555 -0.86826897 -3.2555313c-0.5761547 -0.91897583 -1.4013481 -1.569107 -2.4755802 -1.950386c0.83192444 -0.4985962 1.4538479 -1.1536102 1.8657703 -1.9650497c0.41192436 -0.8114395 0.6178856 -1.6766434 0.6178856 -2.5956192c0 -0.9874191 -0.23288345 -1.9324646 -0.6986542 -2.8351517c-0.46307755 -0.9059372 -1.1051922 -1.5756226 -1.9263477 -2.0090408c-0.8184624 -0.43667603 -1.9061546 -0.65501404 -3.2630787 -0.65501404z" fill-rule="evenodd"/><path stroke="#ffffff" stroke-width="1.0" stroke-linejoin="round" stroke-linecap="butt" d="m16.884893 96.997314c1.2761536 0 2.176731 0.10102081 2.7017326 0.30307007c0.5249996 0.19878387 0.92884636 0.5702896 1.2115383 1.114502c0.28269386 0.5409622 0.42403984 1.1682739 0.42403984 1.8819504c0 0.7527847 -0.15211678 1.3784714 -0.4563465 1.8770599c-0.30153847 0.4985962 -0.75115585 0.85543823 -1.3488483 1.0705185c-0.45230675 0.1661911 -1.1994228 0.24929047 -2.2413464 0.24929047l-3.840581 0l0 -6.4963913zm0.5573082 9.033363c1.1307697 0 1.9963474 0.12057495 2.5967312 0.36172485c0.60307884 0.23789215 1.0742321 0.653389 1.4134636 1.2464828c0.3392315 0.58984375 0.5088463 1.2855911 0.5088463 2.0872574c0 0.68434143 -0.11711502 1.2888489 -0.35134697 1.8135147c-0.23423004 0.52140045 -0.53307724 0.91897583 -0.8965378 1.1927185c-0.36346245 0.27373505 -0.8157711 0.46926117 -1.356924 0.58657837c-0.30692482 0.06843567 -0.84000206 0.1026535 -1.5992336 0.1026535l-4.422118 0l0 -7.39093zm-6.457505 -11.570328l0 21.498222l6.772504 0c1.1307716 0 2.0851955 -0.11894989 2.8632717 -0.3568344c0.78076935 -0.2411499 1.4296169 -0.59635925 1.9465408 -1.065628c0.5169239 -0.46926117 0.95038414 -1.1356888 1.3003845 -1.9992676c0.35269356 -0.86683655 0.5290394 -1.8037338 0.5290394 -2.8106995c0 -1.2513733 -0.289423 -2.3365555 -0.86826897 -3.2555313c-0.5761547 -0.91897583 -1.4013481 -1.569107 -2.4755802 -1.950386c0.83192444 -0.4985962 1.4538479 -1.1536102 1.8657703 -1.9650497c0.41192436 -0.8114395 0.6178856 -1.6766434 0.6178856 -2.5956192c0 -0.9874191 -0.23288345 -1.9324646 -0.6986542 -2.8351517c-0.46307755 -0.9059372 -1.1051922 -1.5756226 -1.9263477 -2.0090408c-0.8184624 -0.43667603 -1.9061546 -0.65501404 -3.2630787 -0.65501404z" fill-rule="evenodd"/><path fill="#ffffff" d="m29.910128 102.89273l1.7185688 6.1872177l-3.4031048 0l1.684536 -6.1872177zm-1.3016872 -3.8897629l-4.857931 16.67366l2.6714363 0l1.0294399 -3.787407l4.985546 0l1.0889931 3.787407l2.739502 0l-4.9940567 -16.67366z" fill-rule="evenodd"/><path fill="#ffffff" d="m37.626667 99.00297l0 16.67366l2.339634 0l0 -10.873138l5.0280876 10.873138l2.526802 0l0 -16.67366l-2.339634 0l0 11.1347275l-5.104656 -11.1347275z" fill-rule="evenodd"/><path fill="#ffffff" d="m55.57804 98.71863c-1.7469254 0 -3.1563797 0.7683487 -4.2283554 2.305046c-1.0719795 1.5341644 -1.6079674 3.6888275 -1.6079674 6.463974c0 2.6235046 0.53315353 4.692238 1.5994568 6.2061844c1.0663071 1.5114212 2.4275475 2.2671356 4.083725 2.2671356c1.3385544 0 2.4426727 -0.44104767 3.312355 -1.3231277c0.8715744 -0.88461304 1.4945297 -2.2368011 1.8688736 -4.0565796l-2.4417305 -1.0349884c-0.20985794 1.2207565 -0.55583954 2.1154785 -1.0379448 2.6841583c-0.48210526 0.5686798 -1.0578003 0.8530197 -1.7270775 0.8530197c-0.9074936 0 -1.6448326 -0.44735718 -2.212017 -1.3420792c-0.56718445 -0.894722 -0.8507767 -2.3960342 -0.8507767 -4.503937c0 -1.9865875 0.2873764 -3.4234467 0.8621216 -4.310585c0.57663727 -0.88713837 1.3272095 -1.3307114 2.2517204 -1.3307114c0.6692772 0 1.2374077 0.25022125 1.7043877 0.7506561c0.46887207 0.5004425 0.7770424 1.1828537 0.92451096 2.0472488l2.492775 -0.7961502c-0.28359222 -1.3345032 -0.70898056 -2.3581238 -1.276165 -3.0708694c-0.9528694 -1.2055969 -2.1921654 -1.8083954 -3.7178917 -1.8083954z" fill-rule="evenodd"/><path fill="#ffffff" d="m68.314156 101.59614c1.0379486 0 1.8698196 0.47010803 2.495613 1.4103241c0.62768555 0.94021606 0.9415207 2.3657074 0.9415207 4.2764664c0 1.9335098 -0.32234955 3.3842697 -0.96704865 4.3522873c-0.642807 0.96549225 -1.4661636 1.4482346 -2.4700851 1.4482346c-1.0039139 0 -1.8320007 -0.48653412 -2.4842606 -1.45961c-0.65226746 -0.9756012 -0.97839355 -2.407402 -0.97839355 -4.295418c0 -1.9183426 0.31761932 -3.3526764 0.9528656 -4.3030014c0.6352463 -0.952858 1.4718475 -1.4292831 2.5097885 -1.4292831zm-0.025520325 -2.87751c-1.0152588 0 -1.9114075 0.21988678 -2.6884537 0.65966797c-0.584198 0.32604218 -1.122078 0.82647705 -1.613636 1.5013123c-0.4896698 0.6748276 -0.8763008 1.4368591 -1.159893 2.286087c-0.3800125 1.1525192 -0.57001877 2.5780106 -0.57001877 4.2764587c0 2.653839 0.54733276 4.737732 1.6419983 6.2516785c1.0946617 1.5114212 2.5693398 2.2671356 4.4240303 2.2671356c1.8320084 0 3.2953415 -0.7595062 4.390007 -2.278511c1.0946655 -1.5215302 1.6419983 -3.6281662 1.6419983 -6.319916c0 -2.7144928 -0.552063 -4.8337708 -1.6561737 -6.357826c-1.1022339 -1.5240631 -2.5721817 -2.286087 -4.4098587 -2.286087z" fill-rule="evenodd"/><path fill="#ffffff" d="m84.8022 101.82361c1.0265961 0 1.7157288 0.053077698 2.0673828 0.1592331c0.47076416 0.13648224 0.85928345 0.39807892 1.1655655 0.7847748c0.3062744 0.3867035 0.5444946 0.92505646 0.7146454 1.6150513c0.17015839 0.6899948 0.25523376 1.6794968 0.25523376 2.9684982c0 1.2890091 -0.08507538 2.3075714 -0.25523376 3.0557022c-0.17015076 0.74559784 -0.39041138 1.2814255 -0.6607666 1.6074677c-0.26846313 0.32604218 -0.6068878 0.5573044 -1.0152588 0.6937866c-0.31195068 0.106155396 -0.8195801 0.1592331 -1.5228882 0.1592331l-1.8802185 0l0 -11.043747zm-3.6498337 -2.8206406l0 16.67366l4.738823 0c0.9301834 0 1.6731949 -0.11753082 2.2290344 -0.35258484c0.7430115 -0.31845856 1.3328857 -0.76203156 1.7696152 -1.3307037c0.57852936 -0.7506561 1.0237656 -1.7325745 1.3357162 -2.9457626c0.25523376 -0.99328613 0.38285065 -2.1761398 0.38285065 -3.5485535c0 -1.561966 -0.13612366 -2.8749847 -0.40837097 -3.9390488c-0.2722473 -1.0665894 -0.669281 -1.9676285 -1.1910858 -2.7031174c-0.52181244 -0.7354889 -1.148552 -1.2472992 -1.8802185 -1.5354309c-0.5444946 -0.21231079 -1.3357162 -0.31845856 -2.3736649 -0.31845856z" fill-rule="evenodd"/><path fill="#ffffff" d="m99.29092 101.59614c1.037941 0 1.869812 0.47010803 2.4956055 1.4103241c0.62768555 0.94021606 0.9415283 2.3657074 0.9415283 4.2764664c0 1.9335098 -0.32234955 3.3842697 -0.96704865 4.3522873c-0.64281464 0.96549225 -1.4661713 1.4482346 -2.4700851 1.4482346c-1.0039215 0 -1.8320084 -0.48653412 -2.4842682 -1.45961c-0.6522598 -0.9756012 -0.97839355 -2.407402 -0.97839355 -4.295418c0 -1.9183426 0.31761932 -3.3526764 0.9528656 -4.3030014c0.6352463 -0.952858 1.4718475 -1.4292831 2.5097961 -1.4292831zm-0.025527954 -2.87751c-1.0152588 0 -1.9114075 0.21988678 -2.6884537 0.65966797c-0.584198 0.32604218 -1.122078 0.82647705 -1.6136398 1.5013123c-0.4896698 0.6748276 -0.876297 1.4368591 -1.1598892 2.286087c-0.3800125 1.1525192 -0.57001495 2.5780106 -0.57001495 4.2764587c0 2.653839 0.54733276 4.737732 1.6419907 6.2516785c1.0946655 1.5114212 2.5693436 2.2671356 4.4240417 2.2671356c1.8320007 0 3.2953339 -0.7595062 4.3899994 -2.278511c1.0946655 -1.5215302 1.6419983 -3.6281662 1.6419983 -6.319916c0 -2.7144928 -0.55205536 -4.8337708 -1.6561737 -6.357826c-1.1022339 -1.5240631 -2.5721817 -2.286087 -4.4098587 -2.286087z" fill-rule="evenodd"/><path stroke="#ffffff" stroke-width="1.0" stroke-linejoin="round" stroke-linecap="butt" d="m29.910128 102.89273l1.7185688 6.1872177l-3.4031048 0l1.684536 -6.1872177zm-1.3016872 -3.8897629l-4.857931 16.67366l2.6714363 0l1.0294399 -3.787407l4.985546 0l1.0889931 3.787407l2.739502 0l-4.9940567 -16.67366z" fill-rule="evenodd"/><path stroke="#ffffff" stroke-width="1.0" stroke-linejoin="round" stroke-linecap="butt" d="m37.626667 99.00297l0 16.67366l2.339634 0l0 -10.873138l5.0280876 10.873138l2.526802 0l0 -16.67366l-2.339634 0l0 11.1347275l-5.104656 -11.1347275z" fill-rule="evenodd"/><path stroke="#ffffff" stroke-width="1.0" stroke-linejoin="round" stroke-linecap="butt" d="m55.57804 98.71863c-1.7469254 0 -3.1563797 0.7683487 -4.2283554 2.305046c-1.0719795 1.5341644 -1.6079674 3.6888275 -1.6079674 6.463974c0 2.6235046 0.53315353 4.692238 1.5994568 6.2061844c1.0663071 1.5114212 2.4275475 2.2671356 4.083725 2.2671356c1.3385544 0 2.4426727 -0.44104767 3.312355 -1.3231277c0.8715744 -0.88461304 1.4945297 -2.2368011 1.8688736 -4.0565796l-2.4417305 -1.0349884c-0.20985794 1.2207565 -0.55583954 2.1154785 -1.0379448 2.6841583c-0.48210526 0.5686798 -1.0578003 0.8530197 -1.7270775 0.8530197c-0.9074936 0 -1.6448326 -0.44735718 -2.212017 -1.3420792c-0.56718445 -0.894722 -0.8507767 -2.3960342 -0.8507767 -4.503937c0 -1.9865875 0.2873764 -3.4234467 0.8621216 -4.310585c0.57663727 -0.88713837 1.3272095 -1.3307114 2.2517204 -1.3307114c0.6692772 0 1.2374077 0.25022125 1.7043877 0.7506561c0.46887207 0.5004425 0.7770424 1.1828537 0.92451096 2.0472488l2.492775 -0.7961502c-0.28359222 -1.3345032 -0.70898056 -2.3581238 -1.276165 -3.0708694c-0.9528694 -1.2055969 -2.1921654 -1.8083954 -3.7178917 -1.8083954z" fill-rule="evenodd"/><path stroke="#ffffff" stroke-width="1.0" stroke-linejoin="round" stroke-linecap="butt" d="m68.314156 101.59614c1.0379486 0 1.8698196 0.47010803 2.495613 1.4103241c0.62768555 0.94021606 0.9415207 2.3657074 0.9415207 4.2764664c0 1.9335098 -0.32234955 3.3842697 -0.96704865 4.3522873c-0.642807 0.96549225 -1.4661636 1.4482346 -2.4700851 1.4482346c-1.0039139 0 -1.8320007 -0.48653412 -2.4842606 -1.45961c-0.65226746 -0.9756012 -0.97839355 -2.407402 -0.97839355 -4.295418c0 -1.9183426 0.31761932 -3.3526764 0.9528656 -4.3030014c0.6352463 -0.952858 1.4718475 -1.4292831 2.5097885 -1.4292831zm-0.025520325 -2.87751c-1.0152588 0 -1.9114075 0.21988678 -2.6884537 0.65966797c-0.584198 0.32604218 -1.122078 0.82647705 -1.613636 1.5013123c-0.4896698 0.6748276 -0.8763008 1.4368591 -1.159893 2.286087c-0.3800125 1.1525192 -0.57001877 2.5780106 -0.57001877 4.2764587c0 2.653839 0.54733276 4.737732 1.6419983 6.2516785c1.0946617 1.5114212 2.5693398 2.2671356 4.4240303 2.2671356c1.8320084 0 3.2953415 -0.7595062 4.390007 -2.278511c1.0946655 -1.5215302 1.6419983 -3.6281662 1.6419983 -6.319916c0 -2.7144928 -0.552063 -4.8337708 -1.6561737 -6.357826c-1.1022339 -1.5240631 -2.5721817 -2.286087 -4.4098587 -2.286087z" fill-rule="evenodd"/><path stroke="#ffffff" stroke-width="1.0" stroke-linejoin="round" stroke-linecap="butt" d="m84.8022 101.82361c1.0265961 0 1.7157288 0.053077698 2.0673828 0.1592331c0.47076416 0.13648224 0.85928345 0.39807892 1.1655655 0.7847748c0.3062744 0.3867035 0.5444946 0.92505646 0.7146454 1.6150513c0.17015839 0.6899948 0.25523376 1.6794968 0.25523376 2.9684982c0 1.2890091 -0.08507538 2.3075714 -0.25523376 3.0557022c-0.17015076 0.74559784 -0.39041138 1.2814255 -0.6607666 1.6074677c-0.26846313 0.32604218 -0.6068878 0.5573044 -1.0152588 0.6937866c-0.31195068 0.106155396 -0.8195801 0.1592331 -1.5228882 0.1592331l-1.8802185 0l0 -11.043747zm-3.6498337 -2.8206406l0 16.67366l4.738823 0c0.9301834 0 1.6731949 -0.11753082 2.2290344 -0.35258484c0.7430115 -0.31845856 1.3328857 -0.76203156 1.7696152 -1.3307037c0.57852936 -0.7506561 1.0237656 -1.7325745 1.3357162 -2.9457626c0.25523376 -0.99328613 0.38285065 -2.1761398 0.38285065 -3.5485535c0 -1.561966 -0.13612366 -2.8749847 -0.40837097 -3.9390488c-0.2722473 -1.0665894 -0.669281 -1.9676285 -1.1910858 -2.7031174c-0.52181244 -0.7354889 -1.148552 -1.2472992 -1.8802185 -1.5354309c-0.5444946 -0.21231079 -1.3357162 -0.31845856 -2.3736649 -0.31845856z" fill-rule="evenodd"/><path stroke="#ffffff" stroke-width="1.0" stroke-linejoin="round" stroke-linecap="butt" d="m99.29092 101.59614c1.037941 0 1.869812 0.47010803 2.4956055 1.4103241c0.62768555 0.94021606 0.9415283 2.3657074 0.9415283 4.2764664c0 1.9335098 -0.32234955 3.3842697 -0.96704865 4.3522873c-0.64281464 0.96549225 -1.4661713 1.4482346 -2.4700851 1.4482346c-1.0039215 0 -1.8320084 -0.48653412 -2.4842682 -1.45961c-0.6522598 -0.9756012 -0.97839355 -2.407402 -0.97839355 -4.295418c0 -1.9183426 0.31761932 -3.3526764 0.9528656 -4.3030014c0.6352463 -0.952858 1.4718475 -1.4292831 2.5097961 -1.4292831zm-0.025527954 -2.87751c-1.0152588 0 -1.9114075 0.21988678 -2.6884537 0.65966797c-0.584198 0.32604218 -1.122078 0.82647705 -1.6136398 1.5013123c-0.4896698 0.6748276 -0.876297 1.4368591 -1.1598892 2.286087c-0.3800125 1.1525192 -0.57001495 2.5780106 -0.57001495 4.2764587c0 2.653839 0.54733276 4.737732 1.6419907 6.2516785c1.0946655 1.5114212 2.5693436 2.2671356 4.4240417 2.2671356c1.8320007 0 3.2953339 -0.7595062 4.3899994 -2.278511c1.0946655 -1.5215302 1.6419983 -3.6281662 1.6419983 -6.319916c0 -2.7144928 -0.55205536 -4.8337708 -1.6561737 -6.357826c-1.1022339 -1.5240631 -2.5721817 -2.286087 -4.4098587 -2.286087z" fill-rule="evenodd"/><path fill="#ffffff" d="m116.219215 96.713684c1.2761536 0 2.176735 0.10102081 2.7017365 0.30307007c0.5250015 0.19878387 0.92884827 0.5702896 1.2115402 1.114502c0.28269196 0.5409622 0.42403412 1.1682739 0.42403412 1.8819504c0 0.7527847 -0.15211487 1.3784714 -0.4563446 1.8770599c-0.30153656 0.4985962 -0.75115204 0.85543823 -1.3488464 1.0705109c-0.45230865 0.16619873 -1.1994247 0.2492981 -2.2413483 0.2492981l-3.8405838 0l0 -6.4963913zm0.557312 9.033363c1.1307678 0 1.9963455 0.12057495 2.596733 0.36172485c0.6030731 0.23789215 1.0742264 0.653389 1.4134598 1.2464828c0.3392334 0.58984375 0.5088501 1.2855911 0.5088501 2.0872574c0 0.68434143 -0.117118835 1.2888489 -0.35134888 1.8135147c-0.23423004 0.52140045 -0.53308105 0.91897583 -0.8965378 1.1927185c-0.36346436 0.27373505 -0.815773 0.46926117 -1.356926 0.58657837c-0.3069229 0.06843567 -0.84000397 0.1026535 -1.5992355 0.1026535l-4.422119 0l0 -7.39093zm-6.4575043 -11.570328l0 21.498222l6.772499 0c1.1307755 0 2.0851974 -0.11894989 2.8632736 -0.3568344c0.78076935 -0.24115753 1.4296188 -0.59635925 1.9465408 -1.065628c0.516922 -0.46926117 0.95038605 -1.1356888 1.3003845 -1.9992676c0.35269165 -0.86683655 0.5290375 -1.8037338 0.5290375 -2.8106995c0 -1.2513733 -0.28942108 -2.3365555 -0.8682709 -3.2555313c-0.576149 -0.91897583 -1.4013443 -1.569107 -2.4755783 -1.950386c0.83192444 -0.4985962 1.4538498 -1.1536102 1.8657761 -1.9650497c0.41191864 -0.8114395 0.6178818 -1.6766434 0.6178818 -2.5956192c0 -0.9874191 -0.23288727 -1.9324646 -0.6986542 -2.8351517c-0.46307373 -0.9059372 -1.1051941 -1.5756226 -1.9263458 -2.0090408c-0.8184662 -0.43667603 -1.9061584 -0.65501404 -3.2630768 -0.65501404z" fill-rule="evenodd"/><path stroke="#ffffff" stroke-width="1.0" stroke-linejoin="round" stroke-linecap="butt" d="m116.219215 96.713684c1.2761536 0 2.176735 0.10102081 2.7017365 0.30307007c0.5250015 0.19878387 0.92884827 0.5702896 1.2115402 1.114502c0.28269196 0.5409622 0.42403412 1.1682739 0.42403412 1.8819504c0 0.7527847 -0.15211487 1.3784714 -0.4563446 1.8770599c-0.30153656 0.4985962 -0.75115204 0.85543823 -1.3488464 1.0705109c-0.45230865 0.16619873 -1.1994247 0.2492981 -2.2413483 0.2492981l-3.8405838 0l0 -6.4963913zm0.557312 9.033363c1.1307678 0 1.9963455 0.12057495 2.596733 0.36172485c0.6030731 0.23789215 1.0742264 0.653389 1.4134598 1.2464828c0.3392334 0.58984375 0.5088501 1.2855911 0.5088501 2.0872574c0 0.68434143 -0.117118835 1.2888489 -0.35134888 1.8135147c-0.23423004 0.52140045 -0.53308105 0.91897583 -0.8965378 1.1927185c-0.36346436 0.27373505 -0.815773 0.46926117 -1.356926 0.58657837c-0.3069229 0.06843567 -0.84000397 0.1026535 -1.5992355 0.1026535l-4.422119 0l0 -7.39093zm-6.4575043 -11.570328l0 21.498222l6.772499 0c1.1307755 0 2.0851974 -0.11894989 2.8632736 -0.3568344c0.78076935 -0.24115753 1.4296188 -0.59635925 1.9465408 -1.065628c0.516922 -0.46926117 0.95038605 -1.1356888 1.3003845 -1.9992676c0.35269165 -0.86683655 0.5290375 -1.8037338 0.5290375 -2.8106995c0 -1.2513733 -0.28942108 -2.3365555 -0.8682709 -3.2555313c-0.576149 -0.91897583 -1.4013443 -1.569107 -2.4755783 -1.950386c0.83192444 -0.4985962 1.4538498 -1.1536102 1.8657761 -1.9650497c0.41191864 -0.8114395 0.6178818 -1.6766434 0.6178818 -2.5956192c0 -0.9874191 -0.23288727 -1.9324646 -0.6986542 -2.8351517c-0.46307373 -0.9059372 -1.1051941 -1.5756226 -1.9263458 -2.0090408c-0.8184662 -0.43667603 -1.9061584 -0.65501404 -3.2630768 -0.65501404z" fill-rule="evenodd"/><path fill="#ffffff" d="m130.4117 101.82361c1.020935 0 1.6334991 0.018959045 1.837677 0.056869507c0.40837097 0.09098816 0.72410583 0.3096161 0.9472046 0.65587616c0.22497559 0.34373474 0.33746338 0.7961502 0.33746338 1.3572464c0 0.5004425 -0.08506775 0.91747284 -0.25523376 1.2510986c-0.17015076 0.33361816 -0.40553284 0.5686722 -0.706131 0.7051544c-0.3006134 0.13648987 -1.0549622 0.20472717 -2.2630768 0.20472717l-1.8631897 0l0 -4.2309723zm12.982849 1.0691223l1.7185669 6.1872177l-3.4031067 0l1.6845398 -6.1872177zm-17.466438 -3.8897629l0 16.67366l2.518303 0l0 -6.9606323l0.5104675 0c0.5785217 0 1.0010681 0.063186646 1.2676544 0.18955994c0.26657104 0.12384796 0.5189667 0.35511017 0.7571869 0.6937866c0.23822021 0.33615112 0.6806183 1.1525269 1.3272095 2.449112l1.8206635 3.6281738l3.0117493 0l-1.5228882 -3.2528458c-0.6012268 -1.2965851 -1.0795441 -2.1988907 -1.4349823 -2.7069092c-0.35354614 -0.5080185 -0.8025665 -0.9743347 -1.3470612 -1.3989487c1.0946655 -0.21231079 1.9170837 -0.72537994 2.4672546 -1.5392227c0.5501709 -0.81637573 0.82525635 -1.8501053 0.82525635 -3.1011963c0 -0.98571014 -0.1815033 -1.8614731 -0.5445099 -2.6272964c-0.36299133 -0.76582336 -0.84698486 -1.2978516 -1.4519806 -1.5960922c-0.60310364 -0.300766 -1.571106 -0.451149 -2.9039917 -0.451149zm16.164742 0l-4.8579254 16.67366l2.6714325 0l1.0294495 -3.787407l4.9855347 0l1.0890045 3.787407l2.7394867 0l-4.994049 -16.67366z" fill-rule="evenodd"/><path fill="#ffffff" d="m155.45004 98.71863c-0.95854187 0 -1.7771759 0.19335175 -2.4559174 0.5800476c-0.6768341 0.3867035 -1.1958008 0.950325 -1.5569153 1.6908722c-0.3592224 0.73802185 -0.53881836 1.5316467 -0.53881836 2.380867c0 1.3193359 0.38284302 2.4377365 1.1485443 3.3552094c0.5444946 0.65208435 1.4916992 1.2018051 2.8415833 1.6491699c1.0493011 0.3487854 1.721405 0.59142303 2.0163422 0.7279053c0.4310608 0.20472717 0.73262024 0.44609833 0.9046631 0.7241211c0.17393494 0.2754898 0.26091003 0.61037445 0.26091003 1.0046616c0 0.6141739 -0.2060852 1.1512604 -0.61824036 1.6112595c-0.41026306 0.45746613 -1.020935 0.686203 -1.8320007 0.686203c-0.7657013 0 -1.3744812 -0.25779724 -1.8263397 -0.77339935c-0.44996643 -0.5156021 -0.7486725 -1.3231277 -0.8961487 -2.422577l-2.4502258 0.31845856c0.16447449 1.8652725 0.66926575 3.2857056 1.5143738 4.261299c0.84510803 0.97307587 2.0560455 1.45961 3.6328125 1.45961c1.0833282 0 1.9879913 -0.20219421 2.713974 -0.6065903c0.7259979 -0.4069214 1.2875214 -1.0274124 1.6845398 -1.8614731c0.3970337 -0.83406067 0.59555054 -1.7287827 0.59555054 -2.684166c0 -1.0539474 -0.16638184 -1.9385605 -0.49913025 -2.6538315c-0.33085632 -0.7177963 -0.79026794 -1.2826843 -1.3782501 -1.694664c-0.5860901 -0.414505 -1.4916992 -0.8151016 -2.7168121 -1.2018051c-1.2251129 -0.3867035 -1.9964905 -0.75823975 -2.3141174 -1.1146088c-0.2495575 -0.2805481 -0.37434387 -0.6179657 -0.37434387 -1.0122528c0 -0.43219757 0.13330078 -0.77719116 0.39987183 -1.034996c0.41404724 -0.4018631 0.9868927 -0.60279846 1.7185669 -0.60279846c0.7089844 0 1.2402496 0.18830109 1.5937805 0.564888c0.35543823 0.3740692 0.58703613 0.98950195 0.69480896 1.8463135l2.5182953 -0.14785767c-0.03970337 -1.5316391 -0.4556427 -2.756195 -1.2478027 -3.673668c-0.7902832 -0.9174652 -1.9681244 -1.3761978 -3.533554 -1.3761978z" fill-rule="evenodd"/><path fill="#ffffff" d="m162.63058 99.00297l0 16.67366l2.5182953 0l0 -16.67366z" fill-rule="evenodd"/><path fill="#ffffff" d="m167.61613 99.13945l0 16.537178l8.780014 0l0 -2.8092728l-6.2617188 0l0 -13.727905z" fill-rule="evenodd"/><path stroke="#ffffff" stroke-width="1.0" stroke-linejoin="round" stroke-linecap="butt" d="m130.4117 101.82361c1.020935 0 1.6334991 0.018959045 1.837677 0.056869507c0.40837097 0.09098816 0.72410583 0.3096161 0.9472046 0.65587616c0.22497559 0.34373474 0.33746338 0.7961502 0.33746338 1.3572464c0 0.5004425 -0.08506775 0.91747284 -0.25523376 1.2510986c-0.17015076 0.33361816 -0.40553284 0.5686722 -0.706131 0.7051544c-0.3006134 0.13648987 -1.0549622 0.20472717 -2.2630768 0.20472717l-1.8631897 0l0 -4.2309723zm12.982849 1.0691223l1.7185669 6.1872177l-3.4031067 0l1.6845398 -6.1872177zm-17.466438 -3.8897629l0 16.67366l2.518303 0l0 -6.9606323l0.5104675 0c0.5785217 0 1.0010681 0.063186646 1.2676544 0.18955994c0.26657104 0.12384796 0.5189667 0.35511017 0.7571869 0.6937866c0.23822021 0.33615112 0.6806183 1.1525269 1.3272095 2.449112l1.8206635 3.6281738l3.0117493 0l-1.5228882 -3.2528458c-0.6012268 -1.2965851 -1.0795441 -2.1988907 -1.4349823 -2.7069092c-0.35354614 -0.5080185 -0.8025665 -0.9743347 -1.3470612 -1.3989487c1.0946655 -0.21231079 1.9170837 -0.72537994 2.4672546 -1.5392227c0.5501709 -0.81637573 0.82525635 -1.8501053 0.82525635 -3.1011963c0 -0.98571014 -0.1815033 -1.8614731 -0.5445099 -2.6272964c-0.36299133 -0.76582336 -0.84698486 -1.2978516 -1.4519806 -1.5960922c-0.60310364 -0.300766 -1.571106 -0.451149 -2.9039917 -0.451149zm16.164742 0l-4.8579254 16.67366l2.6714325 0l1.0294495 -3.787407l4.9855347 0l1.0890045 3.787407l2.7394867 0l-4.994049 -16.67366z" fill-rule="evenodd"/><path stroke="#ffffff" stroke-width="1.0" stroke-linejoin="round" stroke-linecap="butt" d="m155.45004 98.71863c-0.95854187 0 -1.7771759 0.19335175 -2.4559174 0.5800476c-0.6768341 0.3867035 -1.1958008 0.950325 -1.5569153 1.6908722c-0.3592224 0.73802185 -0.53881836 1.5316467 -0.53881836 2.380867c0 1.3193359 0.38284302 2.4377365 1.1485443 3.3552094c0.5444946 0.65208435 1.4916992 1.2018051 2.8415833 1.6491699c1.0493011 0.3487854 1.721405 0.59142303 2.0163422 0.7279053c0.4310608 0.20472717 0.73262024 0.44609833 0.9046631 0.7241211c0.17393494 0.2754898 0.26091003 0.61037445 0.26091003 1.0046616c0 0.6141739 -0.2060852 1.1512604 -0.61824036 1.6112595c-0.41026306 0.45746613 -1.020935 0.686203 -1.8320007 0.686203c-0.7657013 0 -1.3744812 -0.25779724 -1.8263397 -0.77339935c-0.44996643 -0.5156021 -0.7486725 -1.3231277 -0.8961487 -2.422577l-2.4502258 0.31845856c0.16447449 1.8652725 0.66926575 3.2857056 1.5143738 4.261299c0.84510803 0.97307587 2.0560455 1.45961 3.6328125 1.45961c1.0833282 0 1.9879913 -0.20219421 2.713974 -0.6065903c0.7259979 -0.4069214 1.2875214 -1.0274124 1.6845398 -1.8614731c0.3970337 -0.83406067 0.59555054 -1.7287827 0.59555054 -2.684166c0 -1.0539474 -0.16638184 -1.9385605 -0.49913025 -2.6538315c-0.33085632 -0.7177963 -0.79026794 -1.2826843 -1.3782501 -1.694664c-0.5860901 -0.414505 -1.4916992 -0.8151016 -2.7168121 -1.2018051c-1.2251129 -0.3867035 -1.9964905 -0.75823975 -2.3141174 -1.1146088c-0.2495575 -0.2805481 -0.37434387 -0.6179657 -0.37434387 -1.0122528c0 -0.43219757 0.13330078 -0.77719116 0.39987183 -1.034996c0.41404724 -0.4018631 0.9868927 -0.60279846 1.7185669 -0.60279846c0.7089844 0 1.2402496 0.18830109 1.5937805 0.564888c0.35543823 0.3740692 0.58703613 0.98950195 0.69480896 1.8463135l2.5182953 -0.14785767c-0.03970337 -1.5316391 -0.4556427 -2.756195 -1.2478027 -3.673668c-0.7902832 -0.9174652 -1.9681244 -1.3761978 -3.533554 -1.3761978z" fill-rule="evenodd"/><path stroke="#ffffff" stroke-width="1.0" stroke-linejoin="round" stroke-linecap="butt" d="m162.63058 99.00297l0 16.67366l2.5182953 0l0 -16.67366z" fill-rule="evenodd"/><path stroke="#ffffff" stroke-width="1.0" stroke-linejoin="round" stroke-linecap="butt" d="m167.61613 99.13945l0 16.537178l8.780014 0l0 -2.8092728l-6.2617188 0l0 -13.727905z" fill-rule="evenodd"/><path fill="#000000" fill-opacity="0.0" d="m11.453302 67.80373l163.74803 0" fill-rule="evenodd"/><path stroke="#ffffff" stroke-width="1.0" stroke-linejoin="round" stroke-linecap="butt" d="m11.453302 67.80373l163.74803 0" fill-rule="evenodd"/><path fill="#ffffff" d="m16.704344 81.20968l1.3727322 3.7844238l-2.718279 0l1.3455467 -3.7844238zm-1.0397406 -2.379181l-3.8803425 10.198471l2.1338482 0l0.822279 -2.3165665l3.9822779 0l0.86985016 2.3165665l2.1882133 0l-3.9890728 -10.198471z" fill-rule="evenodd"/><path fill="#ffffff" d="m26.333845 78.656586c-0.7656479 0 -1.4195423 0.118263245 -1.9616909 0.35478973c-0.54063225 0.23652649 -0.9551697 0.5812683 -1.2436123 1.0342255c-0.28692818 0.4514084 -0.43039322 0.9368286 -0.43039322 1.4562607c0 0.8069687 0.3058052 1.4910431 0.91741943 2.0522156c0.43492317 0.3988495 1.1915112 0.73508453 2.269762 1.0087128c0.83813477 0.21334076 1.3749962 0.36174774 1.6105804 0.44522858c0.34431458 0.12522125 0.585186 0.27285767 0.72260857 0.44290924c0.13893509 0.16850281 0.20840073 0.3733368 0.20840073 0.61450195c0 0.37566376 -0.16460419 0.7041702 -0.4938202 0.98552704c-0.32770157 0.27981567 -0.8154831 0.41971588 -1.4633408 0.41971588c-0.6116123 0 -1.0978794 -0.15768433 -1.4588089 -0.47305298c-0.35941505 -0.31536865 -0.59802055 -0.809288 -0.7158127 -1.4817657l-1.957161 0.19478607c0.1313839 1.140892 0.5345955 2.0097046 1.2096348 2.60643c0.6750393 0.5951843 1.642292 0.89276886 2.901762 0.89276886c0.8653183 0 1.5879269 -0.123672485 2.1678257 -0.37101746c0.57990074 -0.24889374 1.0284157 -0.62841797 1.3455486 -1.1385727c0.31713295 -0.5101547 0.47569847 -1.0574188 0.47569847 -1.641777c0 -0.6446457 -0.13289261 -1.1857224 -0.39867973 -1.6232224c-0.2642765 -0.43904114 -0.63124466 -0.7845535 -1.1009045 -1.0365372c-0.46814537 -0.2535324 -1.1915112 -0.49856567 -2.1700916 -0.73509216c-0.9785805 -0.23652649 -1.5947227 -0.46377563 -1.8484287 -0.68174744c-0.19934082 -0.17160034 -0.29901123 -0.3779831 -0.29901123 -0.61914825c0 -0.2643509 0.10646629 -0.4753723 0.31939888 -0.63305664c0.3307228 -0.2457962 0.78829956 -0.36869812 1.3727303 -0.36869812c0.56630707 0 0.9906616 0.11516571 1.2730598 0.3455124c0.28391075 0.22879791 0.4689026 0.60523224 0.55498123 1.1292953l2.011526 -0.09043121c-0.031713486 -0.93683624 -0.363945 -1.6858368 -0.9967022 -2.2470016c-0.63124275 -0.5611725 -1.5720711 -0.8417587 -2.8224792 -0.8417587z" fill-rule="evenodd"/><path fill="#ffffff" d="m35.616768 78.656586c-0.7656479 0 -1.4195442 0.118263245 -1.9616928 0.35478973c-0.54063416 0.23652649 -0.9551697 0.5812683 -1.2436104 1.0342255c-0.28693008 0.4514084 -0.43039513 0.9368286 -0.43039513 1.4562607c0 0.8069687 0.3058071 1.4910431 0.9174175 2.0522156c0.43492508 0.3988495 1.1915131 0.73508453 2.269764 1.0087128c0.83813477 0.21334076 1.3749962 0.36174774 1.6105804 0.44522858c0.34431458 0.12522125 0.585186 0.27285767 0.72260666 0.44290924c0.1389389 0.16850281 0.20840454 0.3733368 0.20840454 0.61450195c0 0.37566376 -0.164608 0.7041702 -0.4938202 0.98552704c-0.32770538 0.27981567 -0.8154869 0.41971588 -1.4633408 0.41971588c-0.6116142 0 -1.0978813 -0.15768433 -1.4588089 -0.47305298c-0.35941696 -0.31536865 -0.59802246 -0.809288 -0.7158165 -1.4817657l-1.957159 0.19478607c0.1313839 1.140892 0.5345936 2.0097046 1.2096348 2.60643c0.6750374 0.5951843 1.642292 0.89276886 2.90176 0.89276886c0.8653183 0 1.5879288 -0.123672485 2.1678276 -0.37101746c0.57989883 -0.24889374 1.0284157 -0.62841797 1.3455505 -1.1385727c0.31713104 -0.5101547 0.47569656 -1.0574188 0.47569656 -1.641777c0 -0.6446457 -0.13289261 -1.1857224 -0.39868164 -1.6232224c-0.2642746 -0.43904114 -0.63124084 -0.7845535 -1.1009026 -1.0365372c-0.46814728 -0.2535324 -1.1915092 -0.49856567 -2.1700897 -0.73509216c-0.9785805 -0.23652649 -1.5947266 -0.46377563 -1.8484306 -0.68174744c-0.19934082 -0.17160034 -0.29901123 -0.3779831 -0.29901123 -0.61914825c0 -0.2643509 0.106464386 -0.4753723 0.31939697 -0.63305664c0.33072662 -0.2457962 0.7883034 -0.36869812 1.3727303 -0.36869812c0.5663109 0 0.99066544 0.11516571 1.2730637 0.3455124c0.28390884 0.22879791 0.4689026 0.60523224 0.55498123 1.1292953l2.0115242 -0.09043121c-0.03171158 -0.93683624 -0.363945 -1.6858368 -0.9967003 -2.2470016c-0.63124466 -0.5611725 -1.5720711 -0.8417587 -2.8224792 -0.8417587z" fill-rule="evenodd"/><path fill="#ffffff" d="m45.844288 80.41662c0.82907486 0 1.4935455 0.28754425 1.9934044 0.8626251c0.5013733 0.5750885 0.75205994 1.446991 0.75205994 2.6157074c0 1.1826324 -0.25748062 2.069992 -0.7724457 2.6620865c-0.5134506 0.590538 -1.1711235 0.88581085 -1.9730186 0.88581085c-0.8018913 0 -1.463337 -0.29759216 -1.9843407 -0.89276886c-0.5210037 -0.59672546 -0.7815056 -1.472496 -0.7815056 -2.627304c0 -1.1733551 0.25370407 -2.0506668 0.761116 -2.6319351c0.50741196 -0.58280945 1.1756554 -0.8742218 2.0047302 -0.8742218zm-0.020385742 -1.7600327c-0.81095123 0 -1.5267677 0.13449097 -2.147438 0.40348816c-0.46664047 0.19942474 -0.8962784 0.50551605 -1.2889175 0.9182739c-0.39112854 0.4127655 -0.6999588 0.8788605 -0.92647934 1.3982925c-0.3035431 0.7049408 -0.45531464 1.5768433 -0.45531464 2.6157074c0 1.6232147 0.437191 2.8978348 1.3115692 3.823845c0.874382 0.92446136 2.0523033 1.3866959 3.533764 1.3866959c1.4633408 0 2.6321983 -0.46455383 3.5065804 -1.3936539c0.8743782 -0.9306488 1.3115692 -2.2191772 1.3115692 -3.8655853c0 -1.6603241 -0.44096375 -2.956581 -1.322895 -3.8887787c-0.8804207 -0.93218994 -2.0545654 -1.3982849 -3.522438 -1.3982849z" fill-rule="evenodd"/><path fill="#ffffff" d="m56.547512 78.656586c-1.3953857 0 -2.521206 0.46996307 -3.3774605 1.4098816c-0.8562584 0.9383774 -1.2843895 2.256279 -1.2843895 3.9537048c0 1.6046677 0.42586517 2.8700104 1.2775917 3.7960205c0.85172653 0.92446136 1.9390373 1.3866959 3.2619362 1.3866959c1.0691872 0 1.9511185 -0.26976776 2.64579 -0.80929565c0.69617844 -0.54107666 1.1937752 -1.3681412 1.4927864 -2.4812088l-1.9503632 -0.63305664c-0.16762924 0.7466812 -0.443985 1.2939377 -0.82907486 1.6417694c-0.38508987 0.34783936 -0.84493256 0.5217514 -1.379528 0.5217514c-0.7248726 0 -1.3138351 -0.27362823 -1.76688 -0.8208847c-0.4530449 -0.54725647 -0.67956924 -1.465538 -0.67956924 -2.754837c0 -1.2150955 0.2295456 -2.093956 0.68862915 -2.6365738c0.460598 -0.5426254 1.0601311 -0.8139343 1.7985954 -0.8139343c0.5345955 0 0.9883957 0.15304565 1.3614044 0.4591446c0.37451935 0.3060913 0.62067413 0.72348785 0.73846436 1.2521973l1.9911385 -0.486969c-0.22652054 -0.81624603 -0.56630707 -1.4423447 -1.019352 -1.8782959c-0.76111984 -0.73740387 -1.7510262 -1.1061096 -2.969719 -1.1061096z" fill-rule="evenodd"/><path fill="#ffffff" d="m62.228714 78.8305l0 10.198471l2.011528 0l0 -10.198471z" fill-rule="evenodd"/><path fill="#ffffff" d="m70.06415 81.20968l1.3727341 3.7844238l-2.718277 0l1.3455429 -3.7844238zm-1.0397415 -2.379181l-3.8803406 10.198471l2.13385 0l0.8222809 -2.3165665l3.982277 0l0.86985016 2.3165665l2.1882095 0l-3.9890747 -10.198471z" fill-rule="evenodd"/><path fill="#ffffff" d="m80.51593 78.656586c-1.3953781 0 -2.521202 0.46996307 -3.3774567 1.4098816c-0.8562622 0.9383774 -1.2843933 2.256279 -1.2843933 3.9537048c0 1.6046677 0.42586517 2.8700104 1.2775955 3.7960205c0.7036514 0.76374054 1.5680923 1.211998 2.5933228 1.34478l0 0c-0.18691254 0.031295776 -0.36725616 0.07772827 -0.54102325 0.13930511l-0.17668915 0.6887131c0.3035431 -0.09275818 0.6002884 -0.13913727 0.8902359 -0.13913727c0.29447937 0 0.51194 0.05797577 0.6523895 0.17391968c0.1404419 0.11594391 0.21066284 0.2527542 0.21066284 0.41043854c0 0.17623901 -0.07475281 0.32000732 -0.22425842 0.43131256c-0.19480896 0.14841461 -0.4938202 0.2226181 -0.89702606 0.2226181c-0.38962555 0 -0.817749 -0.025512695 -1.2843933 -0.07652283l0 0.8208847c0.29901123 0.07420349 0.7407379 0.11130524 1.3251648 0.11130524c0.82001495 0 1.4497452 -0.17391968 1.8892059 -0.5217514c0.32618713 -0.25507355 0.48928833 -0.58667755 0.48928833 -0.99479675c0 -0.3663864 -0.14723969 -0.6771164 -0.44171906 -0.9321976c-0.1738739 -0.15060425 -0.3951187 -0.25674438 -0.6637497 -0.31842804l0 0c0.8213196 -0.07967377 1.5167542 -0.34068298 2.0863113 -0.7830429c0.69618225 -0.54107666 1.193779 -1.3681412 1.4927902 -2.4812088l-1.9503632 -0.63305664c-0.16763306 0.7466812 -0.443985 1.2939377 -0.8290787 1.6417694c-0.38508606 0.34783936 -0.84493256 0.5217514 -1.3795242 0.5217514c-0.7248764 0 -1.3138351 -0.27362823 -1.7668839 -0.8208847c-0.45304108 -0.54725647 -0.6795654 -1.465538 -0.6795654 -2.754837c0 -1.2150955 0.2295456 -2.093956 0.68862915 -2.6365738c0.46059418 -0.5426254 1.0601273 -0.8139343 1.7985916 -0.8139343c0.5345993 0 0.9883957 0.15304565 1.3614044 0.4591446c0.37451935 0.3060913 0.62067413 0.72348785 0.73846436 1.2521973l1.9911423 -0.486969c-0.22652435 -0.81624603 -0.56630707 -1.4423447 -1.0193558 -1.8782959c-0.761116 -0.73740387 -1.7510223 -1.1061096 -2.969719 -1.1061096z" fill-rule="evenodd"/><path fill="#ffffff" d="m91.55214 76.493065c-0.027183533 0.2179718 -0.08985138 0.3733368 -0.18801117 0.46609497c-0.09664917 0.09275818 -0.21746063 0.13912964 -0.3624344 0.13912964c-0.20387268 0 -0.48627472 -0.08193207 -0.8471985 -0.2457962c-0.35942078 -0.16542053 -0.6070862 -0.2651291 -0.7429962 -0.29914093c-0.13591766 -0.03555298 -0.28315735 -0.053329468 -0.44171906 -0.053329468c-0.36244202 0 -0.6591873 0.13140106 -0.8902359 0.39421082c-0.23105621 0.261261 -0.3465805 0.63536835 -0.3465805 1.1223373c0 0.060295105 0.0022659302 0.14376831 0.006790161 0.2504425l0.86985016 0c0.0045318604 -0.2226181 0.047569275 -0.37875366 0.12911987 -0.4684143c0.0815506 -0.09120941 0.19480896 -0.13681793 0.3397827 -0.13681793c0.19028473 0 0.4938202 0.0811615 0.91062164 0.2434845c0.41680908 0.162323 0.6773071 0.25739288 0.7815094 0.2852249c0.14950562 0.032463074 0.30127716 0.048690796 0.45531464 0.048690796c0.35337067 0 0.6418152 -0.13449097 0.8653183 -0.40348053c0.2250061 -0.26898956 0.3397827 -0.7165375 0.34431458 -1.3426361zm-1.386322 4.716614l1.3727341 3.7844238l-2.718277 0l1.3455429 -3.7844238zm-1.0397415 -2.379181l-3.8803406 10.198471l2.13385 0l0.8222809 -2.3165665l3.982277 0l0.86985016 2.3165665l2.1882095 0l-3.9890747 -10.198471z" fill-rule="evenodd"/><path fill="#ffffff" d="m100.73992 80.41662c0.8290787 0 1.4935455 0.28754425 1.9934082 0.8626251c0.50136566 0.5750885 0.7520523 1.446991 0.7520523 2.6157074c0 1.1826324 -0.2574768 2.069992 -0.77243805 2.6620865c-0.51345825 0.590538 -1.1711273 0.88581085 -1.9730225 0.88581085c-0.8018875 0 -1.4633408 -0.29759216 -1.9843445 -0.89276886c-0.5210037 -0.59672546 -0.78150177 -1.472496 -0.78150177 -2.627304c0 -1.1733551 0.2537079 -2.0506668 0.761116 -2.6319351c0.5074158 -0.58280945 1.1756592 -0.8742218 2.0047302 -0.8742218zm-0.020385742 -1.7600327c-0.81095123 0 -1.5267639 0.13449097 -2.147438 0.40348816c-0.46663666 0.19942474 -0.8962784 0.50551605 -1.2889175 0.9182739c-0.39112854 0.4127655 -0.6999588 0.8788605 -0.92648315 1.3982925c-0.30353546 0.7049408 -0.455307 1.5768433 -0.455307 2.6157074c0 1.6232147 0.4371872 2.8978348 1.3115692 3.823845c0.8743744 0.92446136 2.0522995 1.3866959 3.53376 1.3866959c1.4633408 0 2.6322021 -0.46455383 3.5065765 -1.3936539c0.874382 -0.9306488 1.3115692 -2.2191772 1.3115692 -3.8655853c0 -1.6603241 -0.44096375 -2.956581 -1.3228912 -3.8887787c-0.8804245 -0.93218994 -2.0545654 -1.3982849 -3.522438 -1.3982849z" fill-rule="evenodd"/><path fill="#ffffff" d="m114.39248 81.20968l1.3727264 3.7844238l-2.718277 0l1.3455505 -3.7844238zm-1.0397415 -2.379181l-3.8803482 10.198471l2.13385 0l0.8222809 -2.3165665l3.982277 0l0.86985016 2.3165665l2.1882172 0l-3.9890747 -10.198471zm5.436554 0l0 1.7252579l2.956131 0l0 8.473213l2.0115204 0l0 -8.473213l2.9493332 0l0 -1.7252579z" fill-rule="evenodd"/><path fill="#ffffff" d="m128.05862 78.91398l0 10.11499l7.013153 0l0 -1.7182922l-5.0016327 0l0 -8.396698z" fill-rule="evenodd"/><path fill="#ffffff" d="m139.99866 76.1661l-0.9378052 2.08004l1.2096405 0l1.8688049 -2.08004zm-3.492981 2.6643982l0 10.198471l7.577194 0l0 -1.7182922l-5.565674 0l0 -2.775711l5.0016327 0l0 -1.7182999l-5.0016327 0l0 -2.26091l5.3753967 0l0 -1.7252579z" fill-rule="evenodd"/><path fill="#ffffff" d="m145.07504 78.8305l0 1.7252579l2.956131 0l0 8.473213l2.0115204 0l0 -8.473213l2.9493408 0l0 -1.7252579z" fill-rule="evenodd"/><path fill="#ffffff" d="m154.22885 78.8305l0 10.198471l2.0115204 0l0 -10.198471z" fill-rule="evenodd"/><path fill="#ffffff" d="m162.46523 78.656586c-1.3953705 0 -2.5211945 0.46996307 -3.3774567 1.4098816c-0.8562622 0.9383774 -1.284378 2.256279 -1.284378 3.9537048c0 1.6046677 0.42585754 2.8700104 1.2775879 3.7960205c0.85173035 0.92446136 1.9390411 1.3866959 3.2619324 1.3866959c1.0691833 0 1.9511261 -0.26976776 2.6457825 -0.80929565c0.69618225 -0.54107666 1.1937866 -1.3681412 1.4927979 -2.4812088l-1.9503632 -0.63305664c-0.16763306 0.7466812 -0.443985 1.2939377 -0.8290863 1.6417694c-0.38508606 0.34783936 -0.8449249 0.5217514 -1.3795166 0.5217514c-0.72488403 0 -1.3138428 -0.27362823 -1.7668915 -0.8208847c-0.45303345 -0.54725647 -0.6795654 -1.465538 -0.6795654 -2.754837c0 -1.2150955 0.22955322 -2.093956 0.68862915 -2.6365738c0.4606018 -0.5426254 1.0601349 -0.8139343 1.7985992 -0.8139343c0.5345917 0 0.9884033 0.15304565 1.3614044 0.4591446c0.37451172 0.3060913 0.6206665 0.72348785 0.73846436 1.2521973l1.9911346 -0.486969c-0.22651672 -0.81624603 -0.56629944 -1.4423447 -1.0193481 -1.8782959c-0.76112366 -0.73740387 -1.7510223 -1.1061096 -2.9697266 -1.1061096z" fill-rule="evenodd"/><path fill="#ffffff" d="m172.11511 81.20968l1.3727417 3.7844238l-2.718277 0l1.3455353 -3.7844238zm-1.0397339 -2.379181l-3.8803406 10.198471l2.13385 0l0.8222809 -2.3165665l3.9822693 0l0.8698578 2.3165665l2.188202 0l-3.9890594 -10.198471z" fill-rule="evenodd"/><path stroke="#ffffff" stroke-width="1.0" stroke-linejoin="round" stroke-linecap="butt" d="m16.704344 81.20968l1.3727322 3.7844238l-2.718279 0l1.3455467 -3.7844238zm-1.0397406 -2.379181l-3.8803425 10.198471l2.1338482 0l0.822279 -2.3165665l3.9822779 0l0.86985016 2.3165665l2.1882133 0l-3.9890728 -10.198471z" fill-rule="evenodd"/><path stroke="#ffffff" stroke-width="1.0" stroke-linejoin="round" stroke-linecap="butt" d="m26.333845 78.656586c-0.7656479 0 -1.4195423 0.118263245 -1.9616909 0.35478973c-0.54063225 0.23652649 -0.9551697 0.5812683 -1.2436123 1.0342255c-0.28692818 0.4514084 -0.43039322 0.9368286 -0.43039322 1.4562607c0 0.8069687 0.3058052 1.4910431 0.91741943 2.0522156c0.43492317 0.3988495 1.1915112 0.73508453 2.269762 1.0087128c0.83813477 0.21334076 1.3749962 0.36174774 1.6105804 0.44522858c0.34431458 0.12522125 0.585186 0.27285767 0.72260857 0.44290924c0.13893509 0.16850281 0.20840073 0.3733368 0.20840073 0.61450195c0 0.37566376 -0.16460419 0.7041702 -0.4938202 0.98552704c-0.32770157 0.27981567 -0.8154831 0.41971588 -1.4633408 0.41971588c-0.6116123 0 -1.0978794 -0.15768433 -1.4588089 -0.47305298c-0.35941505 -0.31536865 -0.59802055 -0.809288 -0.7158127 -1.4817657l-1.957161 0.19478607c0.1313839 1.140892 0.5345955 2.0097046 1.2096348 2.60643c0.6750393 0.5951843 1.642292 0.89276886 2.901762 0.89276886c0.8653183 0 1.5879269 -0.123672485 2.1678257 -0.37101746c0.57990074 -0.24889374 1.0284157 -0.62841797 1.3455486 -1.1385727c0.31713295 -0.5101547 0.47569847 -1.0574188 0.47569847 -1.641777c0 -0.6446457 -0.13289261 -1.1857224 -0.39867973 -1.6232224c-0.2642765 -0.43904114 -0.63124466 -0.7845535 -1.1009045 -1.0365372c-0.46814537 -0.2535324 -1.1915112 -0.49856567 -2.1700916 -0.73509216c-0.9785805 -0.23652649 -1.5947227 -0.46377563 -1.8484287 -0.68174744c-0.19934082 -0.17160034 -0.29901123 -0.3779831 -0.29901123 -0.61914825c0 -0.2643509 0.10646629 -0.4753723 0.31939888 -0.63305664c0.3307228 -0.2457962 0.78829956 -0.36869812 1.3727303 -0.36869812c0.56630707 0 0.9906616 0.11516571 1.2730598 0.3455124c0.28391075 0.22879791 0.4689026 0.60523224 0.55498123 1.1292953l2.011526 -0.09043121c-0.031713486 -0.93683624 -0.363945 -1.6858368 -0.9967022 -2.2470016c-0.63124275 -0.5611725 -1.5720711 -0.8417587 -2.8224792 -0.8417587z" fill-rule="evenodd"/><path stroke="#ffffff" stroke-width="1.0" stroke-linejoin="round" stroke-linecap="butt" d="m35.616768 78.656586c-0.7656479 0 -1.4195442 0.118263245 -1.9616928 0.35478973c-0.54063416 0.23652649 -0.9551697 0.5812683 -1.2436104 1.0342255c-0.28693008 0.4514084 -0.43039513 0.9368286 -0.43039513 1.4562607c0 0.8069687 0.3058071 1.4910431 0.9174175 2.0522156c0.43492508 0.3988495 1.1915131 0.73508453 2.269764 1.0087128c0.83813477 0.21334076 1.3749962 0.36174774 1.6105804 0.44522858c0.34431458 0.12522125 0.585186 0.27285767 0.72260666 0.44290924c0.1389389 0.16850281 0.20840454 0.3733368 0.20840454 0.61450195c0 0.37566376 -0.164608 0.7041702 -0.4938202 0.98552704c-0.32770538 0.27981567 -0.8154869 0.41971588 -1.4633408 0.41971588c-0.6116142 0 -1.0978813 -0.15768433 -1.4588089 -0.47305298c-0.35941696 -0.31536865 -0.59802246 -0.809288 -0.7158165 -1.4817657l-1.957159 0.19478607c0.1313839 1.140892 0.5345936 2.0097046 1.2096348 2.60643c0.6750374 0.5951843 1.642292 0.89276886 2.90176 0.89276886c0.8653183 0 1.5879288 -0.123672485 2.1678276 -0.37101746c0.57989883 -0.24889374 1.0284157 -0.62841797 1.3455505 -1.1385727c0.31713104 -0.5101547 0.47569656 -1.0574188 0.47569656 -1.641777c0 -0.6446457 -0.13289261 -1.1857224 -0.39868164 -1.6232224c-0.2642746 -0.43904114 -0.63124084 -0.7845535 -1.1009026 -1.0365372c-0.46814728 -0.2535324 -1.1915092 -0.49856567 -2.1700897 -0.73509216c-0.9785805 -0.23652649 -1.5947266 -0.46377563 -1.8484306 -0.68174744c-0.19934082 -0.17160034 -0.29901123 -0.3779831 -0.29901123 -0.61914825c0 -0.2643509 0.106464386 -0.4753723 0.31939697 -0.63305664c0.33072662 -0.2457962 0.7883034 -0.36869812 1.3727303 -0.36869812c0.5663109 0 0.99066544 0.11516571 1.2730637 0.3455124c0.28390884 0.22879791 0.4689026 0.60523224 0.55498123 1.1292953l2.0115242 -0.09043121c-0.03171158 -0.93683624 -0.363945 -1.6858368 -0.9967003 -2.2470016c-0.63124466 -0.5611725 -1.5720711 -0.8417587 -2.8224792 -0.8417587z" fill-rule="evenodd"/><path stroke="#ffffff" stroke-width="1.0" stroke-linejoin="round" stroke-linecap="butt" d="m45.844288 80.41662c0.82907486 0 1.4935455 0.28754425 1.9934044 0.8626251c0.5013733 0.5750885 0.75205994 1.446991 0.75205994 2.6157074c0 1.1826324 -0.25748062 2.069992 -0.7724457 2.6620865c-0.5134506 0.590538 -1.1711235 0.88581085 -1.9730186 0.88581085c-0.8018913 0 -1.463337 -0.29759216 -1.9843407 -0.89276886c-0.5210037 -0.59672546 -0.7815056 -1.472496 -0.7815056 -2.627304c0 -1.1733551 0.25370407 -2.0506668 0.761116 -2.6319351c0.50741196 -0.58280945 1.1756554 -0.8742218 2.0047302 -0.8742218zm-0.020385742 -1.7600327c-0.81095123 0 -1.5267677 0.13449097 -2.147438 0.40348816c-0.46664047 0.19942474 -0.8962784 0.50551605 -1.2889175 0.9182739c-0.39112854 0.4127655 -0.6999588 0.8788605 -0.92647934 1.3982925c-0.3035431 0.7049408 -0.45531464 1.5768433 -0.45531464 2.6157074c0 1.6232147 0.437191 2.8978348 1.3115692 3.823845c0.874382 0.92446136 2.0523033 1.3866959 3.533764 1.3866959c1.4633408 0 2.6321983 -0.46455383 3.5065804 -1.3936539c0.8743782 -0.9306488 1.3115692 -2.2191772 1.3115692 -3.8655853c0 -1.6603241 -0.44096375 -2.956581 -1.322895 -3.8887787c-0.8804207 -0.93218994 -2.0545654 -1.3982849 -3.522438 -1.3982849z" fill-rule="evenodd"/><path stroke="#ffffff" stroke-width="1.0" stroke-linejoin="round" stroke-linecap="butt" d="m56.547512 78.656586c-1.3953857 0 -2.521206 0.46996307 -3.3774605 1.4098816c-0.8562584 0.9383774 -1.2843895 2.256279 -1.2843895 3.9537048c0 1.6046677 0.42586517 2.8700104 1.2775917 3.7960205c0.85172653 0.92446136 1.9390373 1.3866959 3.2619362 1.3866959c1.0691872 0 1.9511185 -0.26976776 2.64579 -0.80929565c0.69617844 -0.54107666 1.1937752 -1.3681412 1.4927864 -2.4812088l-1.9503632 -0.63305664c-0.16762924 0.7466812 -0.443985 1.2939377 -0.82907486 1.6417694c-0.38508987 0.34783936 -0.84493256 0.5217514 -1.379528 0.5217514c-0.7248726 0 -1.3138351 -0.27362823 -1.76688 -0.8208847c-0.4530449 -0.54725647 -0.67956924 -1.465538 -0.67956924 -2.754837c0 -1.2150955 0.2295456 -2.093956 0.68862915 -2.6365738c0.460598 -0.5426254 1.0601311 -0.8139343 1.7985954 -0.8139343c0.5345955 0 0.9883957 0.15304565 1.3614044 0.4591446c0.37451935 0.3060913 0.62067413 0.72348785 0.73846436 1.2521973l1.9911385 -0.486969c-0.22652054 -0.81624603 -0.56630707 -1.4423447 -1.019352 -1.8782959c-0.76111984 -0.73740387 -1.7510262 -1.1061096 -2.969719 -1.1061096z" fill-rule="evenodd"/><path stroke="#ffffff" stroke-width="1.0" stroke-linejoin="round" stroke-linecap="butt" d="m62.228714 78.8305l0 10.198471l2.011528 0l0 -10.198471z" fill-rule="evenodd"/><path stroke="#ffffff" stroke-width="1.0" stroke-linejoin="round" stroke-linecap="butt" d="m70.06415 81.20968l1.3727341 3.7844238l-2.718277 0l1.3455429 -3.7844238zm-1.0397415 -2.379181l-3.8803406 10.198471l2.13385 0l0.8222809 -2.3165665l3.982277 0l0.86985016 2.3165665l2.1882095 0l-3.9890747 -10.198471z" fill-rule="evenodd"/><path stroke="#ffffff" stroke-width="1.0" stroke-linejoin="round" stroke-linecap="butt" d="m80.51593 78.656586c-1.3953781 0 -2.521202 0.46996307 -3.3774567 1.4098816c-0.8562622 0.9383774 -1.2843933 2.256279 -1.2843933 3.9537048c0 1.6046677 0.42586517 2.8700104 1.2775955 3.7960205c0.7036514 0.76374054 1.5680923 1.211998 2.5933228 1.34478l0 0c-0.18691254 0.031295776 -0.36725616 0.07772827 -0.54102325 0.13930511l-0.17668915 0.6887131c0.3035431 -0.09275818 0.6002884 -0.13913727 0.8902359 -0.13913727c0.29447937 0 0.51194 0.05797577 0.6523895 0.17391968c0.1404419 0.11594391 0.21066284 0.2527542 0.21066284 0.41043854c0 0.17623901 -0.07475281 0.32000732 -0.22425842 0.43131256c-0.19480896 0.14841461 -0.4938202 0.2226181 -0.89702606 0.2226181c-0.38962555 0 -0.817749 -0.025512695 -1.2843933 -0.07652283l0 0.8208847c0.29901123 0.07420349 0.7407379 0.11130524 1.3251648 0.11130524c0.82001495 0 1.4497452 -0.17391968 1.8892059 -0.5217514c0.32618713 -0.25507355 0.48928833 -0.58667755 0.48928833 -0.99479675c0 -0.3663864 -0.14723969 -0.6771164 -0.44171906 -0.9321976c-0.1738739 -0.15060425 -0.3951187 -0.25674438 -0.6637497 -0.31842804l0 0c0.8213196 -0.07967377 1.5167542 -0.34068298 2.0863113 -0.7830429c0.69618225 -0.54107666 1.193779 -1.3681412 1.4927902 -2.4812088l-1.9503632 -0.63305664c-0.16763306 0.7466812 -0.443985 1.2939377 -0.8290787 1.6417694c-0.38508606 0.34783936 -0.84493256 0.5217514 -1.3795242 0.5217514c-0.7248764 0 -1.3138351 -0.27362823 -1.7668839 -0.8208847c-0.45304108 -0.54725647 -0.6795654 -1.465538 -0.6795654 -2.754837c0 -1.2150955 0.2295456 -2.093956 0.68862915 -2.6365738c0.46059418 -0.5426254 1.0601273 -0.8139343 1.7985916 -0.8139343c0.5345993 0 0.9883957 0.15304565 1.3614044 0.4591446c0.37451935 0.3060913 0.62067413 0.72348785 0.73846436 1.2521973l1.9911423 -0.486969c-0.22652435 -0.81624603 -0.56630707 -1.4423447 -1.0193558 -1.8782959c-0.761116 -0.73740387 -1.7510223 -1.1061096 -2.969719 -1.1061096z" fill-rule="evenodd"/><path stroke="#ffffff" stroke-width="1.0" stroke-linejoin="round" stroke-linecap="butt" d="m91.55214 76.493065c-0.027183533 0.2179718 -0.08985138 0.3733368 -0.18801117 0.46609497c-0.09664917 0.09275818 -0.21746063 0.13912964 -0.3624344 0.13912964c-0.20387268 0 -0.48627472 -0.08193207 -0.8471985 -0.2457962c-0.35942078 -0.16542053 -0.6070862 -0.2651291 -0.7429962 -0.29914093c-0.13591766 -0.03555298 -0.28315735 -0.053329468 -0.44171906 -0.053329468c-0.36244202 0 -0.6591873 0.13140106 -0.8902359 0.39421082c-0.23105621 0.261261 -0.3465805 0.63536835 -0.3465805 1.1223373c0 0.060295105 0.0022659302 0.14376831 0.006790161 0.2504425l0.86985016 0c0.0045318604 -0.2226181 0.047569275 -0.37875366 0.12911987 -0.4684143c0.0815506 -0.09120941 0.19480896 -0.13681793 0.3397827 -0.13681793c0.19028473 0 0.4938202 0.0811615 0.91062164 0.2434845c0.41680908 0.162323 0.6773071 0.25739288 0.7815094 0.2852249c0.14950562 0.032463074 0.30127716 0.048690796 0.45531464 0.048690796c0.35337067 0 0.6418152 -0.13449097 0.8653183 -0.40348053c0.2250061 -0.26898956 0.3397827 -0.7165375 0.34431458 -1.3426361zm-1.386322 4.716614l1.3727341 3.7844238l-2.718277 0l1.3455429 -3.7844238zm-1.0397415 -2.379181l-3.8803406 10.198471l2.13385 0l0.8222809 -2.3165665l3.982277 0l0.86985016 2.3165665l2.1882095 0l-3.9890747 -10.198471z" fill-rule="evenodd"/><path stroke="#ffffff" stroke-width="1.0" stroke-linejoin="round" stroke-linecap="butt" d="m100.73992 80.41662c0.8290787 0 1.4935455 0.28754425 1.9934082 0.8626251c0.50136566 0.5750885 0.7520523 1.446991 0.7520523 2.6157074c0 1.1826324 -0.2574768 2.069992 -0.77243805 2.6620865c-0.51345825 0.590538 -1.1711273 0.88581085 -1.9730225 0.88581085c-0.8018875 0 -1.4633408 -0.29759216 -1.9843445 -0.89276886c-0.5210037 -0.59672546 -0.78150177 -1.472496 -0.78150177 -2.627304c0 -1.1733551 0.2537079 -2.0506668 0.761116 -2.6319351c0.5074158 -0.58280945 1.1756592 -0.8742218 2.0047302 -0.8742218zm-0.020385742 -1.7600327c-0.81095123 0 -1.5267639 0.13449097 -2.147438 0.40348816c-0.46663666 0.19942474 -0.8962784 0.50551605 -1.2889175 0.9182739c-0.39112854 0.4127655 -0.6999588 0.8788605 -0.92648315 1.3982925c-0.30353546 0.7049408 -0.455307 1.5768433 -0.455307 2.6157074c0 1.6232147 0.4371872 2.8978348 1.3115692 3.823845c0.8743744 0.92446136 2.0522995 1.3866959 3.53376 1.3866959c1.4633408 0 2.6322021 -0.46455383 3.5065765 -1.3936539c0.874382 -0.9306488 1.3115692 -2.2191772 1.3115692 -3.8655853c0 -1.6603241 -0.44096375 -2.956581 -1.3228912 -3.8887787c-0.8804245 -0.93218994 -2.0545654 -1.3982849 -3.522438 -1.3982849z" fill-rule="evenodd"/><path stroke="#ffffff" stroke-width="1.0" stroke-linejoin="round" stroke-linecap="butt" d="m114.39248 81.20968l1.3727264 3.7844238l-2.718277 0l1.3455505 -3.7844238zm-1.0397415 -2.379181l-3.8803482 10.198471l2.13385 0l0.8222809 -2.3165665l3.982277 0l0.86985016 2.3165665l2.1882172 0l-3.9890747 -10.198471zm5.436554 0l0 1.7252579l2.956131 0l0 8.473213l2.0115204 0l0 -8.473213l2.9493332 0l0 -1.7252579z" fill-rule="evenodd"/><path stroke="#ffffff" stroke-width="1.0" stroke-linejoin="round" stroke-linecap="butt" d="m128.05862 78.91398l0 10.11499l7.013153 0l0 -1.7182922l-5.0016327 0l0 -8.396698z" fill-rule="evenodd"/><path stroke="#ffffff" stroke-width="1.0" stroke-linejoin="round" stroke-linecap="butt" d="m139.99866 76.1661l-0.9378052 2.08004l1.2096405 0l1.8688049 -2.08004zm-3.492981 2.6643982l0 10.198471l7.577194 0l0 -1.7182922l-5.565674 0l0 -2.775711l5.0016327 0l0 -1.7182999l-5.0016327 0l0 -2.26091l5.3753967 0l0 -1.7252579z" fill-rule="evenodd"/><path stroke="#ffffff" stroke-width="1.0" stroke-linejoin="round" stroke-linecap="butt" d="m145.07504 78.8305l0 1.7252579l2.956131 0l0 8.473213l2.0115204 0l0 -8.473213l2.9493408 0l0 -1.7252579z" fill-rule="evenodd"/><path stroke="#ffffff" stroke-width="1.0" stroke-linejoin="round" stroke-linecap="butt" d="m154.22885 78.8305l0 10.198471l2.0115204 0l0 -10.198471z" fill-rule="evenodd"/><path stroke="#ffffff" stroke-width="1.0" stroke-linejoin="round" stroke-linecap="butt" d="m162.46523 78.656586c-1.3953705 0 -2.5211945 0.46996307 -3.3774567 1.4098816c-0.8562622 0.9383774 -1.284378 2.256279 -1.284378 3.9537048c0 1.6046677 0.42585754 2.8700104 1.2775879 3.7960205c0.85173035 0.92446136 1.9390411 1.3866959 3.2619324 1.3866959c1.0691833 0 1.9511261 -0.26976776 2.6457825 -0.80929565c0.69618225 -0.54107666 1.1937866 -1.3681412 1.4927979 -2.4812088l-1.9503632 -0.63305664c-0.16763306 0.7466812 -0.443985 1.2939377 -0.8290863 1.6417694c-0.38508606 0.34783936 -0.8449249 0.5217514 -1.3795166 0.5217514c-0.72488403 0 -1.3138428 -0.27362823 -1.7668915 -0.8208847c-0.45303345 -0.54725647 -0.6795654 -1.465538 -0.6795654 -2.754837c0 -1.2150955 0.22955322 -2.093956 0.68862915 -2.6365738c0.4606018 -0.5426254 1.0601349 -0.8139343 1.7985992 -0.8139343c0.5345917 0 0.9884033 0.15304565 1.3614044 0.4591446c0.37451172 0.3060913 0.6206665 0.72348785 0.73846436 1.2521973l1.9911346 -0.486969c-0.22651672 -0.81624603 -0.56629944 -1.4423447 -1.0193481 -1.8782959c-0.76112366 -0.73740387 -1.7510223 -1.1061096 -2.9697266 -1.1061096z" fill-rule="evenodd"/><path stroke="#ffffff" stroke-width="1.0" stroke-linejoin="round" stroke-linecap="butt" d="m172.11511 81.20968l1.3727417 3.7844238l-2.718277 0l1.3455353 -3.7844238zm-1.0397339 -2.379181l-3.8803406 10.198471l2.13385 0l0.8222809 -2.3165665l3.9822693 0l0.8698578 2.3165665l2.188202 0l-3.9890594 -10.198471z" fill-rule="evenodd"/><path fill="#ffffff" d="m20.863298 129.91484c-2.952917 0 -5.3353844 0.9901123 -7.147402 2.9703674c-1.8120174 1.977005 -2.7180262 4.753601 -2.7180262 8.329773c0 3.3807678 0.9012146 6.0466156 2.7036448 7.9975586c1.8024302 1.9476929 4.103405 2.921524 6.9029236 2.921524c2.2626247 0 4.128971 -0.5683441 5.599039 -1.7050323c1.4732628 -1.1399536 2.5262775 -2.8824463 3.1590462 -5.227478l-4.1273727 -1.3337402c-0.35473442 1.5731201 -0.93956566 2.7261047 -1.7544937 3.4589233c-0.81492805 0.73283386 -1.7880497 1.0992432 -2.919361 1.0992432c-1.5339832 0 -2.780344 -0.5764923 -3.7390842 -1.7294617c-0.9587393 -1.1529846 -1.4381094 -3.0876465 -1.4381094 -5.8039703c0 -2.5599976 0.48576164 -4.411606 1.457284 -5.5548096c0.9747181 -1.1432037 2.2434502 -1.7148132 3.8061962 -1.7148132c1.1313114 0 2.09165 0.32244873 2.881012 0.96733093c0.79255676 0.6448822 1.3134727 1.5242767 1.5627441 2.6381683l4.2136593 -1.0259552c-0.4793682 -1.719696 -1.1984234 -3.0387878 -2.1571636 -3.9572601c-1.6106815 -1.5535889 -3.7055264 -2.330368 -6.2845364 -2.330368z" fill-rule="evenodd"/><path stroke="#ffffff" stroke-width="1.0" stroke-linejoin="round" stroke-linecap="butt" d="m20.863298 129.91484c-2.952917 0 -5.3353844 0.9901123 -7.147402 2.9703674c-1.8120174 1.977005 -2.7180262 4.753601 -2.7180262 8.329773c0 3.3807678 0.9012146 6.0466156 2.7036448 7.9975586c1.8024302 1.9476929 4.103405 2.921524 6.9029236 2.921524c2.2626247 0 4.128971 -0.5683441 5.599039 -1.7050323c1.4732628 -1.1399536 2.5262775 -2.8824463 3.1590462 -5.227478l-4.1273727 -1.3337402c-0.35473442 1.5731201 -0.93956566 2.7261047 -1.7544937 3.4589233c-0.81492805 0.73283386 -1.7880497 1.0992432 -2.919361 1.0992432c-1.5339832 0 -2.780344 -0.5764923 -3.7390842 -1.7294617c-0.9587393 -1.1529846 -1.4381094 -3.0876465 -1.4381094 -5.8039703c0 -2.5599976 0.48576164 -4.411606 1.457284 -5.5548096c0.9747181 -1.1432037 2.2434502 -1.7148132 3.8061962 -1.7148132c1.1313114 0 2.09165 0.32244873 2.881012 0.96733093c0.79255676 0.6448822 1.3134727 1.5242767 1.5627441 2.6381683l4.2136593 -1.0259552c-0.4793682 -1.719696 -1.1984234 -3.0387878 -2.1571636 -3.9572601c-1.6106815 -1.5535889 -3.7055264 -2.330368 -6.2845364 -2.330368z" fill-rule="evenodd"/><path fill="#ffffff" d="m35.341454 138.34264l2.0399666 6.1838837l-4.0395393 0l1.9995728 -6.1838837zm-1.545124 -3.8876495l-5.7664433 16.664642l3.1710396 0l1.2219601 -3.7853546l5.917927 0l1.2926521 3.7853546l3.251831 0l-5.928028 -16.664642z" fill-rule="evenodd"/><path fill="#ffffff" d="m44.43042 134.45499l0 16.664642l2.7771835 0l0 -13.118011l2.9286652 13.118011l2.8781738 0l2.9387627 -13.118011l0 13.118011l2.7771873 0l0 -16.664642l-4.4838905 0l-2.6559982 11.367416l-2.6862946 -11.367416z" fill-rule="evenodd"/><path fill="#ffffff" d="m66.13285 137.27411c1.0772095 0 1.7942276 0.037887573 2.1510544 0.11366272c0.4847412 0.098526 0.8853302 0.34481812 1.2017593 0.7388916c0.31642914 0.3940735 0.47464752 0.89424133 0.47464752 1.5005035c0 0.49258423 -0.113334656 0.9245453 -0.33999634 1.2958832c-0.22441864 0.3713379 -0.5352402 0.6441498 -0.932457 0.8184509c-0.39722443 0.17430115 -1.1849365 0.26145935 -2.3631363 0.26145935l-1.6360092 0l0 -4.7288513zm-4.433399 -2.8191223l0 16.664642l2.9892616 0l0 -6.2861786l1.9490738 0c1.3532486 0 2.3866959 -0.079574585 3.1003494 -0.23872375c0.52513885 -0.12882996 1.0413055 -0.39154053 1.5484924 -0.788147c0.50942993 -0.39912415 0.9290924 -0.9472809 1.2589874 -1.6444855c0.32989502 -0.6972046 0.49484253 -1.5573425 0.49484253 -2.5803986c0 -1.3262024 -0.2861328 -2.4073792 -0.85839844 -3.243515c-0.5722656 -0.83865356 -1.2825546 -1.3830414 -2.1308594 -1.6331177c-0.5520706 -0.16671753 -1.7369995 -0.2500763 -3.5547943 -0.2500763z" fill-rule="evenodd"/><path fill="#ffffff" d="m82.07893 137.04675c1.2320557 0 2.2195053 0.46984863 2.962326 1.4095612c0.7450714 0.9397125 1.1176071 2.3644257 1.1176071 4.2741547c0 1.9324646 -0.3826294 3.3824463 -1.1479034 4.34993c-0.7630234 0.9649811 -1.7403641 1.447464 -2.9320297 1.447464c-1.1916656 0 -2.1746216 -0.48628235 -2.9488678 -1.4588318c-0.7742462 -0.97506714 -1.1613693 -2.4060974 -1.1613693 -4.293091c0 -1.9173126 0.37702942 -3.3508606 1.131073 -4.3006744c0.7540512 -0.9523468 1.7471008 -1.4285126 2.9791641 -1.4285126zm-0.030296326 -2.8759613c-1.2051315 0 -2.2688751 0.21977234 -3.1912384 0.659317c-0.6934509 0.3258667 -1.3319244 0.82603455 -1.9154129 1.5005035c-0.5812454 0.67445374 -1.040184 1.4360809 -1.3768158 2.284851c-0.45108032 1.1519012 -0.6766205 2.5766144 -0.6766205 4.2741547c0 2.6523895 0.64969635 4.735153 1.9490814 6.248291c1.2993851 1.5106049 3.0498505 2.265915 5.251396 2.265915c2.1746216 0 3.9116287 -0.75909424 5.211014 -2.2772827c1.2993851 -1.5207062 1.9490738 -3.6262054 1.9490738 -6.316498c0 -2.713028 -0.65530396 -4.8311615 -1.9659119 -6.3544006c-1.3083572 -1.5232239 -3.053215 -2.284851 -5.2345657 -2.284851z" fill-rule="evenodd"/><path stroke="#ffffff" stroke-width="1.0" stroke-linejoin="round" stroke-linecap="butt" d="m35.341454 138.34264l2.0399666 6.1838837l-4.0395393 0l1.9995728 -6.1838837zm-1.545124 -3.8876495l-5.7664433 16.664642l3.1710396 0l1.2219601 -3.7853546l5.917927 0l1.2926521 3.7853546l3.251831 0l-5.928028 -16.664642z" fill-rule="evenodd"/><path stroke="#ffffff" stroke-width="1.0" stroke-linejoin="round" stroke-linecap="butt" d="m44.43042 134.45499l0 16.664642l2.7771835 0l0 -13.118011l2.9286652 13.118011l2.8781738 0l2.9387627 -13.118011l0 13.118011l2.7771873 0l0 -16.664642l-4.4838905 0l-2.6559982 11.367416l-2.6862946 -11.367416z" fill-rule="evenodd"/><path stroke="#ffffff" stroke-width="1.0" stroke-linejoin="round" stroke-linecap="butt" d="m66.13285 137.27411c1.0772095 0 1.7942276 0.037887573 2.1510544 0.11366272c0.4847412 0.098526 0.8853302 0.34481812 1.2017593 0.7388916c0.31642914 0.3940735 0.47464752 0.89424133 0.47464752 1.5005035c0 0.49258423 -0.113334656 0.9245453 -0.33999634 1.2958832c-0.22441864 0.3713379 -0.5352402 0.6441498 -0.932457 0.8184509c-0.39722443 0.17430115 -1.1849365 0.26145935 -2.3631363 0.26145935l-1.6360092 0l0 -4.7288513zm-4.433399 -2.8191223l0 16.664642l2.9892616 0l0 -6.2861786l1.9490738 0c1.3532486 0 2.3866959 -0.079574585 3.1003494 -0.23872375c0.52513885 -0.12882996 1.0413055 -0.39154053 1.5484924 -0.788147c0.50942993 -0.39912415 0.9290924 -0.9472809 1.2589874 -1.6444855c0.32989502 -0.6972046 0.49484253 -1.5573425 0.49484253 -2.5803986c0 -1.3262024 -0.2861328 -2.4073792 -0.85839844 -3.243515c-0.5722656 -0.83865356 -1.2825546 -1.3830414 -2.1308594 -1.6331177c-0.5520706 -0.16671753 -1.7369995 -0.2500763 -3.5547943 -0.2500763z" fill-rule="evenodd"/><path stroke="#ffffff" stroke-width="1.0" stroke-linejoin="round" stroke-linecap="butt" d="m82.07893 137.04675c1.2320557 0 2.2195053 0.46984863 2.962326 1.4095612c0.7450714 0.9397125 1.1176071 2.3644257 1.1176071 4.2741547c0 1.9324646 -0.3826294 3.3824463 -1.1479034 4.34993c-0.7630234 0.9649811 -1.7403641 1.447464 -2.9320297 1.447464c-1.1916656 0 -2.1746216 -0.48628235 -2.9488678 -1.4588318c-0.7742462 -0.97506714 -1.1613693 -2.4060974 -1.1613693 -4.293091c0 -1.9173126 0.37702942 -3.3508606 1.131073 -4.3006744c0.7540512 -0.9523468 1.7471008 -1.4285126 2.9791641 -1.4285126zm-0.030296326 -2.8759613c-1.2051315 0 -2.2688751 0.21977234 -3.1912384 0.659317c-0.6934509 0.3258667 -1.3319244 0.82603455 -1.9154129 1.5005035c-0.5812454 0.67445374 -1.040184 1.4360809 -1.3768158 2.284851c-0.45108032 1.1519012 -0.6766205 2.5766144 -0.6766205 4.2741547c0 2.6523895 0.64969635 4.735153 1.9490814 6.248291c1.2993851 1.5106049 3.0498505 2.265915 5.251396 2.265915c2.1746216 0 3.9116287 -0.75909424 5.211014 -2.2772827c1.2993851 -1.5207062 1.9490738 -3.6262054 1.9490738 -6.316498c0 -2.713028 -0.65530396 -4.8311615 -1.9659119 -6.3544006c-1.3083572 -1.5232239 -3.053215 -2.284851 -5.2345657 -2.284851z" fill-rule="evenodd"/><path fill="#ffffff" d="m98.56025 130.40588l0 21.310532l14.841286 0l0 -3.6201477l-10.584488 0l0 -17.690384z" fill-rule="evenodd"/><path stroke="#ffffff" stroke-width="1.0" stroke-linejoin="round" stroke-linecap="butt" d="m98.56025 130.40588l0 21.310532l14.841286 0l0 -3.6201477l-10.584488 0l0 -17.690384z" fill-rule="evenodd"/><path fill="#ffffff" d="m122.52126 139.10432l2.0399628 6.1838837l-4.0395355 0l1.9995728 -6.1838837zm-1.5451279 -3.8876648l-5.7664413 16.664658l3.1710358 0l1.221962 -3.7853546l5.9179306 0l1.2926483 3.7853546l3.2518387 0l-5.928032 -16.664658z" fill-rule="evenodd"/><path fill="#ffffff" d="m136.98282 138.0358c1.211853 0 1.9389801 0.018936157 2.1813507 0.05682373c0.4847412 0.09094238 0.8595276 0.30944824 1.1243286 0.65553284c0.26705933 0.34355164 0.400589 0.79571533 0.400589 1.3565063c0 0.50016785 -0.100982666 0.9169769 -0.30296326 1.250412c-0.20198059 0.33345032 -0.48136902 0.56837463 -0.8381958 0.7047882c-0.35682678 0.13641357 -1.2522583 0.20462036 -2.6862946 0.20462036l-2.2116547 0l0 -4.2286835zm-5.322098 -2.8191376l0 16.664658l2.9892578 0l0 -6.9568634l0.6059265 0c0.6867218 0 1.1883087 0.06315613 1.5047302 0.18945312c0.31643677 0.1237793 0.61602783 0.35491943 0.8988037 0.6934204c0.28276062 0.33596802 0.8079071 1.1519012 1.5754242 2.4477844l2.161148 3.6262054l3.574997 0l-1.8076935 -3.2510834c-0.71365356 -1.2958832 -1.2814331 -2.1977081 -1.7033386 -2.7054443c-0.41966248 -0.50775146 -0.95266724 -0.9738159 -1.5989838 -1.3981934c1.2993774 -0.21220398 2.2756042 -0.72499084 2.9286652 -1.5383911c0.6530609 -0.8159332 0.97958374 -1.8491058 0.97958374 -3.0995178c0 -0.9851837 -0.21543884 -1.8604736 -0.6463318 -2.625885c-0.4308777 -0.7654114 -1.0053864 -1.2971497 -1.723526 -1.5952301c-0.7158966 -0.30059814 -1.8649292 -0.45091248 -3.4470825 -0.45091248z" fill-rule="evenodd"/><path fill="#ffffff" d="m153.42374 134.93248c-1.4138336 0 -2.595398 0.27661133 -3.544693 0.8298187c-1.2455292 0.7199402 -2.191452 1.7543793 -2.8377686 3.1033173c-0.6463318 1.348938 -0.9694977 2.8911133 -0.9694977 4.626541c0 1.5990143 0.289505 3.0793152 0.86849976 4.440872c0.57901 1.3590393 1.4441376 2.4048462 2.5954132 3.1374054c1.1512604 0.7300415 2.5011444 1.0950623 4.049637 1.0950623c1.2185974 0 2.4214783 -0.25891113 3.6086578 -0.7767639c1.1894226 -0.52038574 2.0971832 -1.121582 2.7233124 -1.8036346l0 -6.6385803l-6.443054 0l0 2.8077545l3.4235077 0l0 2.1143494c-0.45108032 0.39405823 -0.9919281 0.7300415 -1.6225586 1.007904c-0.6283722 0.27534485 -1.2556152 0.4130249 -1.8817444 0.4130249c-1.2657318 0 -2.2890778 -0.49386597 -3.070053 -1.4815674c-0.78097534 -0.9902191 -1.171463 -2.4743042 -1.171463 -4.45224c0 -1.8339386 0.38487244 -3.21698 1.1546326 -4.149109c0.7720032 -0.9321289 1.8110657 -1.3981934 3.1171722 -1.3981934c0.86177063 0 1.5799103 0.23745728 2.1544342 0.71235657c0.5767517 0.4723816 0.9694824 1.1177979 1.1781921 1.9362488l2.9690552 -0.62519836c-0.29621887 -1.5308228 -0.96162415 -2.7294464 -1.9962006 -3.5959015c-1.0323181 -0.8689728 -2.4674835 -1.3034668 -4.305481 -1.3034668z" fill-rule="evenodd"/><path fill="#ffffff" d="m169.25874 137.80844c1.2320557 0 2.2194977 0.46984863 2.962326 1.4095612c0.7450714 0.9397125 1.1175995 2.3644257 1.1175995 4.2741547c0 1.9324646 -0.3826294 3.3824463 -1.1479034 4.34993c-0.76301575 0.9649658 -1.7403564 1.447464 -2.932022 1.447464c-1.1916656 0 -2.1746216 -0.48628235 -2.9488678 -1.4588318c-0.7742462 -0.97506714 -1.1613617 -2.4060974 -1.1613617 -4.293091c0 -1.9173126 0.37701416 -3.3508606 1.1310577 -4.3006744c0.75405884 -0.9523468 1.7471161 -1.4285126 2.9791718 -1.4285126zm-0.030303955 -2.8759613c-1.2051239 0 -2.2688751 0.21977234 -3.1912384 0.659317c-0.6934509 0.3258667 -1.3319244 0.82603455 -1.9154053 1.5005035c-0.58125305 0.67445374 -1.0401917 1.4360809 -1.3768158 2.284851c-0.45108032 1.1519012 -0.6766205 2.5766144 -0.6766205 4.2741547c0 2.6523895 0.6496887 4.735153 1.9490814 6.248291c1.2993774 1.5106049 3.0498505 2.2658997 5.251404 2.2658997c2.1746063 0 3.911621 -0.759079 5.2109985 -2.2772675c1.2993927 -1.5207062 1.9490814 -3.6262054 1.9490814 -6.316498c0 -2.713028 -0.65530396 -4.8311615 -1.9659119 -6.3544006c-1.3083649 -1.5232391 -3.0532227 -2.284851 -5.2345734 -2.284851z" fill-rule="evenodd"/><path stroke="#ffffff" stroke-width="1.0" stroke-linejoin="round" stroke-linecap="butt" d="m122.52126 139.10432l2.0399628 6.1838837l-4.0395355 0l1.9995728 -6.1838837zm-1.5451279 -3.8876648l-5.7664413 16.664658l3.1710358 0l1.221962 -3.7853546l5.9179306 0l1.2926483 3.7853546l3.2518387 0l-5.928032 -16.664658z" fill-rule="evenodd"/><path stroke="#ffffff" stroke-width="1.0" stroke-linejoin="round" stroke-linecap="butt" d="m136.98282 138.0358c1.211853 0 1.9389801 0.018936157 2.1813507 0.05682373c0.4847412 0.09094238 0.8595276 0.30944824 1.1243286 0.65553284c0.26705933 0.34355164 0.400589 0.79571533 0.400589 1.3565063c0 0.50016785 -0.100982666 0.9169769 -0.30296326 1.250412c-0.20198059 0.33345032 -0.48136902 0.56837463 -0.8381958 0.7047882c-0.35682678 0.13641357 -1.2522583 0.20462036 -2.6862946 0.20462036l-2.2116547 0l0 -4.2286835zm-5.322098 -2.8191376l0 16.664658l2.9892578 0l0 -6.9568634l0.6059265 0c0.6867218 0 1.1883087 0.06315613 1.5047302 0.18945312c0.31643677 0.1237793 0.61602783 0.35491943 0.8988037 0.6934204c0.28276062 0.33596802 0.8079071 1.1519012 1.5754242 2.4477844l2.161148 3.6262054l3.574997 0l-1.8076935 -3.2510834c-0.71365356 -1.2958832 -1.2814331 -2.1977081 -1.7033386 -2.7054443c-0.41966248 -0.50775146 -0.95266724 -0.9738159 -1.5989838 -1.3981934c1.2993774 -0.21220398 2.2756042 -0.72499084 2.9286652 -1.5383911c0.6530609 -0.8159332 0.97958374 -1.8491058 0.97958374 -3.0995178c0 -0.9851837 -0.21543884 -1.8604736 -0.6463318 -2.625885c-0.4308777 -0.7654114 -1.0053864 -1.2971497 -1.723526 -1.5952301c-0.7158966 -0.30059814 -1.8649292 -0.45091248 -3.4470825 -0.45091248z" fill-rule="evenodd"/><path stroke="#ffffff" stroke-width="1.0" stroke-linejoin="round" stroke-linecap="butt" d="m153.42374 134.93248c-1.4138336 0 -2.595398 0.27661133 -3.544693 0.8298187c-1.2455292 0.7199402 -2.191452 1.7543793 -2.8377686 3.1033173c-0.6463318 1.348938 -0.9694977 2.8911133 -0.9694977 4.626541c0 1.5990143 0.289505 3.0793152 0.86849976 4.440872c0.57901 1.3590393 1.4441376 2.4048462 2.5954132 3.1374054c1.1512604 0.7300415 2.5011444 1.0950623 4.049637 1.0950623c1.2185974 0 2.4214783 -0.25891113 3.6086578 -0.7767639c1.1894226 -0.52038574 2.0971832 -1.121582 2.7233124 -1.8036346l0 -6.6385803l-6.443054 0l0 2.8077545l3.4235077 0l0 2.1143494c-0.45108032 0.39405823 -0.9919281 0.7300415 -1.6225586 1.007904c-0.6283722 0.27534485 -1.2556152 0.4130249 -1.8817444 0.4130249c-1.2657318 0 -2.2890778 -0.49386597 -3.070053 -1.4815674c-0.78097534 -0.9902191 -1.171463 -2.4743042 -1.171463 -4.45224c0 -1.8339386 0.38487244 -3.21698 1.1546326 -4.149109c0.7720032 -0.9321289 1.8110657 -1.3981934 3.1171722 -1.3981934c0.86177063 0 1.5799103 0.23745728 2.1544342 0.71235657c0.5767517 0.4723816 0.9694824 1.1177979 1.1781921 1.9362488l2.9690552 -0.62519836c-0.29621887 -1.5308228 -0.96162415 -2.7294464 -1.9962006 -3.5959015c-1.0323181 -0.8689728 -2.4674835 -1.3034668 -4.305481 -1.3034668z" fill-rule="evenodd"/><path stroke="#ffffff" stroke-width="1.0" stroke-linejoin="round" stroke-linecap="butt" d="m169.25874 137.80844c1.2320557 0 2.2194977 0.46984863 2.962326 1.4095612c0.7450714 0.9397125 1.1175995 2.3644257 1.1175995 4.2741547c0 1.9324646 -0.3826294 3.3824463 -1.1479034 4.34993c-0.76301575 0.9649658 -1.7403564 1.447464 -2.932022 1.447464c-1.1916656 0 -2.1746216 -0.48628235 -2.9488678 -1.4588318c-0.7742462 -0.97506714 -1.1613617 -2.4060974 -1.1613617 -4.293091c0 -1.9173126 0.37701416 -3.3508606 1.1310577 -4.3006744c0.75405884 -0.9523468 1.7471161 -1.4285126 2.9791718 -1.4285126zm-0.030303955 -2.8759613c-1.2051239 0 -2.2688751 0.21977234 -3.1912384 0.659317c-0.6934509 0.3258667 -1.3319244 0.82603455 -1.9154053 1.5005035c-0.58125305 0.67445374 -1.0401917 1.4360809 -1.3768158 2.284851c-0.45108032 1.1519012 -0.6766205 2.5766144 -0.6766205 4.2741547c0 2.6523895 0.6496887 4.735153 1.9490814 6.248291c1.2993774 1.5106049 3.0498505 2.2658997 5.251404 2.2658997c2.1746063 0 3.911621 -0.759079 5.2109985 -2.2772675c1.2993927 -1.5207062 1.9490814 -3.6262054 1.9490814 -6.316498c0 -2.713028 -0.65530396 -4.8311615 -1.9659119 -6.3544006c-1.3083649 -1.5232391 -3.0532227 -2.284851 -5.2345734 -2.284851z" fill-rule="evenodd"/></g></svg>