<svg version="1.1" viewBox="0.0 0.0 184.48818897637796 172.00524934383202" fill="none" stroke="none" stroke-linecap="square" stroke-miterlimit="10" xmlns:xlink="http://www.w3.org/1999/xlink" xmlns="http://www.w3.org/2000/svg"><clipPath id="p.0"><path d="m0 0l184.48819 0l0 172.00525l-184.48819 0l0 -172.00525z" clip-rule="nonzero"/></clipPath><g clip-path="url(#p.0)"><path fill="#000000" fill-opacity="0.0" d="m0 0l184.48819 0l0 172.00525l-184.48819 0z" fill-rule="evenodd"/><path fill="#000000" fill-opacity="0.0" d="m0.7489021 1.0877173l182.83464 0l0 169.70078l-182.83464 0z" fill-rule="evenodd"/><path stroke="#ffffff" stroke-width="1.0" stroke-linejoin="round" stroke-linecap="butt" d="m0.7489021 1.0877173l182.83464 0l0 169.70078l-182.83464 0z" fill-rule="evenodd"/><path fill="#ffffff" d="m35.632572 15.941942c0.64486694 2.551302 1.6311264 5.81011 2.9587898 9.776421l4.352833 13.056669l-14.139593 0l4.580431 -13.828491c0.9672966 -2.980093 1.7164764 -5.9816265 2.2475395 -9.004599zm38.862537 0c0.64486694 2.551302 1.6311264 5.81011 2.958786 9.776421l4.3528366 13.056669l-14.139595 0l4.5804367 -13.828491c0.9672928 -2.980093 1.7164764 -5.9816265 2.2475357 -9.004599zm-41.707523 -4.952529l-16.017284 47.145504l5.860676 0l4.580431 -14.278721l17.439775 0l4.864933 14.278721l11.977398 0l4.580429 -14.278721l17.439781 0l4.864929 14.278721l6.287422 0l-17.069931 -47.145504l-5.946022 0l-15.934647 46.90228l-16.981865 -46.90228z" fill-rule="evenodd"/><path fill="#ffffff" d="m112.7033 16.552969c2.9967194 0 5.111496 0.22154045 6.344322 0.66462517c1.2328262 0.43593788 2.18116 1.250639 2.8449936 2.4441051c0.663826 1.1863213 0.9957428 2.5620232 0.9957428 4.1271076c0 1.6508427 -0.35720825 3.022972 -1.0716095 4.1163883c-0.70809174 1.0934143 -1.7638931 1.8759575 -3.167427 2.3476276c-1.0621262 0.36447144 -2.816536 0.54670715 -5.2632217 0.54670715l-9.018616 0l0 -14.246561zm1.3086929 19.810118c2.6553268 0 4.687912 0.26441956 6.097763 0.7932625c1.4161682 0.5216942 2.5225525 1.4328728 3.3191528 2.7335358c0.7965927 1.2935181 1.1948929 2.8192978 1.1948929 4.577339c0 1.5007668 -0.27501678 2.8264427 -0.82505035 3.9770317c-0.55002594 1.1434402 -1.2517929 2.015316 -2.1052856 2.6156197c-0.85350037 0.60030746 -1.9156265 1.0290985 -3.186386 1.2863731c-0.72073364 0.150074 -1.9725266 0.22511292 -3.7553864 0.22511292l-10.384209 0l0 -16.208275zm-15.163788 -25.373672l0 47.145504l15.903488 0c2.6553192 0 4.896538 -0.260849 6.7236557 -0.7825432c1.833435 -0.5288429 3.3570862 -1.3078117 4.5709457 -2.3369064c1.2138596 -1.0290985 2.2317352 -2.4905586 3.0536194 -4.384384c0.8282013 -1.9009705 1.2423096 -3.9555893 1.2423096 -6.1638603c0 -2.7442589 -0.67962646 -5.1240463 -2.03891 -7.1393585c-1.3529434 -2.015316 -3.2906952 -3.4410439 -5.8132553 -4.2771873c1.9535599 -1.0934143 3.4139862 -2.5298615 4.3812866 -4.3093433c0.9672928 -1.77948 1.4509354 -3.676876 1.4509354 -5.692192c0 -2.165392 -0.5468674 -4.237877 -1.6406021 -6.2174606c-1.0874176 -1.9867296 -2.5952682 -3.4553366 -4.5235367 -4.405822c-1.9219437 -0.95763206 -4.4761124 -1.4364471 -7.6624985 -1.4364471z" fill-rule="evenodd"/><path fill="#ffffff" d="m151.56584 16.552969c2.9967194 0 5.111496 0.22154045 6.3443146 0.66462517c1.2328339 0.43593788 2.1811676 1.250639 2.8450012 2.4441051c0.66381836 1.1863213 0.9957428 2.5620232 0.9957428 4.1271076c0 1.6508427 -0.35720825 3.022972 -1.0716095 4.1163883c-0.7080841 1.0934143 -1.7639008 1.8759575 -3.1674347 2.3476276c-1.0621185 0.36447144 -2.8165283 0.54670715 -5.263214 0.54670715l-9.018616 0l0 -14.246561zm1.3086853 19.810118c2.6553345 0 4.687912 0.26441956 6.097763 0.7932625c1.4161682 0.5216942 2.5225525 1.4328728 3.3191528 2.7335358c0.79660034 1.2935181 1.1949005 2.8192978 1.1949005 4.577339c0 1.5007668 -0.2750244 2.8264427 -0.825058 3.9770317c-0.5500183 1.1434402 -1.2517853 2.015316 -2.1052856 2.6156197c-0.85350037 0.60030746 -1.9156189 1.0290985 -3.186386 1.2863731c-0.72073364 0.150074 -1.9725189 0.22511292 -3.7553864 0.22511292l-10.384201 0l0 -16.208275zm-15.163788 -25.373672l0 47.145504l15.903488 0c2.6553192 0 4.8965454 -0.260849 6.7236633 -0.7825432c1.833435 -0.5288429 3.3570862 -1.3078117 4.570938 -2.3369064c1.2138672 -1.0290985 2.2317352 -2.4905586 3.0536194 -4.384384c0.82821655 -1.9009705 1.2423096 -3.9555893 1.2423096 -6.1638603c0 -2.7442589 -0.67962646 -5.1240463 -2.0388947 -7.1393585c-1.352951 -2.015316 -3.2907104 -3.4410439 -5.813263 -4.2771873c1.9535522 -1.0934143 3.4139862 -2.5298615 4.3812714 -4.3093433c0.9673004 -1.77948 1.4509583 -3.676876 1.4509583 -5.692192c0 -2.165392 -0.546875 -4.237877 -1.6406097 -6.2174606c-1.0874176 -1.9867296 -2.5952606 -3.4553366 -4.5235443 -4.405822c-1.921936 -0.95763206 -4.4761047 -1.4364471 -7.662491 -1.4364471z" fill-rule="evenodd"/><path stroke="#ffffff" stroke-width="1.0" stroke-linejoin="round" stroke-linecap="butt" d="m35.632572 15.941942c0.64486694 2.551302 1.6311264 5.81011 2.9587898 9.776421l4.352833 13.056669l-14.139593 0l4.580431 -13.828491c0.9672966 -2.980093 1.7164764 -5.9816265 2.2475395 -9.004599zm38.862537 0c0.64486694 2.551302 1.6311264 5.81011 2.958786 9.776421l4.3528366 13.056669l-14.139595 0l4.5804367 -13.828491c0.9672928 -2.980093 1.7164764 -5.9816265 2.2475357 -9.004599zm-41.707523 -4.952529l-16.017284 47.145504l5.860676 0l4.580431 -14.278721l17.439775 0l4.864933 14.278721l11.977398 0l4.580429 -14.278721l17.439781 0l4.864929 14.278721l6.287422 0l-17.069931 -47.145504l-5.946022 0l-15.934647 46.90228l-16.981865 -46.90228z" fill-rule="evenodd"/><path stroke="#ffffff" stroke-width="1.0" stroke-linejoin="round" stroke-linecap="butt" d="m112.7033 16.552969c2.9967194 0 5.111496 0.22154045 6.344322 0.66462517c1.2328262 0.43593788 2.18116 1.250639 2.8449936 2.4441051c0.663826 1.1863213 0.9957428 2.5620232 0.9957428 4.1271076c0 1.6508427 -0.35720825 3.022972 -1.0716095 4.1163883c-0.70809174 1.0934143 -1.7638931 1.8759575 -3.167427 2.3476276c-1.0621262 0.36447144 -2.816536 0.54670715 -5.2632217 0.54670715l-9.018616 0l0 -14.246561zm1.3086929 19.810118c2.6553268 0 4.687912 0.26441956 6.097763 0.7932625c1.4161682 0.5216942 2.5225525 1.4328728 3.3191528 2.7335358c0.7965927 1.2935181 1.1948929 2.8192978 1.1948929 4.577339c0 1.5007668 -0.27501678 2.8264427 -0.82505035 3.9770317c-0.55002594 1.1434402 -1.2517929 2.015316 -2.1052856 2.6156197c-0.85350037 0.60030746 -1.9156265 1.0290985 -3.186386 1.2863731c-0.72073364 0.150074 -1.9725266 0.22511292 -3.7553864 0.22511292l-10.384209 0l0 -16.208275zm-15.163788 -25.373672l0 47.145504l15.903488 0c2.6553192 0 4.896538 -0.260849 6.7236557 -0.7825432c1.833435 -0.5288429 3.3570862 -1.3078117 4.5709457 -2.3369064c1.2138596 -1.0290985 2.2317352 -2.4905586 3.0536194 -4.384384c0.8282013 -1.9009705 1.2423096 -3.9555893 1.2423096 -6.1638603c0 -2.7442589 -0.67962646 -5.1240463 -2.03891 -7.1393585c-1.3529434 -2.015316 -3.2906952 -3.4410439 -5.8132553 -4.2771873c1.9535599 -1.0934143 3.4139862 -2.5298615 4.3812866 -4.3093433c0.9672928 -1.77948 1.4509354 -3.676876 1.4509354 -5.692192c0 -2.165392 -0.5468674 -4.237877 -1.6406021 -6.2174606c-1.0874176 -1.9867296 -2.5952682 -3.4553366 -4.5235367 -4.405822c-1.9219437 -0.95763206 -4.4761124 -1.4364471 -7.6624985 -1.4364471z" fill-rule="evenodd"/><path stroke="#ffffff" stroke-width="1.0" stroke-linejoin="round" stroke-linecap="butt" d="m151.56584 16.552969c2.9967194 0 5.111496 0.22154045 6.3443146 0.66462517c1.2328339 0.43593788 2.1811676 1.250639 2.8450012 2.4441051c0.66381836 1.1863213 0.9957428 2.5620232 0.9957428 4.1271076c0 1.6508427 -0.35720825 3.022972 -1.0716095 4.1163883c-0.7080841 1.0934143 -1.7639008 1.8759575 -3.1674347 2.3476276c-1.0621185 0.36447144 -2.8165283 0.54670715 -5.263214 0.54670715l-9.018616 0l0 -14.246561zm1.3086853 19.810118c2.6553345 0 4.687912 0.26441956 6.097763 0.7932625c1.4161682 0.5216942 2.5225525 1.4328728 3.3191528 2.7335358c0.79660034 1.2935181 1.1949005 2.8192978 1.1949005 4.577339c0 1.5007668 -0.2750244 2.8264427 -0.825058 3.9770317c-0.5500183 1.1434402 -1.2517853 2.015316 -2.1052856 2.6156197c-0.85350037 0.60030746 -1.9156189 1.0290985 -3.186386 1.2863731c-0.72073364 0.150074 -1.9725189 0.22511292 -3.7553864 0.22511292l-10.384201 0l0 -16.208275zm-15.163788 -25.373672l0 47.145504l15.903488 0c2.6553192 0 4.8965454 -0.260849 6.7236633 -0.7825432c1.833435 -0.5288429 3.3570862 -1.3078117 4.570938 -2.3369064c1.2138672 -1.0290985 2.2317352 -2.4905586 3.0536194 -4.384384c0.82821655 -1.9009705 1.2423096 -3.9555893 1.2423096 -6.1638603c0 -2.7442589 -0.67962646 -5.1240463 -2.0388947 -7.1393585c-1.352951 -2.015316 -3.2907104 -3.4410439 -5.813263 -4.2771873c1.9535522 -1.0934143 3.4139862 -2.5298615 4.3812714 -4.3093433c0.9673004 -1.77948 1.4509583 -3.676876 1.4509583 -5.692192c0 -2.165392 -0.546875 -4.237877 -1.6406097 -6.2174606c-1.0874176 -1.9867296 -2.5952606 -3.4553366 -4.5235443 -4.405822c-1.921936 -0.95763206 -4.4761047 -1.4364471 -7.662491 -1.4364471z" fill-rule="evenodd"/><path fill="#ffffff" d="m17.635098 98.084785c1.2761555 0 2.176733 0.10102081 2.7017326 0.30307007c0.5249996 0.19878387 0.92884636 0.570282 1.2115402 1.114502c0.28269196 0.5409622 0.42403793 1.1682739 0.42403793 1.8819504c0 0.7527771 -0.15211487 1.3784637 -0.4563465 1.8770599c-0.30153847 0.4985962 -0.75115395 0.8554306 -1.3488464 1.0705109c-0.45230865 0.16619873 -1.1994247 0.2492981 -2.2413483 0.2492981l-3.84058 0l0 -6.4963913zm0.5573082 9.033356c1.1307697 0 1.9963474 0.12058258 2.596733 0.36173248c0.60307693 0.23789215 1.0742302 0.65338135 1.4134617 1.2464828c0.3392315 0.5898361 0.5088463 1.2855911 0.5088463 2.0872574c0 0.68434143 -0.11711502 1.2888489 -0.35134506 1.8135147c-0.23423195 0.52140045 -0.53307724 0.91897583 -0.8965397 1.1927109c-0.36346245 0.27374268 -0.8157692 0.4692688 -1.356924 0.586586c-0.3069229 0.06843567 -0.84000015 0.1026535 -1.5992317 0.1026535l-4.422119 0l0 -7.390938zm-6.457505 -11.57032l0 21.498222l6.7725058 0c1.1307697 0 2.0851936 -0.11894989 2.8632717 -0.35684204c0.78076935 -0.2411499 1.429615 -0.5963516 1.9465389 -1.0656204c0.5169239 -0.4692688 0.95038605 -1.1356888 1.3003864 -1.9992676c0.35269165 -0.86683655 0.5290375 -1.8037415 0.5290375 -2.8106995c0 -1.2513809 -0.289423 -2.3365555 -0.86826897 -3.2555313c-0.5761547 -0.91897583 -1.4013481 -1.569107 -2.4755783 -1.950386c0.83192253 -0.4985962 1.453846 -1.1536102 1.8657703 -1.9650497c0.41192245 -0.8114395 0.6178856 -1.6766434 0.6178856 -2.5956268c0 -0.9874115 -0.23288536 -1.932457 -0.6986561 -2.835144c-0.46307564 -0.9059448 -1.1051922 -1.5756226 -1.9263458 -2.0090408c-0.8184624 -0.43667603 -1.9061565 -0.65501404 -3.2630806 -0.65501404z" fill-rule="evenodd"/><path stroke="#ffffff" stroke-width="1.0" stroke-linejoin="round" stroke-linecap="butt" d="m17.635098 98.084785c1.2761555 0 2.176733 0.10102081 2.7017326 0.30307007c0.5249996 0.19878387 0.92884636 0.570282 1.2115402 1.114502c0.28269196 0.5409622 0.42403793 1.1682739 0.42403793 1.8819504c0 0.7527771 -0.15211487 1.3784637 -0.4563465 1.8770599c-0.30153847 0.4985962 -0.75115395 0.8554306 -1.3488464 1.0705109c-0.45230865 0.16619873 -1.1994247 0.2492981 -2.2413483 0.2492981l-3.84058 0l0 -6.4963913zm0.5573082 9.033356c1.1307697 0 1.9963474 0.12058258 2.596733 0.36173248c0.60307693 0.23789215 1.0742302 0.65338135 1.4134617 1.2464828c0.3392315 0.5898361 0.5088463 1.2855911 0.5088463 2.0872574c0 0.68434143 -0.11711502 1.2888489 -0.35134506 1.8135147c-0.23423195 0.52140045 -0.53307724 0.91897583 -0.8965397 1.1927109c-0.36346245 0.27374268 -0.8157692 0.4692688 -1.356924 0.586586c-0.3069229 0.06843567 -0.84000015 0.1026535 -1.5992317 0.1026535l-4.422119 0l0 -7.390938zm-6.457505 -11.57032l0 21.498222l6.7725058 0c1.1307697 0 2.0851936 -0.11894989 2.8632717 -0.35684204c0.78076935 -0.2411499 1.429615 -0.5963516 1.9465389 -1.0656204c0.5169239 -0.4692688 0.95038605 -1.1356888 1.3003864 -1.9992676c0.35269165 -0.86683655 0.5290375 -1.8037415 0.5290375 -2.8106995c0 -1.2513809 -0.289423 -2.3365555 -0.86826897 -3.2555313c-0.5761547 -0.91897583 -1.4013481 -1.569107 -2.4755783 -1.950386c0.83192253 -0.4985962 1.453846 -1.1536102 1.8657703 -1.9650497c0.41192245 -0.8114395 0.6178856 -1.6766434 0.6178856 -2.5956268c0 -0.9874115 -0.23288536 -1.932457 -0.6986561 -2.835144c-0.46307564 -0.9059448 -1.1051922 -1.5756226 -1.9263458 -2.0090408c-0.8184624 -0.43667603 -1.9061565 -0.65501404 -3.2630806 -0.65501404z" fill-rule="evenodd"/><path fill="#ffffff" d="m30.660334 103.980194l1.718565 6.1872253l-3.4031029 0l1.6845379 -6.1872253zm-1.3016872 -3.8897629l-4.857931 16.67366l2.6714363 0l1.029438 -3.7873993l4.985548 0l1.0889931 3.7873993l2.7394981 0l-4.994053 -16.67366z" fill-rule="evenodd"/><path fill="#ffffff" d="m38.376873 100.09043l0 16.67366l2.339634 0l0 -10.873131l5.028084 10.873131l2.5268059 0l0 -16.67366l-2.339634 0l0 11.134735l-5.104656 -11.134735z" fill-rule="evenodd"/><path fill="#ffffff" d="m56.328247 99.8061c-1.7469292 0 -3.1563797 0.76834106 -4.228359 2.3050385c-1.0719757 1.534172 -1.6079674 3.6888351 -1.6079674 6.4639816c0 2.6235046 0.53315353 4.69223 1.5994606 6.2061844c1.0663071 1.5114212 2.4275475 2.267128 4.083725 2.267128c1.3385544 0 2.4426727 -0.44104004 3.312355 -1.3231201c0.8715706 -0.88461304 1.4945297 -2.2368088 1.8688698 -4.0565796l-2.4417267 -1.034996c-0.20985794 1.2207642 -0.55583954 2.1154861 -1.0379448 2.684166c-0.48210907 0.5686798 -1.0578003 0.8530197 -1.7270775 0.8530197c-0.9074936 0 -1.6448326 -0.4473648 -2.212017 -1.3420868c-0.56718445 -0.89471436 -0.8507767 -2.3960266 -0.8507767 -4.503929c0 -1.9865875 0.2873726 -3.4234467 0.8621216 -4.310585c0.57663727 -0.88713837 1.3272095 -1.3307114 2.2517204 -1.3307114c0.6692772 0 1.2374039 0.25022125 1.7043877 0.7506561c0.46887207 0.5004349 0.7770424 1.1828537 0.92451096 2.0472412l2.4927711 -0.7961502c-0.28359222 -1.3344955 -0.70898056 -2.3581161 -1.276165 -3.0708618c-0.9528656 -1.2055969 -2.1921654 -1.8083954 -3.7178879 -1.8083954z" fill-rule="evenodd"/><path fill="#ffffff" d="m69.06436 102.68361c1.0379486 0 1.8698196 0.47010803 2.495613 1.4103241c0.6276779 0.94021606 0.9415207 2.3656998 0.9415207 4.2764664c0 1.9335022 -0.32234955 3.3842697 -0.96704865 4.3522873c-0.642807 0.9654846 -1.4661713 1.4482346 -2.4700851 1.4482346c-1.0039139 0 -1.8320007 -0.48654175 -2.4842682 -1.45961c-0.6522598 -0.9756012 -0.9783859 -2.4074097 -0.9783859 -4.295418c0 -1.9183426 0.31761932 -3.3526764 0.9528656 -4.3030014c0.6352463 -0.952858 1.4718399 -1.4292831 2.5097885 -1.4292831zm-0.025520325 -2.87751c-1.0152588 0 -1.9114151 0.21988678 -2.6884537 0.65966034c-0.584198 0.32604218 -1.122078 0.8264847 -1.6136398 1.5013123c-0.4896698 0.6748352 -0.876297 1.4368668 -1.1598892 2.2860947c-0.38001633 1.1525192 -0.5700226 2.578003 -0.5700226 4.2764587c0 2.653839 0.54733276 4.7377243 1.6419983 6.2516785c1.0946655 1.5114212 2.5693436 2.267128 4.424034 2.267128c1.8320084 0 3.2953415 -0.7594986 4.390007 -2.2785034c1.0946655 -1.5215302 1.6419983 -3.6281738 1.6419983 -6.319916c0 -2.7144928 -0.552063 -4.8337708 -1.6561813 -6.357826c-1.1022263 -1.5240631 -2.572174 -2.286087 -4.409851 -2.286087z" fill-rule="evenodd"/><path fill="#ffffff" d="m85.5524 102.91108c1.0266037 0 1.7157364 0.053077698 2.0673904 0.1592331c0.47076416 0.13648224 0.85928345 0.3980713 1.1655579 0.7847748c0.30628204 0.3867035 0.54450226 0.9250488 0.714653 1.6150513c0.17015839 0.6899948 0.25523376 1.6794968 0.25523376 2.9684982c0 1.2890091 -0.08507538 2.3075714 -0.25523376 3.0557022c-0.17015076 0.74559784 -0.39041138 1.2814255 -0.6607666 1.6074677c-0.26846313 0.32604218 -0.6068878 0.5573044 -1.0152588 0.6937866c-0.31195068 0.106147766 -0.8195801 0.15922546 -1.5228882 0.15922546l-1.8802185 0l0 -11.043739zm-3.649826 -2.8206482l0 16.67366l4.738823 0c0.9301834 0 1.6731949 -0.11752319 2.2290344 -0.3525772c0.7430115 -0.31845856 1.3328781 -0.76203156 1.7696152 -1.3307114c0.5785217 -0.7506561 1.0237656 -1.7325745 1.3357162 -2.945755c0.25523376 -0.99329376 0.38285065 -2.1761398 0.38285065 -3.5485535c0 -1.5619736 -0.13612366 -2.8749847 -0.40837097 -3.9390488c-0.27225494 -1.0665894 -0.669281 -1.9676285 -1.1910934 -2.7031174c-0.5218048 -0.7354889 -1.1485443 -1.2473068 -1.8802109 -1.5354309c-0.5444946 -0.21231079 -1.3357162 -0.3184662 -2.3736649 -0.3184662z" fill-rule="evenodd"/><path fill="#ffffff" d="m100.041115 102.68361c1.0379486 0 1.8698196 0.47010803 2.495613 1.4103241c0.62768555 0.94021606 0.9415283 2.3656998 0.9415283 4.2764664c0 1.9335022 -0.32235718 3.3842697 -0.96704865 4.3522873c-0.64281464 0.9654846 -1.4661713 1.4482346 -2.4700928 1.4482346c-1.0039139 0 -1.8320007 -0.48654175 -2.4842606 -1.45961c-0.65226746 -0.9756012 -0.97839355 -2.4074097 -0.97839355 -4.295418c0 -1.9183426 0.31761932 -3.3526764 0.9528656 -4.3030014c0.6352463 -0.952858 1.4718475 -1.4292831 2.5097885 -1.4292831zm-0.025520325 -2.87751c-1.0152588 0 -1.9114075 0.21988678 -2.6884537 0.65966034c-0.584198 0.32604218 -1.122078 0.8264847 -1.6136398 1.5013123c-0.4896698 0.6748352 -0.876297 1.4368668 -1.1598892 2.2860947c-0.3800125 1.1525192 -0.5700226 2.578003 -0.5700226 4.2764587c0 2.653839 0.54733276 4.7377243 1.6419983 6.2516785c1.0946655 1.5114212 2.5693436 2.267128 4.424034 2.267128c1.8320084 0 3.2953415 -0.7594986 4.390007 -2.2785034c1.0946655 -1.5215302 1.6419983 -3.6281738 1.6419983 -6.319916c0 -2.7144928 -0.552063 -4.8337708 -1.6561737 -6.357826c-1.1022339 -1.5240631 -2.5721817 -2.286087 -4.4098587 -2.286087z" fill-rule="evenodd"/><path stroke="#ffffff" stroke-width="1.0" stroke-linejoin="round" stroke-linecap="butt" d="m30.660334 103.980194l1.718565 6.1872253l-3.4031029 0l1.6845379 -6.1872253zm-1.3016872 -3.8897629l-4.857931 16.67366l2.6714363 0l1.029438 -3.7873993l4.985548 0l1.0889931 3.7873993l2.7394981 0l-4.994053 -16.67366z" fill-rule="evenodd"/><path stroke="#ffffff" stroke-width="1.0" stroke-linejoin="round" stroke-linecap="butt" d="m38.376873 100.09043l0 16.67366l2.339634 0l0 -10.873131l5.028084 10.873131l2.5268059 0l0 -16.67366l-2.339634 0l0 11.134735l-5.104656 -11.134735z" fill-rule="evenodd"/><path stroke="#ffffff" stroke-width="1.0" stroke-linejoin="round" stroke-linecap="butt" d="m56.328247 99.8061c-1.7469292 0 -3.1563797 0.76834106 -4.228359 2.3050385c-1.0719757 1.534172 -1.6079674 3.6888351 -1.6079674 6.4639816c0 2.6235046 0.53315353 4.69223 1.5994606 6.2061844c1.0663071 1.5114212 2.4275475 2.267128 4.083725 2.267128c1.3385544 0 2.4426727 -0.44104004 3.312355 -1.3231201c0.8715706 -0.88461304 1.4945297 -2.2368088 1.8688698 -4.0565796l-2.4417267 -1.034996c-0.20985794 1.2207642 -0.55583954 2.1154861 -1.0379448 2.684166c-0.48210907 0.5686798 -1.0578003 0.8530197 -1.7270775 0.8530197c-0.9074936 0 -1.6448326 -0.4473648 -2.212017 -1.3420868c-0.56718445 -0.89471436 -0.8507767 -2.3960266 -0.8507767 -4.503929c0 -1.9865875 0.2873726 -3.4234467 0.8621216 -4.310585c0.57663727 -0.88713837 1.3272095 -1.3307114 2.2517204 -1.3307114c0.6692772 0 1.2374039 0.25022125 1.7043877 0.7506561c0.46887207 0.5004349 0.7770424 1.1828537 0.92451096 2.0472412l2.4927711 -0.7961502c-0.28359222 -1.3344955 -0.70898056 -2.3581161 -1.276165 -3.0708618c-0.9528656 -1.2055969 -2.1921654 -1.8083954 -3.7178879 -1.8083954z" fill-rule="evenodd"/><path stroke="#ffffff" stroke-width="1.0" stroke-linejoin="round" stroke-linecap="butt" d="m69.06436 102.68361c1.0379486 0 1.8698196 0.47010803 2.495613 1.4103241c0.6276779 0.94021606 0.9415207 2.3656998 0.9415207 4.2764664c0 1.9335022 -0.32234955 3.3842697 -0.96704865 4.3522873c-0.642807 0.9654846 -1.4661713 1.4482346 -2.4700851 1.4482346c-1.0039139 0 -1.8320007 -0.48654175 -2.4842682 -1.45961c-0.6522598 -0.9756012 -0.9783859 -2.4074097 -0.9783859 -4.295418c0 -1.9183426 0.31761932 -3.3526764 0.9528656 -4.3030014c0.6352463 -0.952858 1.4718399 -1.4292831 2.5097885 -1.4292831zm-0.025520325 -2.87751c-1.0152588 0 -1.9114151 0.21988678 -2.6884537 0.65966034c-0.584198 0.32604218 -1.122078 0.8264847 -1.6136398 1.5013123c-0.4896698 0.6748352 -0.876297 1.4368668 -1.1598892 2.2860947c-0.38001633 1.1525192 -0.5700226 2.578003 -0.5700226 4.2764587c0 2.653839 0.54733276 4.7377243 1.6419983 6.2516785c1.0946655 1.5114212 2.5693436 2.267128 4.424034 2.267128c1.8320084 0 3.2953415 -0.7594986 4.390007 -2.2785034c1.0946655 -1.5215302 1.6419983 -3.6281738 1.6419983 -6.319916c0 -2.7144928 -0.552063 -4.8337708 -1.6561813 -6.357826c-1.1022263 -1.5240631 -2.572174 -2.286087 -4.409851 -2.286087z" fill-rule="evenodd"/><path stroke="#ffffff" stroke-width="1.0" stroke-linejoin="round" stroke-linecap="butt" d="m85.5524 102.91108c1.0266037 0 1.7157364 0.053077698 2.0673904 0.1592331c0.47076416 0.13648224 0.85928345 0.3980713 1.1655579 0.7847748c0.30628204 0.3867035 0.54450226 0.9250488 0.714653 1.6150513c0.17015839 0.6899948 0.25523376 1.6794968 0.25523376 2.9684982c0 1.2890091 -0.08507538 2.3075714 -0.25523376 3.0557022c-0.17015076 0.74559784 -0.39041138 1.2814255 -0.6607666 1.6074677c-0.26846313 0.32604218 -0.6068878 0.5573044 -1.0152588 0.6937866c-0.31195068 0.106147766 -0.8195801 0.15922546 -1.5228882 0.15922546l-1.8802185 0l0 -11.043739zm-3.649826 -2.8206482l0 16.67366l4.738823 0c0.9301834 0 1.6731949 -0.11752319 2.2290344 -0.3525772c0.7430115 -0.31845856 1.3328781 -0.76203156 1.7696152 -1.3307114c0.5785217 -0.7506561 1.0237656 -1.7325745 1.3357162 -2.945755c0.25523376 -0.99329376 0.38285065 -2.1761398 0.38285065 -3.5485535c0 -1.5619736 -0.13612366 -2.8749847 -0.40837097 -3.9390488c-0.27225494 -1.0665894 -0.669281 -1.9676285 -1.1910934 -2.7031174c-0.5218048 -0.7354889 -1.1485443 -1.2473068 -1.8802109 -1.5354309c-0.5444946 -0.21231079 -1.3357162 -0.3184662 -2.3736649 -0.3184662z" fill-rule="evenodd"/><path stroke="#ffffff" stroke-width="1.0" stroke-linejoin="round" stroke-linecap="butt" d="m100.041115 102.68361c1.0379486 0 1.8698196 0.47010803 2.495613 1.4103241c0.62768555 0.94021606 0.9415283 2.3656998 0.9415283 4.2764664c0 1.9335022 -0.32235718 3.3842697 -0.96704865 4.3522873c-0.64281464 0.9654846 -1.4661713 1.4482346 -2.4700928 1.4482346c-1.0039139 0 -1.8320007 -0.48654175 -2.4842606 -1.45961c-0.65226746 -0.9756012 -0.97839355 -2.4074097 -0.97839355 -4.295418c0 -1.9183426 0.31761932 -3.3526764 0.9528656 -4.3030014c0.6352463 -0.952858 1.4718475 -1.4292831 2.5097885 -1.4292831zm-0.025520325 -2.87751c-1.0152588 0 -1.9114075 0.21988678 -2.6884537 0.65966034c-0.584198 0.32604218 -1.122078 0.8264847 -1.6136398 1.5013123c-0.4896698 0.6748352 -0.876297 1.4368668 -1.1598892 2.2860947c-0.3800125 1.1525192 -0.5700226 2.578003 -0.5700226 4.2764587c0 2.653839 0.54733276 4.7377243 1.6419983 6.2516785c1.0946655 1.5114212 2.5693436 2.267128 4.424034 2.267128c1.8320084 0 3.2953415 -0.7594986 4.390007 -2.2785034c1.0946655 -1.5215302 1.6419983 -3.6281738 1.6419983 -6.319916c0 -2.7144928 -0.552063 -4.8337708 -1.6561737 -6.357826c-1.1022339 -1.5240631 -2.5721817 -2.286087 -4.4098587 -2.286087z" fill-rule="evenodd"/><path fill="#ffffff" d="m116.96942 97.801155c1.2761536 0 2.176735 0.10102081 2.7017365 0.30306244c0.5249939 0.1987915 0.92884064 0.5702896 1.2115326 1.1145096c0.28269958 0.5409622 0.42404175 1.1682739 0.42404175 1.8819504c0 0.7527771 -0.15211487 1.3784637 -0.4563446 1.8770599c-0.30153656 0.4985962 -0.75115204 0.8554306 -1.3488464 1.0705109c-0.45230865 0.16619873 -1.1994247 0.2492981 -2.2413483 0.2492981l-3.8405838 0l0 -6.4963913zm0.557312 9.033356c1.1307678 0 1.9963455 0.12057495 2.5967255 0.36172485c0.60308075 0.23789215 1.074234 0.653389 1.4134674 1.2464905c0.3392334 0.5898361 0.50884247 1.2855911 0.50884247 2.0872498c0 0.68434906 -0.117111206 1.2888565 -0.35134125 1.8135223c-0.23423004 0.52140045 -0.53308105 0.91897583 -0.8965378 1.1927109c-0.36346436 0.27374268 -0.815773 0.4692688 -1.356926 0.586586c-0.3069229 0.06843567 -0.84000397 0.1026535 -1.5992355 0.1026535l-4.422119 0l0 -7.390938zm-6.457512 -11.57032l0 21.498222l6.7725067 0c1.1307755 0 2.0851974 -0.11894989 2.8632736 -0.35684204c0.78076935 -0.2411499 1.4296188 -0.5963516 1.9465408 -1.0656204c0.516922 -0.4692688 0.95038605 -1.1356888 1.3003845 -1.9992676c0.35269165 -0.86683655 0.5290375 -1.8037415 0.5290375 -2.810707c0 -1.2513733 -0.28942108 -2.3365479 -0.8682709 -3.2555237c-0.576149 -0.91898346 -1.4013443 -1.569107 -2.4755783 -1.950386c0.83192444 -0.4985962 1.4538498 -1.1536102 1.8657761 -1.9650497c0.41191864 -0.8114395 0.6178818 -1.6766434 0.6178818 -2.5956268c0 -0.9874115 -0.23288727 -1.932457 -0.6986542 -2.835144c-0.46308136 -0.9059448 -1.1051941 -1.5756226 -1.9263458 -2.0090408c-0.8184662 -0.43667603 -1.9061584 -0.65501404 -3.2630844 -0.65501404z" fill-rule="evenodd"/><path stroke="#ffffff" stroke-width="1.0" stroke-linejoin="round" stroke-linecap="butt" d="m116.96942 97.801155c1.2761536 0 2.176735 0.10102081 2.7017365 0.30306244c0.5249939 0.1987915 0.92884064 0.5702896 1.2115326 1.1145096c0.28269958 0.5409622 0.42404175 1.1682739 0.42404175 1.8819504c0 0.7527771 -0.15211487 1.3784637 -0.4563446 1.8770599c-0.30153656 0.4985962 -0.75115204 0.8554306 -1.3488464 1.0705109c-0.45230865 0.16619873 -1.1994247 0.2492981 -2.2413483 0.2492981l-3.8405838 0l0 -6.4963913zm0.557312 9.033356c1.1307678 0 1.9963455 0.12057495 2.5967255 0.36172485c0.60308075 0.23789215 1.074234 0.653389 1.4134674 1.2464905c0.3392334 0.5898361 0.50884247 1.2855911 0.50884247 2.0872498c0 0.68434906 -0.117111206 1.2888565 -0.35134125 1.8135223c-0.23423004 0.52140045 -0.53308105 0.91897583 -0.8965378 1.1927109c-0.36346436 0.27374268 -0.815773 0.4692688 -1.356926 0.586586c-0.3069229 0.06843567 -0.84000397 0.1026535 -1.5992355 0.1026535l-4.422119 0l0 -7.390938zm-6.457512 -11.57032l0 21.498222l6.7725067 0c1.1307755 0 2.0851974 -0.11894989 2.8632736 -0.35684204c0.78076935 -0.2411499 1.4296188 -0.5963516 1.9465408 -1.0656204c0.516922 -0.4692688 0.95038605 -1.1356888 1.3003845 -1.9992676c0.35269165 -0.86683655 0.5290375 -1.8037415 0.5290375 -2.810707c0 -1.2513733 -0.28942108 -2.3365479 -0.8682709 -3.2555237c-0.576149 -0.91898346 -1.4013443 -1.569107 -2.4755783 -1.950386c0.83192444 -0.4985962 1.4538498 -1.1536102 1.8657761 -1.9650497c0.41191864 -0.8114395 0.6178818 -1.6766434 0.6178818 -2.5956268c0 -0.9874115 -0.23288727 -1.932457 -0.6986542 -2.835144c-0.46308136 -0.9059448 -1.1051941 -1.5756226 -1.9263458 -2.0090408c-0.8184662 -0.43667603 -1.9061584 -0.65501404 -3.2630844 -0.65501404z" fill-rule="evenodd"/><path fill="#ffffff" d="m131.16191 102.91108c1.0209198 0 1.6334839 0.018959045 1.837677 0.056869507c0.40837097 0.09098816 0.7240906 0.3096161 0.94718933 0.65587616c0.22499084 0.34373474 0.33747864 0.7961502 0.33747864 1.3572464c0 0.5004349 -0.08508301 0.9174652 -0.25523376 1.251091c-0.17015076 0.3336258 -0.40553284 0.5686798 -0.70614624 0.70516205c-0.3006134 0.13648224 -1.0549622 0.20472717 -2.2630615 0.20472717l-1.863205 0l0 -4.2309723zm12.982834 1.0691147l1.7185669 6.1872253l-3.4031067 0l1.6845398 -6.1872253zm-17.46643 -3.8897629l0 16.67366l2.5182953 0l0 -6.9606247l0.5104675 0c0.5785217 0 1.0010834 0.063186646 1.2676544 0.18955994c0.2665863 0.12384796 0.51898193 0.35511017 0.7571869 0.6937866c0.23822021 0.33615112 0.68063354 1.1525269 1.3272095 2.449112l1.8206635 3.6281662l3.0117493 0l-1.5228882 -3.2528381c-0.60121155 -1.2965851 -1.0795441 -2.1988907 -1.434967 -2.7069092c-0.35354614 -0.5080261 -0.8025665 -0.97434235 -1.3470764 -1.3989487c1.0946655 -0.21231079 1.9170837 -0.7253876 2.4672546 -1.5392303c0.5501709 -0.8163681 0.82525635 -1.8500977 0.82525635 -3.1011887c0 -0.98571014 -0.1815033 -1.8614807 -0.5444946 -2.6272964c-0.3630066 -0.76582336 -0.8470001 -1.2978516 -1.4519958 -1.5960922c-0.60310364 -0.300766 -1.5710907 -0.45115662 -2.9039764 -0.45115662zm16.16475 0l-4.8579407 16.67366l2.6714478 0l1.0294342 -3.7873993l4.98555 0l1.0889893 3.7873993l2.739502 0l-4.9940643 -16.67366z" fill-rule="evenodd"/><path fill="#ffffff" d="m156.20024 99.8061c-0.95854187 0 -1.7771759 0.19334412 -2.455902 0.5800476c-0.67684937 0.3867035 -1.195816 0.950325 -1.5569305 1.6908722c-0.35920715 0.73802185 -0.53881836 1.5316391 -0.53881836 2.380867c0 1.3193359 0.38284302 2.4377365 1.1485443 3.3552094c0.5444946 0.65208435 1.4916992 1.2018051 2.8415985 1.6491623c1.0492859 0.34879303 1.721405 0.59143066 2.0163422 0.7279129c0.4310608 0.20471954 0.732605 0.4460907 0.9046478 0.72411346c0.17393494 0.27549744 0.26091003 0.6103821 0.26091003 1.0046692c0 0.6141739 -0.20606995 1.1512604 -0.6182251 1.6112518c-0.41026306 0.45747375 -1.020935 0.68621063 -1.832016 0.68621063c-0.76568604 0 -1.374466 -0.25780487 -1.8263245 -0.773407c-0.44996643 -0.5156021 -0.74868774 -1.3231201 -0.8961487 -2.4225693l-2.450241 0.31845856c0.16448975 1.8652649 0.669281 3.285698 1.514389 4.261299c0.8450928 0.97307587 2.0560303 1.45961 3.6328125 1.45961c1.083313 0 1.9879761 -0.20219421 2.713974 -0.6065903c0.7259979 -0.4069214 1.2875061 -1.0274124 1.6845398 -1.8614731c0.39701843 -0.83406067 0.5955353 -1.7287827 0.5955353 -2.684166c0 -1.0539474 -0.16636658 -1.9385605 -0.499115 -2.6538315c-0.33085632 -0.71780396 -0.7902832 -1.2826843 -1.3782654 -1.694664c-0.5860901 -0.414505 -1.491684 -0.81510925 -2.7168121 -1.2018051c-1.2251129 -0.3867035 -1.9964905 -0.75823975 -2.3141022 -1.1146164c-0.24957275 -0.2805481 -0.37434387 -0.61795807 -0.37434387 -1.0122452c0 -0.43219757 0.13328552 -0.77719116 0.39985657 -1.034996c0.41404724 -0.4018631 0.98690796 -0.60279846 1.7185669 -0.60279846c0.7089844 0 1.2402496 0.18829346 1.5937958 0.564888c0.35543823 0.37406158 0.58703613 0.98950195 0.6947937 1.8463135l2.5182953 -0.14785767c-0.03970337 -1.5316467 -0.45562744 -2.756195 -1.2478027 -3.673668c-0.79026794 -0.9174652 -1.9681244 -1.3761978 -3.533554 -1.3761978z" fill-rule="evenodd"/><path fill="#ffffff" d="m163.3808 100.09043l0 16.67366l2.5182953 0l0 -16.67366z" fill-rule="evenodd"/><path fill="#ffffff" d="m168.36633 100.22692l0 16.53717l8.780014 0l0 -2.8092728l-6.2617035 0l0 -13.727898z" fill-rule="evenodd"/><path stroke="#ffffff" stroke-width="1.0" stroke-linejoin="round" stroke-linecap="butt" d="m131.16191 102.91108c1.0209198 0 1.6334839 0.018959045 1.837677 0.056869507c0.40837097 0.09098816 0.7240906 0.3096161 0.94718933 0.65587616c0.22499084 0.34373474 0.33747864 0.7961502 0.33747864 1.3572464c0 0.5004349 -0.08508301 0.9174652 -0.25523376 1.251091c-0.17015076 0.3336258 -0.40553284 0.5686798 -0.70614624 0.70516205c-0.3006134 0.13648224 -1.0549622 0.20472717 -2.2630615 0.20472717l-1.863205 0l0 -4.2309723zm12.982834 1.0691147l1.7185669 6.1872253l-3.4031067 0l1.6845398 -6.1872253zm-17.46643 -3.8897629l0 16.67366l2.5182953 0l0 -6.9606247l0.5104675 0c0.5785217 0 1.0010834 0.063186646 1.2676544 0.18955994c0.2665863 0.12384796 0.51898193 0.35511017 0.7571869 0.6937866c0.23822021 0.33615112 0.68063354 1.1525269 1.3272095 2.449112l1.8206635 3.6281662l3.0117493 0l-1.5228882 -3.2528381c-0.60121155 -1.2965851 -1.0795441 -2.1988907 -1.434967 -2.7069092c-0.35354614 -0.5080261 -0.8025665 -0.97434235 -1.3470764 -1.3989487c1.0946655 -0.21231079 1.9170837 -0.7253876 2.4672546 -1.5392303c0.5501709 -0.8163681 0.82525635 -1.8500977 0.82525635 -3.1011887c0 -0.98571014 -0.1815033 -1.8614807 -0.5444946 -2.6272964c-0.3630066 -0.76582336 -0.8470001 -1.2978516 -1.4519958 -1.5960922c-0.60310364 -0.300766 -1.5710907 -0.45115662 -2.9039764 -0.45115662zm16.16475 0l-4.8579407 16.67366l2.6714478 0l1.0294342 -3.7873993l4.98555 0l1.0889893 3.7873993l2.739502 0l-4.9940643 -16.67366z" fill-rule="evenodd"/><path stroke="#ffffff" stroke-width="1.0" stroke-linejoin="round" stroke-linecap="butt" d="m156.20024 99.8061c-0.95854187 0 -1.7771759 0.19334412 -2.455902 0.5800476c-0.67684937 0.3867035 -1.195816 0.950325 -1.5569305 1.6908722c-0.35920715 0.73802185 -0.53881836 1.5316391 -0.53881836 2.380867c0 1.3193359 0.38284302 2.4377365 1.1485443 3.3552094c0.5444946 0.65208435 1.4916992 1.2018051 2.8415985 1.6491623c1.0492859 0.34879303 1.721405 0.59143066 2.0163422 0.7279129c0.4310608 0.20471954 0.732605 0.4460907 0.9046478 0.72411346c0.17393494 0.27549744 0.26091003 0.6103821 0.26091003 1.0046692c0 0.6141739 -0.20606995 1.1512604 -0.6182251 1.6112518c-0.41026306 0.45747375 -1.020935 0.68621063 -1.832016 0.68621063c-0.76568604 0 -1.374466 -0.25780487 -1.8263245 -0.773407c-0.44996643 -0.5156021 -0.74868774 -1.3231201 -0.8961487 -2.4225693l-2.450241 0.31845856c0.16448975 1.8652649 0.669281 3.285698 1.514389 4.261299c0.8450928 0.97307587 2.0560303 1.45961 3.6328125 1.45961c1.083313 0 1.9879761 -0.20219421 2.713974 -0.6065903c0.7259979 -0.4069214 1.2875061 -1.0274124 1.6845398 -1.8614731c0.39701843 -0.83406067 0.5955353 -1.7287827 0.5955353 -2.684166c0 -1.0539474 -0.16636658 -1.9385605 -0.499115 -2.6538315c-0.33085632 -0.71780396 -0.7902832 -1.2826843 -1.3782654 -1.694664c-0.5860901 -0.414505 -1.491684 -0.81510925 -2.7168121 -1.2018051c-1.2251129 -0.3867035 -1.9964905 -0.75823975 -2.3141022 -1.1146164c-0.24957275 -0.2805481 -0.37434387 -0.61795807 -0.37434387 -1.0122452c0 -0.43219757 0.13328552 -0.77719116 0.39985657 -1.034996c0.41404724 -0.4018631 0.98690796 -0.60279846 1.7185669 -0.60279846c0.7089844 0 1.2402496 0.18829346 1.5937958 0.564888c0.35543823 0.37406158 0.58703613 0.98950195 0.6947937 1.8463135l2.5182953 -0.14785767c-0.03970337 -1.5316467 -0.45562744 -2.756195 -1.2478027 -3.673668c-0.79026794 -0.9174652 -1.9681244 -1.3761978 -3.533554 -1.3761978z" fill-rule="evenodd"/><path stroke="#ffffff" stroke-width="1.0" stroke-linejoin="round" stroke-linecap="butt" d="m163.3808 100.09043l0 16.67366l2.5182953 0l0 -16.67366z" fill-rule="evenodd"/><path stroke="#ffffff" stroke-width="1.0" stroke-linejoin="round" stroke-linecap="butt" d="m168.36633 100.22692l0 16.53717l8.780014 0l0 -2.8092728l-6.2617035 0l0 -13.727898z" fill-rule="evenodd"/><path fill="#000000" fill-opacity="0.0" d="m12.203507 68.8912l163.74803 0" fill-rule="evenodd"/><path stroke="#ffffff" stroke-width="1.0" stroke-linejoin="round" stroke-linecap="butt" d="m12.203507 68.8912l163.74803 0" fill-rule="evenodd"/><path fill="#ffffff" d="m17.45455 82.29715l1.3727303 3.7844238l-2.718279 0l1.3455486 -3.7844238zm-1.0397415 -2.379181l-3.8803434 10.198471l2.1338491 0l0.822279 -2.316574l3.9822788 0l0.86984825 2.316574l2.1882133 0l-3.9890728 -10.198471z" fill-rule="evenodd"/><path fill="#ffffff" d="m27.084051 79.74406c-0.7656498 0 -1.4195442 0.118263245 -1.9616909 0.35478973c-0.54063416 0.23652649 -0.9551716 0.5812683 -1.2436123 1.0342178c-0.28692818 0.45141602 -0.43039513 0.93683624 -0.43039513 1.4562683c0 0.8069687 0.3058071 1.4910431 0.91741943 2.0522156c0.43492508 0.39884186 1.1915112 0.73508453 2.269762 1.0087128c0.8381367 0.21334076 1.3749962 0.36174774 1.6105804 0.44522858c0.34431458 0.12521362 0.585186 0.27285004 0.72260857 0.4429016c0.138937 0.16851044 0.20840263 0.37334442 0.20840263 0.6145096c0 0.37565613 -0.1646061 0.7041702 -0.4938221 0.98552704c-0.32770157 0.27980804 -0.8154831 0.41971588 -1.4633389 0.41971588c-0.6116123 0 -1.0978813 -0.15768433 -1.4588089 -0.47305298c-0.35941696 -0.31536865 -0.59802246 -0.809288 -0.7158146 -1.4817657l-1.957161 0.19478607c0.1313839 1.140892 0.5345955 2.0097046 1.2096348 2.60643c0.6750393 0.5951767 1.6422939 0.89276886 2.901762 0.89276886c0.8653183 0 1.5879288 -0.123672485 2.1678276 -0.37101746c0.57989883 -0.24890137 1.0284157 -0.6284256 1.3455467 -1.1385803c0.31713295 -0.5101547 0.47570038 -1.0574112 0.47570038 -1.6417694c0 -0.6446533 -0.13289261 -1.1857224 -0.39868164 -1.6232224c-0.2642765 -0.43904114 -0.63124275 -0.7845535 -1.1009026 -1.0365448c-0.46814728 -0.25352478 -1.1915131 -0.49855804 -2.1700935 -0.73508453c-0.97857857 -0.23652649 -1.5947227 -0.46377563 -1.8484287 -0.68175507c-0.19934082 -0.17159271 -0.29901123 -0.37797546 -0.29901123 -0.6191406c0 -0.2643509 0.10646629 -0.4753723 0.31939888 -0.63305664c0.3307228 -0.24580383 0.78829956 -0.36870575 1.3727303 -0.36870575c0.566309 0 0.9906635 0.11517334 1.2730598 0.34552002c0.28391075 0.22879791 0.4689045 0.6052246 0.55498314 1.1292953l2.011526 -0.09043884c-0.031713486 -0.9368286 -0.3639469 -1.6858292 -0.9967022 -2.2470016c-0.63124466 -0.56116486 -1.5720711 -0.8417511 -2.8224792 -0.8417511z" fill-rule="evenodd"/><path fill="#ffffff" d="m36.36697 79.74406c-0.7656479 0 -1.4195442 0.118263245 -1.961689 0.35478973c-0.54063416 0.23652649 -0.9551735 0.5812683 -1.2436142 1.0342178c-0.28692627 0.45141602 -0.43039322 0.93683624 -0.43039322 1.4562683c0 0.8069687 0.3058052 1.4910431 0.91741943 2.0522156c0.43492508 0.39884186 1.1915131 0.73508453 2.269764 1.0087128c0.83813477 0.21334076 1.3749962 0.36174774 1.6105804 0.44522858c0.34431458 0.12521362 0.585186 0.27285004 0.72260666 0.4429016c0.13893509 0.16851044 0.20840073 0.37334442 0.20840073 0.6145096c0 0.37565613 -0.16460419 0.7041702 -0.4938202 0.98552704c-0.32770157 0.27980804 -0.8154831 0.41971588 -1.4633408 0.41971588c-0.6116104 0 -1.0978775 -0.15768433 -1.4588089 -0.47305298c-0.35941315 -0.31536865 -0.59801865 -0.809288 -0.7158127 -1.4817657l-1.957161 0.19478607c0.1313858 1.140892 0.5345955 2.0097046 1.2096367 2.60643c0.6750374 0.5951767 1.642292 0.89276886 2.90176 0.89276886c0.8653183 0 1.5879288 -0.123672485 2.1678276 -0.37101746c0.57989883 -0.24890137 1.0284157 -0.6284256 1.3455467 -1.1385803c0.31713486 -0.5101547 0.47570038 -1.0574112 0.47570038 -1.6417694c0 -0.6446533 -0.13289261 -1.1857224 -0.39868164 -1.6232224c-0.2642746 -0.43904114 -0.63124466 -0.7845535 -1.1009026 -1.0365448c-0.46814728 -0.25352478 -1.1915131 -0.49855804 -2.1700935 -0.73508453c-0.9785805 -0.23652649 -1.5947227 -0.46377563 -1.8484268 -0.68175507c-0.19934082 -0.17159271 -0.29901123 -0.37797546 -0.29901123 -0.6191406c0 -0.2643509 0.106464386 -0.4753723 0.31939697 -0.63305664c0.3307228 -0.24580383 0.78829956 -0.36870575 1.3727303 -0.36870575c0.56630707 0 0.9906616 0.11517334 1.2730598 0.34552002c0.28391266 0.22879791 0.4689026 0.6052246 0.55498123 1.1292953l2.011528 -0.09043884c-0.031715393 -0.9368286 -0.363945 -1.6858292 -0.9967041 -2.2470016c-0.63124084 -0.56116486 -1.5720711 -0.8417511 -2.8224792 -0.8417511z" fill-rule="evenodd"/><path fill="#ffffff" d="m46.594494 81.50409c0.82907486 0 1.4935455 0.28754425 1.9934044 0.8626251c0.5013733 0.5750885 0.7520561 1.4469833 0.7520561 2.6157074c0 1.1826324 -0.2574768 2.069992 -0.77244186 2.6620789c-0.5134506 0.59054565 -1.1711273 0.8858185 -1.9730186 0.8858185c-0.8018913 0 -1.4633408 -0.29759216 -1.9843445 -0.89276886c-0.5209999 -0.5967331 -0.78150177 -1.472496 -0.78150177 -2.627304c0 -1.1733551 0.25370407 -2.0506668 0.761116 -2.6319351c0.50741196 -0.5828171 1.1756554 -0.8742218 2.0047302 -0.8742218zm-0.020385742 -1.7600327c-0.81095505 0 -1.5267677 0.13449097 -2.1474419 0.40348053c-0.46663666 0.19942474 -0.89627457 0.5055237 -1.2889175 0.91828156c-0.39112854 0.4127655 -0.699955 0.8788605 -0.92647934 1.3982925c-0.30353928 0.7049408 -0.45531082 1.5768433 -0.45531082 2.6156998c0 1.6232224 0.437191 2.8978424 1.3115692 3.823845c0.8743782 0.924469 2.0522995 1.3866959 3.533764 1.3866959c1.463337 0 2.6321983 -0.4645462 3.5065765 -1.3936462c0.874382 -0.9306488 1.3115692 -2.2191772 1.3115692 -3.8655853c0 -1.6603241 -0.44096375 -2.956581 -1.322895 -3.8887787c-0.88041687 -0.93218994 -2.0545654 -1.3982849 -3.5224342 -1.3982849z" fill-rule="evenodd"/><path fill="#ffffff" d="m57.297714 79.74406c-1.3953819 0 -2.521202 0.46995544 -3.3774605 1.4098816c-0.8562584 0.9383774 -1.2843857 2.256279 -1.2843857 3.9537048c0 1.6046677 0.42586517 2.8700104 1.2775917 3.7960129c0.85172653 0.924469 1.9390373 1.3866959 3.2619324 1.3866959c1.069191 0 1.9511185 -0.26976013 2.645794 -0.809288c0.69617844 -0.54107666 1.1937752 -1.3681412 1.4927864 -2.4812088l-1.950367 -0.63305664c-0.16762543 0.7466812 -0.443985 1.2939377 -0.82907486 1.6417694c-0.38508606 0.34783173 -0.84492874 0.5217514 -1.3795242 0.5217514c-0.7248764 0 -1.3138351 -0.27362823 -1.76688 -0.8208847c-0.4530487 -0.54725647 -0.67956924 -1.465538 -0.67956924 -2.754837c0 -1.2151031 0.22954178 -2.093956 0.68862915 -2.6365814c0.460598 -0.5426178 1.0601273 -0.8139267 1.7985954 -0.8139267c0.5345917 0 0.9883957 0.15304565 1.3614044 0.45913696c0.37451553 0.30609894 0.62067413 0.7234955 0.73846436 1.2522049l1.9911385 -0.486969c-0.22652435 -0.81624603 -0.56630707 -1.4423447 -1.0193558 -1.8782959c-0.761116 -0.7374115 -1.7510223 -1.1061096 -2.969719 -1.1061096z" fill-rule="evenodd"/><path fill="#ffffff" d="m62.978916 79.91797l0 10.198471l2.0115242 0l0 -10.198471z" fill-rule="evenodd"/><path fill="#ffffff" d="m70.814354 82.29715l1.3727341 3.7844238l-2.718277 0l1.3455429 -3.7844238zm-1.0397415 -2.379181l-3.8803406 10.198471l2.13385 0l0.8222809 -2.316574l3.982277 0l0.86985016 2.316574l2.1882095 0l-3.9890747 -10.198471z" fill-rule="evenodd"/><path fill="#ffffff" d="m81.266136 79.74406c-1.3953857 0 -2.521202 0.46995544 -3.3774643 1.4098816c-0.8562546 0.9383774 -1.2843857 2.256279 -1.2843857 3.9537048c0 1.6046677 0.42586517 2.8700104 1.2775955 3.7960129c0.7036438 0.76374054 1.5680847 1.2120056 2.5933151 1.3447876l0 0c-0.18691254 0.031295776 -0.36724854 0.07772827 -0.5410156 0.13930511l-0.17668915 0.68870544c0.3035431 -0.09275055 0.6002884 -0.13912964 0.8902359 -0.13912964c0.29447937 0 0.51194 0.05796814 0.6523895 0.17391968c0.1404419 0.11594391 0.21066284 0.2527542 0.21066284 0.41043854c0 0.17623901 -0.07475281 0.32000732 -0.22425842 0.43131256c-0.19480896 0.14840698 -0.4938202 0.2226181 -0.8970337 0.2226181c-0.38961792 0 -0.817749 -0.025512695 -1.2843857 -0.07653046l0 0.82089233c0.29901123 0.07420349 0.7407303 0.11130524 1.3251648 0.11130524c0.82001495 0 1.4497452 -0.17391968 1.8891983 -0.5217514c0.32619476 -0.25507355 0.48929596 -0.58667755 0.48929596 -0.9948044c0 -0.36637878 -0.14723969 -0.6771164 -0.44171906 -0.93218994c-0.1738739 -0.15060425 -0.3951187 -0.256752 -0.6637497 -0.31843567l0 0c0.8213196 -0.07966614 1.5167542 -0.34068298 2.0863113 -0.7830353c0.69618225 -0.54107666 1.193779 -1.3681412 1.4927902 -2.4812088l-1.9503632 -0.63305664c-0.16763306 0.7466812 -0.4439926 1.2939377 -0.8290787 1.6417694c-0.38508606 0.34783173 -0.84493256 0.5217514 -1.3795242 0.5217514c-0.7248764 0 -1.3138351 -0.27362823 -1.7668839 -0.8208847c-0.4530487 -0.54725647 -0.6795654 -1.465538 -0.6795654 -2.754837c0 -1.2151031 0.22953796 -2.093956 0.68862915 -2.6365814c0.46059418 -0.5426178 1.0601273 -0.8139267 1.7985916 -0.8139267c0.5345993 0 0.9883957 0.15304565 1.3614044 0.45913696c0.37451935 0.30609894 0.62067413 0.7234955 0.73846436 1.2522049l1.9911423 -0.486969c-0.22652435 -0.81624603 -0.56630707 -1.4423447 -1.0193558 -1.8782959c-0.761116 -0.7374115 -1.7510223 -1.1061096 -2.969719 -1.1061096z" fill-rule="evenodd"/><path fill="#ffffff" d="m92.302345 77.580536c-0.027183533 0.2179718 -0.08985138 0.3733368 -0.18801117 0.46609497c-0.09664917 0.09275055 -0.21746063 0.13912964 -0.36244202 0.13912964c-0.20386505 0 -0.4862671 -0.08193207 -0.84719086 -0.24580383c-0.35942078 -0.1654129 -0.6070862 -0.26512146 -0.7429962 -0.2991333c-0.13591766 -0.03555298 -0.28315735 -0.053337097 -0.44172668 -0.053337097c-0.3624344 0 -0.6591797 0.13140869 -0.8902359 0.39421082c-0.23104858 0.261261 -0.3465805 0.635376 -0.3465805 1.122345c0 0.060287476 0.0022659302 0.14376831 0.0067977905 0.2504425l0.86985016 0c0.0045318604 -0.2226181 0.047569275 -0.37875366 0.12911987 -0.46842194c0.0815506 -0.09120941 0.19480896 -0.1368103 0.3397827 -0.1368103c0.1902771 0 0.4938202 0.0811615 0.91062164 0.2434845c0.41680145 0.162323 0.6773071 0.25739288 0.7815094 0.2852173c0.14950562 0.032470703 0.30127716 0.048698425 0.455307 0.048698425c0.3533783 0 0.6418152 -0.13449097 0.8653183 -0.40348816c0.22501373 -0.26898956 0.33979034 -0.71652985 0.34431458 -1.3426285zm-1.386322 4.716614l1.3727341 3.7844238l-2.718277 0l1.3455429 -3.7844238zm-1.0397415 -2.379181l-3.8803406 10.198471l2.13385 0l0.8222809 -2.316574l3.982277 0l0.86985016 2.316574l2.1882095 0l-3.9890747 -10.198471z" fill-rule="evenodd"/><path fill="#ffffff" d="m101.49013 81.50409c0.8290787 0 1.4935455 0.28754425 1.9934082 0.8626251c0.50136566 0.5750885 0.7520523 1.4469833 0.7520523 2.6157074c0 1.1826324 -0.2574768 2.069992 -0.7724457 2.6620789c-0.5134506 0.59054565 -1.1711197 0.8858185 -1.9730148 0.8858185c-0.80189514 0 -1.4633408 -0.29759216 -1.9843445 -0.89276886c-0.5210037 -0.5967331 -0.78150177 -1.472496 -0.78150177 -2.627304c0 -1.1733551 0.2537079 -2.0506668 0.761116 -2.6319351c0.5074158 -0.5828171 1.1756592 -0.8742218 2.0047302 -0.8742218zm-0.020385742 -1.7600327c-0.81095123 0 -1.5267639 0.13449097 -2.147438 0.40348053c-0.4666443 0.19942474 -0.8962784 0.5055237 -1.2889175 0.91828156c-0.39113617 0.4127655 -0.6999588 0.8788605 -0.92648315 1.3982925c-0.3035431 0.7049408 -0.45531464 1.5768433 -0.45531464 2.6156998c0 1.6232224 0.43719482 2.8978424 1.3115768 3.823845c0.8743744 0.924469 2.0522995 1.3866959 3.53376 1.3866959c1.4633408 0 2.6321945 -0.4645462 3.5065765 -1.3936462c0.874382 -0.9306488 1.3115692 -2.2191772 1.3115692 -3.8655853c0 -1.6603241 -0.44096375 -2.956581 -1.3228912 -3.8887787c-0.8804245 -0.93218994 -2.0545654 -1.3982849 -3.522438 -1.3982849z" fill-rule="evenodd"/><path fill="#ffffff" d="m115.142685 82.29715l1.3727264 3.7844238l-2.718277 0l1.3455505 -3.7844238zm-1.0397415 -2.379181l-3.8803482 10.198471l2.13385 0l0.8222809 -2.316574l3.982277 0l0.86985016 2.316574l2.1882095 0l-3.989067 -10.198471zm5.436554 0l0 1.7252579l2.956131 0l0 8.473213l2.0115204 0l0 -8.473213l2.9493332 0l0 -1.7252579z" fill-rule="evenodd"/><path fill="#ffffff" d="m128.80882 80.00145l0 10.11499l7.0131683 0l0 -1.7182999l-5.0016327 0l0 -8.39669z" fill-rule="evenodd"/><path fill="#ffffff" d="m140.74887 77.25357l-0.9378052 2.08004l1.2096252 0l1.8688202 -2.08004zm-3.4929962 2.6643982l0 10.198471l7.5772095 0l0 -1.7182999l-5.565674 0l0 -2.7757034l5.0016174 0l0 -1.7182999l-5.0016174 0l0 -2.26091l5.3753815 0l0 -1.7252579z" fill-rule="evenodd"/><path fill="#ffffff" d="m145.82526 79.91797l0 1.7252579l2.9561157 0l0 8.473213l2.0115356 0l0 -8.473213l2.9493256 0l0 -1.7252579z" fill-rule="evenodd"/><path fill="#ffffff" d="m154.97905 79.91797l0 10.198471l2.0115356 0l0 -10.198471z" fill-rule="evenodd"/><path fill="#ffffff" d="m163.21544 79.74406c-1.3953857 0 -2.5212097 0.46995544 -3.3774567 1.4098816c-0.8562622 0.9383774 -1.2843933 2.256279 -1.2843933 3.9537048c0 1.6046677 0.42585754 2.8700104 1.2775879 3.7960129c0.85173035 0.924469 1.9390411 1.3866959 3.2619324 1.3866959c1.0691986 0 1.9511261 -0.26976013 2.6457977 -0.809288c0.69618225 -0.54107666 1.1937714 -1.3681412 1.4927826 -2.4812088l-1.9503632 -0.63305664c-0.16763306 0.7466812 -0.443985 1.2939377 -0.82907104 1.6417694c-0.38508606 0.34783173 -0.8449402 0.5217514 -1.3795319 0.5217514c-0.7248688 0 -1.3138275 -0.27362823 -1.7668762 -0.8208847c-0.4530487 -0.54725647 -0.6795654 -1.465538 -0.6795654 -2.754837c0 -1.2151031 0.22953796 -2.093956 0.68862915 -2.6365814c0.46058655 -0.5426178 1.0601196 -0.8139267 1.798584 -0.8139267c0.53460693 0 0.9884033 0.15304565 1.3614044 0.45913696c0.37452698 0.30609894 0.62068176 0.7234955 0.73846436 1.2522049l1.9911499 -0.486969c-0.22653198 -0.81624603 -0.5663147 -1.4423447 -1.0193634 -1.8782959c-0.7611084 -0.7374115 -1.7510223 -1.1061096 -2.9697113 -1.1061096z" fill-rule="evenodd"/><path fill="#ffffff" d="m172.86533 82.29715l1.3727264 3.7844238l-2.718277 0l1.3455505 -3.7844238zm-1.0397491 -2.379181l-3.8803406 10.198471l2.13385 0l0.8222809 -2.316574l3.9822845 0l0.8698425 2.316574l2.1882172 0l-3.9890747 -10.198471z" fill-rule="evenodd"/><path stroke="#ffffff" stroke-width="1.0" stroke-linejoin="round" stroke-linecap="butt" d="m17.45455 82.29715l1.3727303 3.7844238l-2.718279 0l1.3455486 -3.7844238zm-1.0397415 -2.379181l-3.8803434 10.198471l2.1338491 0l0.822279 -2.316574l3.9822788 0l0.86984825 2.316574l2.1882133 0l-3.9890728 -10.198471z" fill-rule="evenodd"/><path stroke="#ffffff" stroke-width="1.0" stroke-linejoin="round" stroke-linecap="butt" d="m27.084051 79.74406c-0.7656498 0 -1.4195442 0.118263245 -1.9616909 0.35478973c-0.54063416 0.23652649 -0.9551716 0.5812683 -1.2436123 1.0342178c-0.28692818 0.45141602 -0.43039513 0.93683624 -0.43039513 1.4562683c0 0.8069687 0.3058071 1.4910431 0.91741943 2.0522156c0.43492508 0.39884186 1.1915112 0.73508453 2.269762 1.0087128c0.8381367 0.21334076 1.3749962 0.36174774 1.6105804 0.44522858c0.34431458 0.12521362 0.585186 0.27285004 0.72260857 0.4429016c0.138937 0.16851044 0.20840263 0.37334442 0.20840263 0.6145096c0 0.37565613 -0.1646061 0.7041702 -0.4938221 0.98552704c-0.32770157 0.27980804 -0.8154831 0.41971588 -1.4633389 0.41971588c-0.6116123 0 -1.0978813 -0.15768433 -1.4588089 -0.47305298c-0.35941696 -0.31536865 -0.59802246 -0.809288 -0.7158146 -1.4817657l-1.957161 0.19478607c0.1313839 1.140892 0.5345955 2.0097046 1.2096348 2.60643c0.6750393 0.5951767 1.6422939 0.89276886 2.901762 0.89276886c0.8653183 0 1.5879288 -0.123672485 2.1678276 -0.37101746c0.57989883 -0.24890137 1.0284157 -0.6284256 1.3455467 -1.1385803c0.31713295 -0.5101547 0.47570038 -1.0574112 0.47570038 -1.6417694c0 -0.6446533 -0.13289261 -1.1857224 -0.39868164 -1.6232224c-0.2642765 -0.43904114 -0.63124275 -0.7845535 -1.1009026 -1.0365448c-0.46814728 -0.25352478 -1.1915131 -0.49855804 -2.1700935 -0.73508453c-0.97857857 -0.23652649 -1.5947227 -0.46377563 -1.8484287 -0.68175507c-0.19934082 -0.17159271 -0.29901123 -0.37797546 -0.29901123 -0.6191406c0 -0.2643509 0.10646629 -0.4753723 0.31939888 -0.63305664c0.3307228 -0.24580383 0.78829956 -0.36870575 1.3727303 -0.36870575c0.566309 0 0.9906635 0.11517334 1.2730598 0.34552002c0.28391075 0.22879791 0.4689045 0.6052246 0.55498314 1.1292953l2.011526 -0.09043884c-0.031713486 -0.9368286 -0.3639469 -1.6858292 -0.9967022 -2.2470016c-0.63124466 -0.56116486 -1.5720711 -0.8417511 -2.8224792 -0.8417511z" fill-rule="evenodd"/><path stroke="#ffffff" stroke-width="1.0" stroke-linejoin="round" stroke-linecap="butt" d="m36.36697 79.74406c-0.7656479 0 -1.4195442 0.118263245 -1.961689 0.35478973c-0.54063416 0.23652649 -0.9551735 0.5812683 -1.2436142 1.0342178c-0.28692627 0.45141602 -0.43039322 0.93683624 -0.43039322 1.4562683c0 0.8069687 0.3058052 1.4910431 0.91741943 2.0522156c0.43492508 0.39884186 1.1915131 0.73508453 2.269764 1.0087128c0.83813477 0.21334076 1.3749962 0.36174774 1.6105804 0.44522858c0.34431458 0.12521362 0.585186 0.27285004 0.72260666 0.4429016c0.13893509 0.16851044 0.20840073 0.37334442 0.20840073 0.6145096c0 0.37565613 -0.16460419 0.7041702 -0.4938202 0.98552704c-0.32770157 0.27980804 -0.8154831 0.41971588 -1.4633408 0.41971588c-0.6116104 0 -1.0978775 -0.15768433 -1.4588089 -0.47305298c-0.35941315 -0.31536865 -0.59801865 -0.809288 -0.7158127 -1.4817657l-1.957161 0.19478607c0.1313858 1.140892 0.5345955 2.0097046 1.2096367 2.60643c0.6750374 0.5951767 1.642292 0.89276886 2.90176 0.89276886c0.8653183 0 1.5879288 -0.123672485 2.1678276 -0.37101746c0.57989883 -0.24890137 1.0284157 -0.6284256 1.3455467 -1.1385803c0.31713486 -0.5101547 0.47570038 -1.0574112 0.47570038 -1.6417694c0 -0.6446533 -0.13289261 -1.1857224 -0.39868164 -1.6232224c-0.2642746 -0.43904114 -0.63124466 -0.7845535 -1.1009026 -1.0365448c-0.46814728 -0.25352478 -1.1915131 -0.49855804 -2.1700935 -0.73508453c-0.9785805 -0.23652649 -1.5947227 -0.46377563 -1.8484268 -0.68175507c-0.19934082 -0.17159271 -0.29901123 -0.37797546 -0.29901123 -0.6191406c0 -0.2643509 0.106464386 -0.4753723 0.31939697 -0.63305664c0.3307228 -0.24580383 0.78829956 -0.36870575 1.3727303 -0.36870575c0.56630707 0 0.9906616 0.11517334 1.2730598 0.34552002c0.28391266 0.22879791 0.4689026 0.6052246 0.55498123 1.1292953l2.011528 -0.09043884c-0.031715393 -0.9368286 -0.363945 -1.6858292 -0.9967041 -2.2470016c-0.63124084 -0.56116486 -1.5720711 -0.8417511 -2.8224792 -0.8417511z" fill-rule="evenodd"/><path stroke="#ffffff" stroke-width="1.0" stroke-linejoin="round" stroke-linecap="butt" d="m46.594494 81.50409c0.82907486 0 1.4935455 0.28754425 1.9934044 0.8626251c0.5013733 0.5750885 0.7520561 1.4469833 0.7520561 2.6157074c0 1.1826324 -0.2574768 2.069992 -0.77244186 2.6620789c-0.5134506 0.59054565 -1.1711273 0.8858185 -1.9730186 0.8858185c-0.8018913 0 -1.4633408 -0.29759216 -1.9843445 -0.89276886c-0.5209999 -0.5967331 -0.78150177 -1.472496 -0.78150177 -2.627304c0 -1.1733551 0.25370407 -2.0506668 0.761116 -2.6319351c0.50741196 -0.5828171 1.1756554 -0.8742218 2.0047302 -0.8742218zm-0.020385742 -1.7600327c-0.81095505 0 -1.5267677 0.13449097 -2.1474419 0.40348053c-0.46663666 0.19942474 -0.89627457 0.5055237 -1.2889175 0.91828156c-0.39112854 0.4127655 -0.699955 0.8788605 -0.92647934 1.3982925c-0.30353928 0.7049408 -0.45531082 1.5768433 -0.45531082 2.6156998c0 1.6232224 0.437191 2.8978424 1.3115692 3.823845c0.8743782 0.924469 2.0522995 1.3866959 3.533764 1.3866959c1.463337 0 2.6321983 -0.4645462 3.5065765 -1.3936462c0.874382 -0.9306488 1.3115692 -2.2191772 1.3115692 -3.8655853c0 -1.6603241 -0.44096375 -2.956581 -1.322895 -3.8887787c-0.88041687 -0.93218994 -2.0545654 -1.3982849 -3.5224342 -1.3982849z" fill-rule="evenodd"/><path stroke="#ffffff" stroke-width="1.0" stroke-linejoin="round" stroke-linecap="butt" d="m57.297714 79.74406c-1.3953819 0 -2.521202 0.46995544 -3.3774605 1.4098816c-0.8562584 0.9383774 -1.2843857 2.256279 -1.2843857 3.9537048c0 1.6046677 0.42586517 2.8700104 1.2775917 3.7960129c0.85172653 0.924469 1.9390373 1.3866959 3.2619324 1.3866959c1.069191 0 1.9511185 -0.26976013 2.645794 -0.809288c0.69617844 -0.54107666 1.1937752 -1.3681412 1.4927864 -2.4812088l-1.950367 -0.63305664c-0.16762543 0.7466812 -0.443985 1.2939377 -0.82907486 1.6417694c-0.38508606 0.34783173 -0.84492874 0.5217514 -1.3795242 0.5217514c-0.7248764 0 -1.3138351 -0.27362823 -1.76688 -0.8208847c-0.4530487 -0.54725647 -0.67956924 -1.465538 -0.67956924 -2.754837c0 -1.2151031 0.22954178 -2.093956 0.68862915 -2.6365814c0.460598 -0.5426178 1.0601273 -0.8139267 1.7985954 -0.8139267c0.5345917 0 0.9883957 0.15304565 1.3614044 0.45913696c0.37451553 0.30609894 0.62067413 0.7234955 0.73846436 1.2522049l1.9911385 -0.486969c-0.22652435 -0.81624603 -0.56630707 -1.4423447 -1.0193558 -1.8782959c-0.761116 -0.7374115 -1.7510223 -1.1061096 -2.969719 -1.1061096z" fill-rule="evenodd"/><path stroke="#ffffff" stroke-width="1.0" stroke-linejoin="round" stroke-linecap="butt" d="m62.978916 79.91797l0 10.198471l2.0115242 0l0 -10.198471z" fill-rule="evenodd"/><path stroke="#ffffff" stroke-width="1.0" stroke-linejoin="round" stroke-linecap="butt" d="m70.814354 82.29715l1.3727341 3.7844238l-2.718277 0l1.3455429 -3.7844238zm-1.0397415 -2.379181l-3.8803406 10.198471l2.13385 0l0.8222809 -2.316574l3.982277 0l0.86985016 2.316574l2.1882095 0l-3.9890747 -10.198471z" fill-rule="evenodd"/><path stroke="#ffffff" stroke-width="1.0" stroke-linejoin="round" stroke-linecap="butt" d="m81.266136 79.74406c-1.3953857 0 -2.521202 0.46995544 -3.3774643 1.4098816c-0.8562546 0.9383774 -1.2843857 2.256279 -1.2843857 3.9537048c0 1.6046677 0.42586517 2.8700104 1.2775955 3.7960129c0.7036438 0.76374054 1.5680847 1.2120056 2.5933151 1.3447876l0 0c-0.18691254 0.031295776 -0.36724854 0.07772827 -0.5410156 0.13930511l-0.17668915 0.68870544c0.3035431 -0.09275055 0.6002884 -0.13912964 0.8902359 -0.13912964c0.29447937 0 0.51194 0.05796814 0.6523895 0.17391968c0.1404419 0.11594391 0.21066284 0.2527542 0.21066284 0.41043854c0 0.17623901 -0.07475281 0.32000732 -0.22425842 0.43131256c-0.19480896 0.14840698 -0.4938202 0.2226181 -0.8970337 0.2226181c-0.38961792 0 -0.817749 -0.025512695 -1.2843857 -0.07653046l0 0.82089233c0.29901123 0.07420349 0.7407303 0.11130524 1.3251648 0.11130524c0.82001495 0 1.4497452 -0.17391968 1.8891983 -0.5217514c0.32619476 -0.25507355 0.48929596 -0.58667755 0.48929596 -0.9948044c0 -0.36637878 -0.14723969 -0.6771164 -0.44171906 -0.93218994c-0.1738739 -0.15060425 -0.3951187 -0.256752 -0.6637497 -0.31843567l0 0c0.8213196 -0.07966614 1.5167542 -0.34068298 2.0863113 -0.7830353c0.69618225 -0.54107666 1.193779 -1.3681412 1.4927902 -2.4812088l-1.9503632 -0.63305664c-0.16763306 0.7466812 -0.4439926 1.2939377 -0.8290787 1.6417694c-0.38508606 0.34783173 -0.84493256 0.5217514 -1.3795242 0.5217514c-0.7248764 0 -1.3138351 -0.27362823 -1.7668839 -0.8208847c-0.4530487 -0.54725647 -0.6795654 -1.465538 -0.6795654 -2.754837c0 -1.2151031 0.22953796 -2.093956 0.68862915 -2.6365814c0.46059418 -0.5426178 1.0601273 -0.8139267 1.7985916 -0.8139267c0.5345993 0 0.9883957 0.15304565 1.3614044 0.45913696c0.37451935 0.30609894 0.62067413 0.7234955 0.73846436 1.2522049l1.9911423 -0.486969c-0.22652435 -0.81624603 -0.56630707 -1.4423447 -1.0193558 -1.8782959c-0.761116 -0.7374115 -1.7510223 -1.1061096 -2.969719 -1.1061096z" fill-rule="evenodd"/><path stroke="#ffffff" stroke-width="1.0" stroke-linejoin="round" stroke-linecap="butt" d="m92.302345 77.580536c-0.027183533 0.2179718 -0.08985138 0.3733368 -0.18801117 0.46609497c-0.09664917 0.09275055 -0.21746063 0.13912964 -0.36244202 0.13912964c-0.20386505 0 -0.4862671 -0.08193207 -0.84719086 -0.24580383c-0.35942078 -0.1654129 -0.6070862 -0.26512146 -0.7429962 -0.2991333c-0.13591766 -0.03555298 -0.28315735 -0.053337097 -0.44172668 -0.053337097c-0.3624344 0 -0.6591797 0.13140869 -0.8902359 0.39421082c-0.23104858 0.261261 -0.3465805 0.635376 -0.3465805 1.122345c0 0.060287476 0.0022659302 0.14376831 0.0067977905 0.2504425l0.86985016 0c0.0045318604 -0.2226181 0.047569275 -0.37875366 0.12911987 -0.46842194c0.0815506 -0.09120941 0.19480896 -0.1368103 0.3397827 -0.1368103c0.1902771 0 0.4938202 0.0811615 0.91062164 0.2434845c0.41680145 0.162323 0.6773071 0.25739288 0.7815094 0.2852173c0.14950562 0.032470703 0.30127716 0.048698425 0.455307 0.048698425c0.3533783 0 0.6418152 -0.13449097 0.8653183 -0.40348816c0.22501373 -0.26898956 0.33979034 -0.71652985 0.34431458 -1.3426285zm-1.386322 4.716614l1.3727341 3.7844238l-2.718277 0l1.3455429 -3.7844238zm-1.0397415 -2.379181l-3.8803406 10.198471l2.13385 0l0.8222809 -2.316574l3.982277 0l0.86985016 2.316574l2.1882095 0l-3.9890747 -10.198471z" fill-rule="evenodd"/><path stroke="#ffffff" stroke-width="1.0" stroke-linejoin="round" stroke-linecap="butt" d="m101.49013 81.50409c0.8290787 0 1.4935455 0.28754425 1.9934082 0.8626251c0.50136566 0.5750885 0.7520523 1.4469833 0.7520523 2.6157074c0 1.1826324 -0.2574768 2.069992 -0.7724457 2.6620789c-0.5134506 0.59054565 -1.1711197 0.8858185 -1.9730148 0.8858185c-0.80189514 0 -1.4633408 -0.29759216 -1.9843445 -0.89276886c-0.5210037 -0.5967331 -0.78150177 -1.472496 -0.78150177 -2.627304c0 -1.1733551 0.2537079 -2.0506668 0.761116 -2.6319351c0.5074158 -0.5828171 1.1756592 -0.8742218 2.0047302 -0.8742218zm-0.020385742 -1.7600327c-0.81095123 0 -1.5267639 0.13449097 -2.147438 0.40348053c-0.4666443 0.19942474 -0.8962784 0.5055237 -1.2889175 0.91828156c-0.39113617 0.4127655 -0.6999588 0.8788605 -0.92648315 1.3982925c-0.3035431 0.7049408 -0.45531464 1.5768433 -0.45531464 2.6156998c0 1.6232224 0.43719482 2.8978424 1.3115768 3.823845c0.8743744 0.924469 2.0522995 1.3866959 3.53376 1.3866959c1.4633408 0 2.6321945 -0.4645462 3.5065765 -1.3936462c0.874382 -0.9306488 1.3115692 -2.2191772 1.3115692 -3.8655853c0 -1.6603241 -0.44096375 -2.956581 -1.3228912 -3.8887787c-0.8804245 -0.93218994 -2.0545654 -1.3982849 -3.522438 -1.3982849z" fill-rule="evenodd"/><path stroke="#ffffff" stroke-width="1.0" stroke-linejoin="round" stroke-linecap="butt" d="m115.142685 82.29715l1.3727264 3.7844238l-2.718277 0l1.3455505 -3.7844238zm-1.0397415 -2.379181l-3.8803482 10.198471l2.13385 0l0.8222809 -2.316574l3.982277 0l0.86985016 2.316574l2.1882095 0l-3.989067 -10.198471zm5.436554 0l0 1.7252579l2.956131 0l0 8.473213l2.0115204 0l0 -8.473213l2.9493332 0l0 -1.7252579z" fill-rule="evenodd"/><path stroke="#ffffff" stroke-width="1.0" stroke-linejoin="round" stroke-linecap="butt" d="m128.80882 80.00145l0 10.11499l7.0131683 0l0 -1.7182999l-5.0016327 0l0 -8.39669z" fill-rule="evenodd"/><path stroke="#ffffff" stroke-width="1.0" stroke-linejoin="round" stroke-linecap="butt" d="m140.74887 77.25357l-0.9378052 2.08004l1.2096252 0l1.8688202 -2.08004zm-3.4929962 2.6643982l0 10.198471l7.5772095 0l0 -1.7182999l-5.565674 0l0 -2.7757034l5.0016174 0l0 -1.7182999l-5.0016174 0l0 -2.26091l5.3753815 0l0 -1.7252579z" fill-rule="evenodd"/><path stroke="#ffffff" stroke-width="1.0" stroke-linejoin="round" stroke-linecap="butt" d="m145.82526 79.91797l0 1.7252579l2.9561157 0l0 8.473213l2.0115356 0l0 -8.473213l2.9493256 0l0 -1.7252579z" fill-rule="evenodd"/><path stroke="#ffffff" stroke-width="1.0" stroke-linejoin="round" stroke-linecap="butt" d="m154.97905 79.91797l0 10.198471l2.0115356 0l0 -10.198471z" fill-rule="evenodd"/><path stroke="#ffffff" stroke-width="1.0" stroke-linejoin="round" stroke-linecap="butt" d="m163.21544 79.74406c-1.3953857 0 -2.5212097 0.46995544 -3.3774567 1.4098816c-0.8562622 0.9383774 -1.2843933 2.256279 -1.2843933 3.9537048c0 1.6046677 0.42585754 2.8700104 1.2775879 3.7960129c0.85173035 0.924469 1.9390411 1.3866959 3.2619324 1.3866959c1.0691986 0 1.9511261 -0.26976013 2.6457977 -0.809288c0.69618225 -0.54107666 1.1937714 -1.3681412 1.4927826 -2.4812088l-1.9503632 -0.63305664c-0.16763306 0.7466812 -0.443985 1.2939377 -0.82907104 1.6417694c-0.38508606 0.34783173 -0.8449402 0.5217514 -1.3795319 0.5217514c-0.7248688 0 -1.3138275 -0.27362823 -1.7668762 -0.8208847c-0.4530487 -0.54725647 -0.6795654 -1.465538 -0.6795654 -2.754837c0 -1.2151031 0.22953796 -2.093956 0.68862915 -2.6365814c0.46058655 -0.5426178 1.0601196 -0.8139267 1.798584 -0.8139267c0.53460693 0 0.9884033 0.15304565 1.3614044 0.45913696c0.37452698 0.30609894 0.62068176 0.7234955 0.73846436 1.2522049l1.9911499 -0.486969c-0.22653198 -0.81624603 -0.5663147 -1.4423447 -1.0193634 -1.8782959c-0.7611084 -0.7374115 -1.7510223 -1.1061096 -2.9697113 -1.1061096z" fill-rule="evenodd"/><path stroke="#ffffff" stroke-width="1.0" stroke-linejoin="round" stroke-linecap="butt" d="m172.86533 82.29715l1.3727264 3.7844238l-2.718277 0l1.3455505 -3.7844238zm-1.0397491 -2.379181l-3.8803406 10.198471l2.13385 0l0.8222809 -2.316574l3.9822845 0l0.8698425 2.316574l2.1882172 0l-3.9890747 -10.198471z" fill-rule="evenodd"/><path fill="#ffffff" d="m21.613504 131.0023c-2.952919 0 -5.3353863 0.99012756 -7.147403 2.9703827c-1.8120174 1.9769897 -2.718027 4.753586 -2.718027 8.329773c0 3.3807526 0.90121555 6.0466156 2.7036457 7.9975586c1.8024302 1.9476776 4.103404 2.921524 6.9029245 2.921524c2.2626247 0 4.128971 -0.5683441 5.599037 -1.7050476c1.4732628 -1.1399384 2.5262775 -2.882431 3.1590462 -5.227478l-4.1273727 -1.3337402c-0.35473442 1.5731354 -0.93956566 2.7261047 -1.7544937 3.4589386c-0.81492805 0.7328186 -1.7880478 1.0992279 -2.919361 1.0992279c-1.5339832 0 -2.780344 -0.57647705 -3.7390842 -1.7294617c-0.9587383 -1.1529694 -1.4381084 -3.0876312 -1.4381084 -5.8039703c0 -2.5599976 0.48576164 -4.411606 1.457283 -5.5548096c0.97472 -1.1432037 2.2434502 -1.7148132 3.8061962 -1.7148132c1.1313133 0 2.09165 0.32244873 2.881012 0.96733093c0.79255867 0.6448822 1.3134727 1.5242767 1.562746 2.6381683l4.2136593 -1.0259552c-0.47937012 -1.719696 -1.1984253 -3.0387726 -2.1571636 -3.9572449c-1.6106834 -1.5535889 -3.7055283 -2.3303833 -6.2845364 -2.3303833z" fill-rule="evenodd"/><path stroke="#ffffff" stroke-width="1.0" stroke-linejoin="round" stroke-linecap="butt" d="m21.613504 131.0023c-2.952919 0 -5.3353863 0.99012756 -7.147403 2.9703827c-1.8120174 1.9769897 -2.718027 4.753586 -2.718027 8.329773c0 3.3807526 0.90121555 6.0466156 2.7036457 7.9975586c1.8024302 1.9476776 4.103404 2.921524 6.9029245 2.921524c2.2626247 0 4.128971 -0.5683441 5.599037 -1.7050476c1.4732628 -1.1399384 2.5262775 -2.882431 3.1590462 -5.227478l-4.1273727 -1.3337402c-0.35473442 1.5731354 -0.93956566 2.7261047 -1.7544937 3.4589386c-0.81492805 0.7328186 -1.7880478 1.0992279 -2.919361 1.0992279c-1.5339832 0 -2.780344 -0.57647705 -3.7390842 -1.7294617c-0.9587383 -1.1529694 -1.4381084 -3.0876312 -1.4381084 -5.8039703c0 -2.5599976 0.48576164 -4.411606 1.457283 -5.5548096c0.97472 -1.1432037 2.2434502 -1.7148132 3.8061962 -1.7148132c1.1313133 0 2.09165 0.32244873 2.881012 0.96733093c0.79255867 0.6448822 1.3134727 1.5242767 1.562746 2.6381683l4.2136593 -1.0259552c-0.47937012 -1.719696 -1.1984253 -3.0387726 -2.1571636 -3.9572449c-1.6106834 -1.5535889 -3.7055283 -2.3303833 -6.2845364 -2.3303833z" fill-rule="evenodd"/><path fill="#ffffff" d="m36.09166 139.43011l2.0399666 6.1838837l-4.0395393 0l1.9995728 -6.1838837zm-1.545124 -3.8876648l-5.766445 16.664658l3.1710396 0l1.221962 -3.7853546l5.917927 0l1.2926521 3.7853546l3.2518272 0l-5.9280243 -16.664658z" fill-rule="evenodd"/><path fill="#ffffff" d="m45.180622 135.54245l0 16.664658l2.7771835 0l0 -13.118027l2.928669 13.118027l2.87817 0l2.9387665 -13.118027l0 13.118027l2.7771835 0l0 -16.664658l-4.4838905 0l-2.6559944 11.367432l-2.6862946 -11.367432z" fill-rule="evenodd"/><path fill="#ffffff" d="m66.88305 138.36157c1.0772171 0 1.7942352 0.037887573 2.151062 0.11367798c0.4847412 0.09851074 0.8853302 0.34480286 1.2017593 0.73887634c0.31642914 0.3940735 0.47464752 0.89424133 0.47464752 1.5005035c0 0.49258423 -0.113334656 0.9245453 -0.33999634 1.2958832c-0.22441864 0.3713379 -0.5352402 0.64416504 -0.932457 0.8184509c-0.39722443 0.17430115 -1.1849365 0.26145935 -2.3631363 0.26145935l-1.6360092 0l0 -4.7288513zm-4.4333916 -2.8191223l0 16.664658l2.9892616 0l0 -6.286194l1.9490738 0c1.3532486 0 2.3866959 -0.079574585 3.1003494 -0.23872375c0.52513885 -0.12882996 1.0413055 -0.39154053 1.5484924 -0.7881317c0.50942993 -0.39912415 0.9290924 -0.94729614 1.2589874 -1.6444855c0.32989502 -0.6972046 0.49484253 -1.5573425 0.49484253 -2.5804138c0 -1.3262024 -0.2861328 -2.407364 -0.85839844 -3.2434998c-0.57227325 -0.8386688 -1.2825546 -1.3830414 -2.1308594 -1.6331329c-0.5520706 -0.16671753 -1.7369995 -0.2500763 -3.5547943 -0.2500763z" fill-rule="evenodd"/><path fill="#ffffff" d="m82.82914 138.13422c1.2320557 0 2.2194977 0.4698639 2.962326 1.4095612c0.7450714 0.9397125 1.1176071 2.3644257 1.1176071 4.2741547c0 1.9324646 -0.38263702 3.3824463 -1.1479034 4.349945c-0.7630234 0.9649658 -1.7403717 1.4474487 -2.9320297 1.4474487c-1.1916656 0 -2.1746216 -0.4862671 -2.9488678 -1.4588165c-0.7742462 -0.9750824 -1.1613693 -2.4061127 -1.1613693 -4.293106c0 -1.9172974 0.37702942 -3.3508606 1.131073 -4.3006744c0.7540512 -0.95233154 1.7471008 -1.4285126 2.9791641 -1.4285126zm-0.030296326 -2.875946c-1.2051315 0 -2.2688751 0.21975708 -3.1912384 0.65930176c-0.69345856 0.3258667 -1.3319244 0.82603455 -1.9154129 1.5005035c-0.5812454 0.674469 -1.040184 1.4360809 -1.3768158 2.284851c-0.45108032 1.1519012 -0.6766205 2.5766144 -0.6766205 4.2741547c0 2.6524048 0.6496887 4.7351685 1.9490814 6.248291c1.2993851 1.5106049 3.0498505 2.265915 5.251396 2.265915c2.1746216 0 3.911621 -0.75909424 5.211006 -2.2772827c1.2993851 -1.5207062 1.9490814 -3.6262054 1.9490814 -6.316498c0 -2.713028 -0.65530396 -4.8311615 -1.9659119 -6.3543854c-1.3083572 -1.5232391 -3.053215 -2.284851 -5.2345657 -2.284851z" fill-rule="evenodd"/><path stroke="#ffffff" stroke-width="1.0" stroke-linejoin="round" stroke-linecap="butt" d="m36.09166 139.43011l2.0399666 6.1838837l-4.0395393 0l1.9995728 -6.1838837zm-1.545124 -3.8876648l-5.766445 16.664658l3.1710396 0l1.221962 -3.7853546l5.917927 0l1.2926521 3.7853546l3.2518272 0l-5.9280243 -16.664658z" fill-rule="evenodd"/><path stroke="#ffffff" stroke-width="1.0" stroke-linejoin="round" stroke-linecap="butt" d="m45.180622 135.54245l0 16.664658l2.7771835 0l0 -13.118027l2.928669 13.118027l2.87817 0l2.9387665 -13.118027l0 13.118027l2.7771835 0l0 -16.664658l-4.4838905 0l-2.6559944 11.367432l-2.6862946 -11.367432z" fill-rule="evenodd"/><path stroke="#ffffff" stroke-width="1.0" stroke-linejoin="round" stroke-linecap="butt" d="m66.88305 138.36157c1.0772171 0 1.7942352 0.037887573 2.151062 0.11367798c0.4847412 0.09851074 0.8853302 0.34480286 1.2017593 0.73887634c0.31642914 0.3940735 0.47464752 0.89424133 0.47464752 1.5005035c0 0.49258423 -0.113334656 0.9245453 -0.33999634 1.2958832c-0.22441864 0.3713379 -0.5352402 0.64416504 -0.932457 0.8184509c-0.39722443 0.17430115 -1.1849365 0.26145935 -2.3631363 0.26145935l-1.6360092 0l0 -4.7288513zm-4.4333916 -2.8191223l0 16.664658l2.9892616 0l0 -6.286194l1.9490738 0c1.3532486 0 2.3866959 -0.079574585 3.1003494 -0.23872375c0.52513885 -0.12882996 1.0413055 -0.39154053 1.5484924 -0.7881317c0.50942993 -0.39912415 0.9290924 -0.94729614 1.2589874 -1.6444855c0.32989502 -0.6972046 0.49484253 -1.5573425 0.49484253 -2.5804138c0 -1.3262024 -0.2861328 -2.407364 -0.85839844 -3.2434998c-0.57227325 -0.8386688 -1.2825546 -1.3830414 -2.1308594 -1.6331329c-0.5520706 -0.16671753 -1.7369995 -0.2500763 -3.5547943 -0.2500763z" fill-rule="evenodd"/><path stroke="#ffffff" stroke-width="1.0" stroke-linejoin="round" stroke-linecap="butt" d="m82.82914 138.13422c1.2320557 0 2.2194977 0.4698639 2.962326 1.4095612c0.7450714 0.9397125 1.1176071 2.3644257 1.1176071 4.2741547c0 1.9324646 -0.38263702 3.3824463 -1.1479034 4.349945c-0.7630234 0.9649658 -1.7403717 1.4474487 -2.9320297 1.4474487c-1.1916656 0 -2.1746216 -0.4862671 -2.9488678 -1.4588165c-0.7742462 -0.9750824 -1.1613693 -2.4061127 -1.1613693 -4.293106c0 -1.9172974 0.37702942 -3.3508606 1.131073 -4.3006744c0.7540512 -0.95233154 1.7471008 -1.4285126 2.9791641 -1.4285126zm-0.030296326 -2.875946c-1.2051315 0 -2.2688751 0.21975708 -3.1912384 0.65930176c-0.69345856 0.3258667 -1.3319244 0.82603455 -1.9154129 1.5005035c-0.5812454 0.674469 -1.040184 1.4360809 -1.3768158 2.284851c-0.45108032 1.1519012 -0.6766205 2.5766144 -0.6766205 4.2741547c0 2.6524048 0.6496887 4.7351685 1.9490814 6.248291c1.2993851 1.5106049 3.0498505 2.265915 5.251396 2.265915c2.1746216 0 3.911621 -0.75909424 5.211006 -2.2772827c1.2993851 -1.5207062 1.9490814 -3.6262054 1.9490814 -6.316498c0 -2.713028 -0.65530396 -4.8311615 -1.9659119 -6.3543854c-1.3083572 -1.5232391 -3.053215 -2.284851 -5.2345657 -2.284851z" fill-rule="evenodd"/><path fill="#ffffff" d="m99.31045 131.49335l0 21.310532l14.841293 0l0 -3.6201477l-10.584488 0l0 -17.690384z" fill-rule="evenodd"/><path stroke="#ffffff" stroke-width="1.0" stroke-linejoin="round" stroke-linecap="butt" d="m99.31045 131.49335l0 21.310532l14.841293 0l0 -3.6201477l-10.584488 0l0 -17.690384z" fill-rule="evenodd"/><path fill="#ffffff" d="m123.27147 140.1918l2.0399628 6.1838684l-4.0395355 0l1.9995728 -6.1838684zm-1.5451279 -3.8876648l-5.7664413 16.664642l3.1710358 0l1.221962 -3.7853394l5.917923 0l1.292656 3.7853394l3.251831 0l-5.9280243 -16.664642z" fill-rule="evenodd"/><path fill="#ffffff" d="m137.73302 139.12326c1.2118683 0 1.9389801 0.018951416 2.1813507 0.05683899c0.4847412 0.09094238 0.8595276 0.30944824 1.1243439 0.6555176c0.26705933 0.34355164 0.400589 0.79571533 0.400589 1.3565063c0 0.50016785 -0.100997925 0.9169769 -0.30296326 1.2504272c-0.20198059 0.33343506 -0.48138428 0.56837463 -0.83821106 0.70477295c-0.35682678 0.13641357 -1.2522583 0.20462036 -2.6862946 0.20462036l-2.2116394 0l0 -4.2286835zm-5.322098 -2.8191223l0 16.664642l2.989273 0l0 -6.9568634l0.6059265 0c0.6867218 0 1.1882935 0.06315613 1.5047302 0.18946838c0.3164215 0.12376404 0.61602783 0.35490417 0.89878845 0.69340515c0.28277588 0.33596802 0.8079071 1.1519012 1.5754242 2.4477844l2.161148 3.6262054l3.574997 0l-1.8076935 -3.2510834c-0.71365356 -1.2958832 -1.2814331 -2.1976929 -1.7033386 -2.7054443c-0.41966248 -0.5077362 -0.952652 -0.97380066 -1.5989838 -1.3981934c1.2993927 -0.21218872 2.2756042 -0.72499084 2.9286652 -1.5383911c0.6530609 -0.8159332 0.97958374 -1.8491058 0.97958374 -3.0995178c0 -0.9851837 -0.21543884 -1.8604736 -0.6463165 -2.6258698c-0.43089294 -0.7654114 -1.0054016 -1.2971497 -1.7235413 -1.5952301c-0.7158966 -0.3006134 -1.864914 -0.45091248 -3.4470673 -0.45091248z" fill-rule="evenodd"/><path fill="#ffffff" d="m154.17395 136.01994c-1.4138489 0 -2.5954132 0.27661133 -3.544693 0.829834c-1.2455292 0.7199402 -2.191452 1.754364 -2.8377838 3.103302c-0.6463318 1.348938 -0.9694824 2.8911133 -0.9694824 4.626541c0 1.5990295 0.28948975 3.0793152 0.86849976 4.4408875c0.57899475 1.359024 1.4441376 2.404831 2.595398 3.1374054c1.1512756 0.7300415 2.5011444 1.0950623 4.049637 1.0950623c1.2185974 0 2.4214783 -0.2589264 3.6086578 -0.7767792c1.1894226 -0.5203705 2.0971985 -1.121582 2.7233276 -1.8036346l0 -6.6385803l-6.4430695 0l0 2.8077545l3.4235077 0l0 2.1143494c-0.45108032 0.3940735 -0.9919281 0.7300415 -1.6225433 1.0079193c-0.6283722 0.2753296 -1.2556305 0.41300964 -1.8817596 0.41300964c-1.2657166 0 -2.2890625 -0.4938507 -3.070053 -1.4815521c-0.78097534 -0.9902344 -1.171463 -2.4743195 -1.171463 -4.45224c0 -1.8339539 0.3848877 -3.2169952 1.1546326 -4.149124c0.7720032 -0.9321289 1.8110657 -1.3981934 3.1171875 -1.3981934c0.86177063 0 1.5799103 0.23745728 2.154419 0.7123718c0.5767517 0.47236633 0.9694824 1.1177826 1.1781921 1.9362488l2.9690704 -0.6252136c-0.29623413 -1.5308075 -0.9616394 -2.7294464 -1.9962006 -3.5959015c-1.0323334 -0.8689728 -2.4674988 -1.3034668 -4.305481 -1.3034668z" fill-rule="evenodd"/><path fill="#ffffff" d="m170.00894 138.8959c1.2320557 0 2.219513 0.4698639 2.962326 1.4095612c0.7450714 0.9397125 1.1176147 2.3644257 1.1176147 4.2741547c0 1.9324646 -0.3826294 3.3824463 -1.1479034 4.349945c-0.763031 0.9649658 -1.7403717 1.4474487 -2.9320374 1.4474487c-1.1916656 0 -2.1746216 -0.4862671 -2.9488678 -1.4588165c-0.7742462 -0.9750824 -1.1613617 -2.4061127 -1.1613617 -4.293106c0 -1.9172974 0.37702942 -3.3508606 1.131073 -4.3006744c0.7540436 -0.95233154 1.7471008 -1.4285126 2.9791565 -1.4285126zm-0.030288696 -2.8759613c-1.2051392 0 -2.2688751 0.21977234 -3.1912384 0.659317c-0.6934509 0.3258667 -1.3319244 0.82603455 -1.9154205 1.5005035c-0.5812378 0.674469 -1.0401764 1.4360809 -1.3768005 2.284851c-0.45109558 1.1519012 -0.67663574 2.5766144 -0.67663574 4.2741547c0 2.6524048 0.649704 4.7351685 1.9490814 6.248291c1.2993927 1.5106049 3.0498505 2.265915 5.251404 2.265915c2.1746216 0 3.911621 -0.75909424 5.211014 -2.2772827c1.2993774 -1.5207062 1.9490662 -3.6262054 1.9490662 -6.316498c0 -2.713028 -0.65530396 -4.8311615 -1.9658966 -6.3543854c-1.3083649 -1.5232391 -3.0532227 -2.2848663 -5.2345734 -2.2848663z" fill-rule="evenodd"/><path stroke="#ffffff" stroke-width="1.0" stroke-linejoin="round" stroke-linecap="butt" d="m123.27147 140.1918l2.0399628 6.1838684l-4.0395355 0l1.9995728 -6.1838684zm-1.5451279 -3.8876648l-5.7664413 16.664642l3.1710358 0l1.221962 -3.7853394l5.917923 0l1.292656 3.7853394l3.251831 0l-5.9280243 -16.664642z" fill-rule="evenodd"/><path stroke="#ffffff" stroke-width="1.0" stroke-linejoin="round" stroke-linecap="butt" d="m137.73302 139.12326c1.2118683 0 1.9389801 0.018951416 2.1813507 0.05683899c0.4847412 0.09094238 0.8595276 0.30944824 1.1243439 0.6555176c0.26705933 0.34355164 0.400589 0.79571533 0.400589 1.3565063c0 0.50016785 -0.100997925 0.9169769 -0.30296326 1.2504272c-0.20198059 0.33343506 -0.48138428 0.56837463 -0.83821106 0.70477295c-0.35682678 0.13641357 -1.2522583 0.20462036 -2.6862946 0.20462036l-2.2116394 0l0 -4.2286835zm-5.322098 -2.8191223l0 16.664642l2.989273 0l0 -6.9568634l0.6059265 0c0.6867218 0 1.1882935 0.06315613 1.5047302 0.18946838c0.3164215 0.12376404 0.61602783 0.35490417 0.89878845 0.69340515c0.28277588 0.33596802 0.8079071 1.1519012 1.5754242 2.4477844l2.161148 3.6262054l3.574997 0l-1.8076935 -3.2510834c-0.71365356 -1.2958832 -1.2814331 -2.1976929 -1.7033386 -2.7054443c-0.41966248 -0.5077362 -0.952652 -0.97380066 -1.5989838 -1.3981934c1.2993927 -0.21218872 2.2756042 -0.72499084 2.9286652 -1.5383911c0.6530609 -0.8159332 0.97958374 -1.8491058 0.97958374 -3.0995178c0 -0.9851837 -0.21543884 -1.8604736 -0.6463165 -2.6258698c-0.43089294 -0.7654114 -1.0054016 -1.2971497 -1.7235413 -1.5952301c-0.7158966 -0.3006134 -1.864914 -0.45091248 -3.4470673 -0.45091248z" fill-rule="evenodd"/><path stroke="#ffffff" stroke-width="1.0" stroke-linejoin="round" stroke-linecap="butt" d="m154.17395 136.01994c-1.4138489 0 -2.5954132 0.27661133 -3.544693 0.829834c-1.2455292 0.7199402 -2.191452 1.754364 -2.8377838 3.103302c-0.6463318 1.348938 -0.9694824 2.8911133 -0.9694824 4.626541c0 1.5990295 0.28948975 3.0793152 0.86849976 4.4408875c0.57899475 1.359024 1.4441376 2.404831 2.595398 3.1374054c1.1512756 0.7300415 2.5011444 1.0950623 4.049637 1.0950623c1.2185974 0 2.4214783 -0.2589264 3.6086578 -0.7767792c1.1894226 -0.5203705 2.0971985 -1.121582 2.7233276 -1.8036346l0 -6.6385803l-6.4430695 0l0 2.8077545l3.4235077 0l0 2.1143494c-0.45108032 0.3940735 -0.9919281 0.7300415 -1.6225433 1.0079193c-0.6283722 0.2753296 -1.2556305 0.41300964 -1.8817596 0.41300964c-1.2657166 0 -2.2890625 -0.4938507 -3.070053 -1.4815521c-0.78097534 -0.9902344 -1.171463 -2.4743195 -1.171463 -4.45224c0 -1.8339539 0.3848877 -3.2169952 1.1546326 -4.149124c0.7720032 -0.9321289 1.8110657 -1.3981934 3.1171875 -1.3981934c0.86177063 0 1.5799103 0.23745728 2.154419 0.7123718c0.5767517 0.47236633 0.9694824 1.1177826 1.1781921 1.9362488l2.9690704 -0.6252136c-0.29623413 -1.5308075 -0.9616394 -2.7294464 -1.9962006 -3.5959015c-1.0323334 -0.8689728 -2.4674988 -1.3034668 -4.305481 -1.3034668z" fill-rule="evenodd"/><path stroke="#ffffff" stroke-width="1.0" stroke-linejoin="round" stroke-linecap="butt" d="m170.00894 138.8959c1.2320557 0 2.219513 0.4698639 2.962326 1.4095612c0.7450714 0.9397125 1.1176147 2.3644257 1.1176147 4.2741547c0 1.9324646 -0.3826294 3.3824463 -1.1479034 4.349945c-0.763031 0.9649658 -1.7403717 1.4474487 -2.9320374 1.4474487c-1.1916656 0 -2.1746216 -0.4862671 -2.9488678 -1.4588165c-0.7742462 -0.9750824 -1.1613617 -2.4061127 -1.1613617 -4.293106c0 -1.9172974 0.37702942 -3.3508606 1.131073 -4.3006744c0.7540436 -0.95233154 1.7471008 -1.4285126 2.9791565 -1.4285126zm-0.030288696 -2.8759613c-1.2051392 0 -2.2688751 0.21977234 -3.1912384 0.659317c-0.6934509 0.3258667 -1.3319244 0.82603455 -1.9154205 1.5005035c-0.5812378 0.674469 -1.0401764 1.4360809 -1.3768005 2.284851c-0.45109558 1.1519012 -0.67663574 2.5766144 -0.67663574 4.2741547c0 2.6524048 0.649704 4.7351685 1.9490814 6.248291c1.2993927 1.5106049 3.0498505 2.265915 5.251404 2.265915c2.1746216 0 3.911621 -0.75909424 5.211014 -2.2772827c1.2993774 -1.5207062 1.9490662 -3.6262054 1.9490662 -6.316498c0 -2.713028 -0.65530396 -4.8311615 -1.9658966 -6.3543854c-1.3083649 -1.5232391 -3.0532227 -2.2848663 -5.2345734 -2.2848663z" fill-rule="evenodd"/></g></svg>